<?xml version="1.0" encoding="utf-8"?>
<!-- Generator: Adobe Illustrator 16.0.0, SVG Export Plug-In . SVG Version: 6.00 Build 0)  -->
<!DOCTYPE svg PUBLIC "-//W3C//DTD SVG 1.1//EN" "http://www.w3.org/Graphics/SVG/1.1/DTD/svg11.dtd">
<svg version="1.1" id="Layer_1" xmlns="http://www.w3.org/2000/svg" xmlns:xlink="http://www.w3.org/1999/xlink" x="0px" y="0px"
	 width="750px" height="1200px" viewBox="0 0 750 1200" enable-background="new 0 0 750 1200" xml:space="preserve">
<g>
	<rect y="1075" fill="#3A6297" stroke="#000000" stroke-miterlimit="10" width="750" height="125"/>
	<g>
		<line fill="#FFFFFF" stroke="#FFFFFF" stroke-width="3" stroke-miterlimit="10" x1="375.375" y1="1110" x2="375.375" y2="1165"/>
		
			<line fill="#FFFFFF" stroke="#FFFFFF" stroke-width="3" stroke-miterlimit="10" x1="347.875" y1="1137.5" x2="402.125" y2="1137.5"/>
	</g>
	<g>
		
			<line fill="#FFFFFF" stroke="#FFFFFF" stroke-width="3" stroke-miterlimit="10" x1="591.667" y1="1107.5" x2="591.667" y2="1167.499"/>
		
			<line fill="#FFFFFF" stroke="#FFFFFF" stroke-width="3" stroke-miterlimit="10" x1="590.667" y1="1166.499" x2="676.667" y2="1166.499"/>
		
			<line fill="#FFFFFF" stroke="#FFFFFF" stroke-width="3" stroke-miterlimit="10" x1="591.667" y1="1167.499" x2="611.667" y2="1123.5"/>
		
			<line fill="#FFFFFF" stroke="#FFFFFF" stroke-width="3" stroke-miterlimit="10" x1="610.667" y1="1123.5" x2="620" y2="1139.999"/>
		<line fill="#FFFFFF" stroke="#FFFFFF" stroke-width="3" stroke-miterlimit="10" x1="619" y1="1139.999" x2="641" y2="1109.5"/>
		<line fill="#FFFFFF" stroke="#FFFFFF" stroke-width="3" stroke-miterlimit="10" x1="640" y1="1109.5" x2="644" y2="1134.833"/>
		
			<line fill="#FFFFFF" stroke="#FFFFFF" stroke-width="3" stroke-miterlimit="10" x1="643" y1="1134.833" x2="660.333" y2="1139.999"/>
		
			<line fill="#FFFFFF" stroke="#FFFFFF" stroke-width="3" stroke-miterlimit="10" x1="659.333" y1="1139.999" x2="676.667" y2="1116.833"/>
	</g>
	
		<rect x="124.354" y="1145" fill="none" stroke="#FFFFFF" stroke-width="3" stroke-miterlimit="10" width="34.498" height="29.916"/>
	
		<rect x="124.354" y="1105.001" fill="none" stroke="#FFFFFF" stroke-width="3" stroke-miterlimit="10" width="34.498" height="29.916"/>
	<rect x="74.357" y="1145" fill="none" stroke="#FFFFFF" stroke-width="3" stroke-miterlimit="10" width="34.498" height="29.916"/>
	
		<rect x="74.357" y="1102.153" transform="matrix(0.925 0.38 -0.38 0.925 431.3161 48.9698)" fill="#FDFDFE" stroke="#FFFFFF" stroke-width="3" stroke-miterlimit="10" width="34.498" height="29.915"/>
</g>
<g>
	<line fill="#040403" stroke="#000000" stroke-miterlimit="10" x1="26.5" y1="44.5" x2="71" y2="20.5"/>
	<line fill="#040403" stroke="#000000" stroke-miterlimit="10" x1="26.5" y1="44.5" x2="71" y2="71.5"/>
</g>
<text transform="matrix(1 0 0 1 90.5024 59.5)" fill="#3A6297" font-family="'Avenir-Book'" font-size="36" letter-spacing="1">Add medicine</text>
<g id="Divider_9_" opacity="0.1">
	<g>
		<rect x="59.375" y="96" fill="#1D1D26" width="632" height="2"/>
	</g>
</g>
<text transform="matrix(1 0 0 1 334.6484 372.2041)" fill="#3A6297" font-family="'Avenir-Book'" font-size="30">hour</text>
<text transform="matrix(1 0 0 1 94.606 505.5054)" fill="#3A6297" font-family="'Avenir-Book'" font-size="30">day/s</text>
<text transform="matrix(1 0 0 1 331.3145 596.5)" fill="#3A6297" font-family="'Avenir-Book'" font-size="30">type</text>
<text transform="matrix(1 0 0 1 111.5576 660)" fill="#3A6297" font-family="'Avenir-Book'" font-size="31">details</text>
<rect x="184.979" y="469.505" fill="#FDFDFE" stroke="#3A6297" stroke-miterlimit="10" width="35.333" height="36"/>
<rect x="257.479" y="469.505" fill="#FDFDFE" stroke="#3A6297" stroke-miterlimit="10" width="35.167" height="36"/>
<rect x="328.979" y="469.505" fill="#FDFDFE" stroke="#3A6297" stroke-miterlimit="10" width="35.667" height="36"/>
<text transform="matrix(1 0 0 1 179.6465 457.1074)" fill="#3A6297" font-family="'Avenir-Book'" font-size="30">Mo</text>
<text transform="matrix(1 0 0 1 258.4795 457.1074)" fill="#3A6297" font-family="'Avenir-Book'" font-size="30">Tu</text>
<text transform="matrix(1 0 0 1 323.9795 457.1074)" fill="#3A6297" font-family="'Avenir-Book'" font-size="30">We</text>
<rect x="427.479" y="554" fill="#FDFDFE" stroke="#3A6297" stroke-miterlimit="10" width="219.666" height="66"/>
<polygon fill="#3A6297" stroke="#3A6297" stroke-miterlimit="10" points="621.561,582 630.221,582 625.891,589.5 621.561,597 
	617.23,589.5 612.9,582 "/>
<rect x="94.606" y="680.089" fill="#FDFDFE" stroke="#3A6297" stroke-miterlimit="10" width="561.164" height="212.989"/>
<rect x="94.231" y="922.004" fill="#FDFDFE" stroke="#3A6297" stroke-miterlimit="10" width="215.498" height="62"/>
<text transform="matrix(1 0 0 1 151.3315 963.0039)" fill="#3A6297" font-family="'Avenir-Book'" font-size="30">cancel</text>
<rect x="439.896" y="922.004" fill="#FDFDFE" stroke="#3A6297" stroke-miterlimit="10" width="215.498" height="62"/>
<text transform="matrix(1 0 0 1 520.3945 966.0039)" fill="#3A6297" font-family="'Avenir-Book'" font-size="30">OK</text>
<g>
	<rect x="503.646" y="328.204" fill="#FDFDFE" stroke="#3A6297" stroke-miterlimit="10" width="144.166" height="66"/>
	<text transform="matrix(1 0 0 1 512.0635 377.2041)" font-family="'MyriadPro-Regular'" font-size="48">00 : 00</text>
</g>
<text transform="matrix(1 0 0 1 230.606 238)" fill="#3A6297" font-family="'MyriadPro-Regular'" font-size="140">22 May</text>
<text transform="matrix(0.9999 -0.0175 0.0175 0.9999 428.8193 307.4868)" fill="#3A6297" font-family="'MyriadPro-Regular'" font-size="80">2016</text>
<rect x="399.146" y="469.505" fill="#FDFDFE" stroke="#3A6297" stroke-miterlimit="10" width="35.333" height="36"/>
<rect x="471.646" y="469.505" fill="#FDFDFE" stroke="#3A6297" stroke-miterlimit="10" width="35.167" height="36"/>
<rect x="543.146" y="469.505" fill="#FDFDFE" stroke="#3A6297" stroke-miterlimit="10" width="35.667" height="36"/>
<text transform="matrix(1 0 0 1 399.1455 457.1074)" fill="#3A6297" font-family="'Avenir-Book'" font-size="30">Th</text>
<text transform="matrix(1 0 0 1 474.6455 457.1074)" fill="#3A6297" font-family="'Avenir-Book'" font-size="30">Fr</text>
<text transform="matrix(1 0 0 1 544.1455 457.1074)" fill="#54BE8D" font-family="'Avenir-Book'" font-size="30">Sa</text>
<rect x="612.167" y="469.505" fill="#FDFDFE" stroke="#3A6297" stroke-miterlimit="10" width="35.667" height="36"/>
<text transform="matrix(1 0 0 1 612.167 457.1074)" fill="#54BE8D" font-family="'Avenir-Book'" font-size="30">Su</text>
<text transform="matrix(1 0 0 1 519.5205 72.1284)" fill="#E06D6D" font-family="'Avenir-Book'" font-size="72" letter-spacing="2">7 days</text>
<line fill="none" stroke="#3A6297" stroke-miterlimit="10" x1="504.607" y1="6.289" x2="504.607" y2="92.711"/>
<text transform="matrix(1 0 0 1 520.3945 94)" fill="#E06C6C" font-family="'MyriadPro-Regular'" font-size="30">seizure free</text>
</svg>
