<?xml version="1.0" encoding="utf-8"?>
<!-- Generator: Adobe Illustrator 16.0.0, SVG Export Plug-In . SVG Version: 6.00 Build 0)  -->
<!DOCTYPE svg PUBLIC "-//W3C//DTD SVG 1.1//EN" "http://www.w3.org/Graphics/SVG/1.1/DTD/svg11.dtd">
<svg version="1.1" id="Layer_1" xmlns="http://www.w3.org/2000/svg" xmlns:xlink="http://www.w3.org/1999/xlink" x="0px" y="0px"
	 width="750px" height="1200px" viewBox="0 0 750 1200" enable-background="new 0 0 750 1200" xml:space="preserve">
<g>
	<rect y="1075" fill="#3A6297" stroke="#000000" stroke-miterlimit="10" width="750" height="125"/>
	<g>
		<line fill="#FFFFFF" stroke="#FFFFFF" stroke-width="3" stroke-miterlimit="10" x1="375.375" y1="1110" x2="375.375" y2="1165"/>
		
			<line fill="#FFFFFF" stroke="#FFFFFF" stroke-width="3" stroke-miterlimit="10" x1="347.875" y1="1137.5" x2="402.125" y2="1137.5"/>
	</g>
	<g>
		
			<line fill="#FFFFFF" stroke="#FFFFFF" stroke-width="3" stroke-miterlimit="10" x1="591.667" y1="1107.5" x2="591.667" y2="1167.499"/>
		
			<line fill="#FFFFFF" stroke="#FFFFFF" stroke-width="3" stroke-miterlimit="10" x1="590.667" y1="1166.499" x2="676.667" y2="1166.499"/>
		
			<line fill="#FFFFFF" stroke="#FFFFFF" stroke-width="3" stroke-miterlimit="10" x1="591.667" y1="1167.499" x2="611.667" y2="1123.5"/>
		
			<line fill="#FFFFFF" stroke="#FFFFFF" stroke-width="3" stroke-miterlimit="10" x1="610.667" y1="1123.5" x2="620" y2="1139.999"/>
		<line fill="#FFFFFF" stroke="#FFFFFF" stroke-width="3" stroke-miterlimit="10" x1="619" y1="1139.999" x2="641" y2="1109.5"/>
		<line fill="#FFFFFF" stroke="#FFFFFF" stroke-width="3" stroke-miterlimit="10" x1="640" y1="1109.5" x2="644" y2="1134.833"/>
		
			<line fill="#FFFFFF" stroke="#FFFFFF" stroke-width="3" stroke-miterlimit="10" x1="643" y1="1134.833" x2="660.333" y2="1139.999"/>
		
			<line fill="#FFFFFF" stroke="#FFFFFF" stroke-width="3" stroke-miterlimit="10" x1="659.333" y1="1139.999" x2="676.667" y2="1116.833"/>
	</g>
	
		<rect x="124.354" y="1145" fill="none" stroke="#FFFFFF" stroke-width="3" stroke-miterlimit="10" width="34.498" height="29.916"/>
	
		<rect x="124.354" y="1105.001" fill="none" stroke="#FFFFFF" stroke-width="3" stroke-miterlimit="10" width="34.498" height="29.916"/>
	<rect x="74.357" y="1145" fill="none" stroke="#FFFFFF" stroke-width="3" stroke-miterlimit="10" width="34.498" height="29.916"/>
	
		<rect x="74.357" y="1102.153" transform="matrix(0.925 0.38 -0.38 0.925 431.3161 48.9698)" fill="#FDFDFE" stroke="#FFFFFF" stroke-width="3" stroke-miterlimit="10" width="34.498" height="29.915"/>
</g>
<g>
	<line fill="#040403" stroke="#000000" stroke-miterlimit="10" x1="26.5" y1="44.5" x2="71" y2="20.5"/>
	<line fill="#040403" stroke="#000000" stroke-miterlimit="10" x1="26.5" y1="44.5" x2="71" y2="71.5"/>
</g>
<text transform="matrix(1 0 0 1 90.5024 59.5)" fill="#3A6297" font-family="'Avenir-Book'" font-size="36" letter-spacing="1">Add seizure</text>
<text transform="matrix(1 0 0 1 519.2471 72.5)" fill="#E06D6D" font-family="'Avenir-Book'" font-size="72" letter-spacing="2">0 days</text>
<g id="Divider_9_" opacity="0.1">
	<g>
		<rect x="59.375" y="96" fill="#1D1D26" width="632" height="2"/>
	</g>
</g>
<text transform="matrix(1 0 0 1 334.6484 384.2041)" fill="#3A6297" font-family="'Avenir-Book'" font-size="30">start</text>
<text transform="matrix(1 0 0 1 345.6484 465.2041)" fill="#3A6297" font-family="'Avenir-Book'" font-size="30">end</text>
<text transform="matrix(1 0 0 1 289.6484 545.0049)" fill="#3A6297" font-family="'Avenir-Book'" font-size="30">severity</text>
<text transform="matrix(1 0 0 1 335.6484 635.5)" fill="#3A6297" font-family="'Avenir-Book'" font-size="30">type</text>
<text transform="matrix(1 0 0 1 111.5576 660)" fill="#3A6297" font-family="'Avenir-Book'" font-size="31">details</text>
<g>
	<rect x="468.062" y="537.505" fill="#FDFDFE" stroke="#3A6297" stroke-miterlimit="10" width="35.333" height="36"/>
	<rect x="540.562" y="537.505" fill="#FDFDFE" stroke="#3A6297" stroke-miterlimit="10" width="35.167" height="36"/>
	<rect x="612.062" y="537.505" fill="#FDFDFE" stroke="#3A6297" stroke-miterlimit="10" width="35.667" height="36"/>
	<text transform="matrix(1 0 0 1 477.0615 525.1074)" fill="#53BD8D" font-family="'Avenir-Book'" font-size="30">L</text>
	<text transform="matrix(1 0 0 1 544.5615 525.1074)" fill="#994D22" font-family="'Avenir-Book'" font-size="30">M</text>
	<text transform="matrix(1 0 0 1 620.0615 525.1074)" fill="#E06C6C" font-family="'Avenir-Book'" font-size="30">S</text>
</g>
<rect x="431.812" y="593" fill="#FDFDFE" stroke="#3A6297" stroke-miterlimit="10" width="219.666" height="66"/>
<polygon fill="#3A6297" stroke="#3A6297" stroke-miterlimit="10" points="625.895,621 634.555,621 630.225,628.5 625.895,636 
	621.564,628.5 617.234,621 "/>
<rect x="94.606" y="680.089" fill="#FDFDFE" stroke="#3A6297" stroke-miterlimit="10" width="561.164" height="212.989"/>
<rect x="94.231" y="922.004" fill="#FDFDFE" stroke="#3A6297" stroke-miterlimit="10" width="215.498" height="62"/>
<text transform="matrix(1 0 0 1 151.3315 963.0039)" fill="#3A6297" font-family="'Avenir-Book'" font-size="30">cancel</text>
<rect x="439.896" y="922.004" fill="#FDFDFE" stroke="#3A6297" stroke-miterlimit="10" width="215.498" height="62"/>
<text transform="matrix(1 0 0 1 520.3945 966.0039)" fill="#3A6297" font-family="'Avenir-Book'" font-size="30">OK</text>
<g>
	<rect x="503.646" y="340.204" fill="#FDFDFE" stroke="#3A6297" stroke-miterlimit="10" width="144.166" height="66"/>
	<text transform="matrix(1 0 0 1 512.0635 389.2041)" font-family="'MyriadPro-Regular'" font-size="48">00 : 00</text>
</g>
<line fill="none" stroke="#3A6297" stroke-miterlimit="10" x1="504.334" y1="6.66" x2="504.334" y2="93.083"/>
<text transform="matrix(1 0 0 1 230.606 249)" fill="#3A6297" font-family="'MyriadPro-Regular'" font-size="140">22 May</text>
<text transform="matrix(0.9999 -0.0175 0.0175 0.9999 428.8193 318.4868)" fill="#3A6297" font-family="'MyriadPro-Regular'" font-size="80">2016</text>
<g>
	<rect x="503.646" y="422" fill="#FDFDFE" stroke="#3A6297" stroke-miterlimit="10" width="144.166" height="66"/>
	<text transform="matrix(1 0 0 1 512.0635 471)" font-family="'MyriadPro-Regular'" font-size="48">00 : 00</text>
</g>
<text transform="matrix(1 0 0 1 521 95)" fill="#E06C6C" font-family="'MyriadPro-Regular'" font-size="30">seizure free</text>
</svg>
