<?xml version="1.0" encoding="utf-8"?>
<!-- Generator: Adobe Illustrator 16.0.0, SVG Export Plug-In . SVG Version: 6.00 Build 0)  -->
<!DOCTYPE svg PUBLIC "-//W3C//DTD SVG 1.1//EN" "http://www.w3.org/Graphics/SVG/1.1/DTD/svg11.dtd">
<svg version="1.1" id="Layer_1" xmlns="http://www.w3.org/2000/svg" xmlns:xlink="http://www.w3.org/1999/xlink" x="0px" y="0px"
	 width="750px" height="1200px" viewBox="0 0 750 1200" enable-background="new 0 0 750 1200" xml:space="preserve">
<g>
	<rect y="1076.565" fill="#3A6297" stroke="#000000" stroke-miterlimit="10" width="750" height="125"/>
	<g>
		
			<line fill="#FFFFFF" stroke="#FFFFFF" stroke-width="3" stroke-miterlimit="10" x1="375.375" y1="1111.565" x2="375.375" y2="1166.565"/>
		
			<line fill="#FFFFFF" stroke="#FFFFFF" stroke-width="3" stroke-miterlimit="10" x1="347.875" y1="1139.065" x2="402.125" y2="1139.065"/>
	</g>
	<g>
		
			<line fill="#FFFFFF" stroke="#FFFFFF" stroke-width="3" stroke-miterlimit="10" x1="591.667" y1="1109.065" x2="591.667" y2="1169.063"/>
		
			<line fill="#FFFFFF" stroke="#FFFFFF" stroke-width="3" stroke-miterlimit="10" x1="590.667" y1="1168.063" x2="676.667" y2="1168.063"/>
		
			<line fill="#FFFFFF" stroke="#FFFFFF" stroke-width="3" stroke-miterlimit="10" x1="591.667" y1="1169.063" x2="611.667" y2="1125.065"/>
		
			<line fill="#FFFFFF" stroke="#FFFFFF" stroke-width="3" stroke-miterlimit="10" x1="610.667" y1="1125.065" x2="620" y2="1141.563"/>
		<line fill="#FFFFFF" stroke="#FFFFFF" stroke-width="3" stroke-miterlimit="10" x1="619" y1="1141.563" x2="641" y2="1111.065"/>
		<line fill="#FFFFFF" stroke="#FFFFFF" stroke-width="3" stroke-miterlimit="10" x1="640" y1="1111.065" x2="644" y2="1136.397"/>
		
			<line fill="#FFFFFF" stroke="#FFFFFF" stroke-width="3" stroke-miterlimit="10" x1="643" y1="1136.397" x2="660.333" y2="1141.563"/>
		
			<line fill="#FFFFFF" stroke="#FFFFFF" stroke-width="3" stroke-miterlimit="10" x1="659.333" y1="1141.563" x2="676.667" y2="1118.397"/>
	</g>
	<g>
		
			<rect x="124.354" y="1146.565" fill="none" stroke="#FFFFFF" stroke-width="3" stroke-miterlimit="10" width="34.498" height="29.916"/>
		
			<rect x="124.354" y="1106.565" fill="none" stroke="#FFFFFF" stroke-width="3" stroke-miterlimit="10" width="34.498" height="29.916"/>
		
			<rect x="74.357" y="1146.565" fill="none" stroke="#FFFFFF" stroke-width="3" stroke-miterlimit="10" width="34.498" height="29.916"/>
		
			<rect x="74.357" y="1103.718" transform="matrix(0.925 0.38 -0.38 0.925 431.9109 49.0873)" fill="#FDFDFE" stroke="#FFFFFF" stroke-width="3" stroke-miterlimit="10" width="34.498" height="29.915"/>
	</g>
</g>
<g>
	<g opacity="0.1">
		<line fill="#040403" stroke="#000000" stroke-miterlimit="10" x1="30.667" y1="43.082" x2="72.667" y2="43.082"/>
		<line fill="#040403" stroke="#000000" stroke-miterlimit="10" x1="30.667" y1="71.413" x2="72.667" y2="71.413"/>
		<line fill="#040403" stroke="#000000" stroke-miterlimit="10" x1="30.667" y1="57.249" x2="72.667" y2="57.249"/>
	</g>
	
		<text transform="matrix(1 0 0 1 70.8022 347.2461)" opacity="0.1" fill="#3A6297" stroke="#000000" stroke-miterlimit="10" font-family="'Avenir-Book'" font-size="200" letter-spacing="6">0 days</text>
	
		<text transform="matrix(1 0 0 1 75.8022 415.2461)" opacity="0.1" fill="#3A6297" stroke="#000000" stroke-miterlimit="10" font-family="'Avenir-Book'" font-size="72" letter-spacing="2">seizure free</text>
	<g id="Divider_9_" opacity="0.1">
		<g>
			<rect x="60" y="438.246" fill="#1D1D26" width="632" height="2"/>
		</g>
	</g>
	<g id="Divider_2_" opacity="0.1">
		<g>
			<rect x="60.375" y="579.247" fill="#1D1D26" width="632" height="2"/>
		</g>
	</g>
	
		<text transform="matrix(1 0 0 1 75.8022 519.2461)" opacity="0.1" fill="#3A6297" stroke="#000000" stroke-miterlimit="10" font-family="'MyriadPro-Regular'" font-size="30">no data so far, please log some</text>
</g>
<text transform="matrix(1 0 0 1 305.9243 973.4902)" fill="#3A6297" font-family="'MyriadPro-Regular'" font-size="30">stress trigger</text>
<text transform="matrix(1 0 0 1 305.9248 764.9688)" fill="#3A6297" font-family="'MyriadPro-Regular'" font-size="30">missed meds</text>
<text transform="matrix(1 0 0 1 305.9248 870.7305)" fill="#3A6297" font-family="'MyriadPro-Regular'" font-size="30">sleep conditions</text>
<text transform="matrix(1 0 0 1 305.9238 660.209)" fill="#3A6297" font-family="'MyriadPro-Regular'" font-size="30">seizure</text>
<g>
	<circle fill="#FDFDFE" stroke="#3A6297" stroke-miterlimit="10" cx="236.616" cy="650.952" r="42.385"/>
	<polygon fill="#E5E277" stroke="#3A6297" stroke-miterlimit="10" points="220.61,677.452 234.418,653.526 225.955,653.452 
		242.955,624.452 252.621,624.452 239.621,647.095 252.621,647.095 	"/>
</g>
<g>
	<circle fill="#FDFDFE" stroke="#3A6297" stroke-miterlimit="10" cx="236.75" cy="966.313" r="42.385"/>
	<g id="Dot_2">
		<g>
			
				<ellipse transform="matrix(0.0028 -1 1 0.0028 -694.9075 1203.2866)" fill="#E06E6E" cx="255.866" cy="950.065" rx="5" ry="5.167"/>
		</g>
	</g>
	<g id="Dot_1">
		<g>
			
				<ellipse transform="matrix(0.0028 -1 1 0.0028 -733.3013 1164.7858)" fill="#E06E6E" cx="217.365" cy="950.065" rx="5" ry="5.166"/>
		</g>
	</g>
	<path fill="none" stroke="#E06E6E" stroke-miterlimit="10" d="M247.532,949.065c0-4.422,4.622-8,10.333-8"/>
	<path fill="none" stroke="#E06E6E" stroke-miterlimit="10" d="M225.911,949.063c0-4.422-4.622-8-10.333-8"/>
	<polygon fill="#E06E6E" stroke="#E06E6E" stroke-miterlimit="10" points="236.616,960.563 241.5,962.731 239.833,967.063 
		236.616,972.063 233.667,967.231 232,962.897 	"/>
	<path fill="none" stroke="#E06E6E" stroke-miterlimit="10" d="M218.844,987.946c0.547-5.408,16.564-8.209,35.812-6.264"/>
</g>
<g>
	<circle fill="#FDFDFE" stroke="#3A6297" stroke-miterlimit="10" cx="236.616" cy="861.517" r="42.385"/>
	<text transform="matrix(1 0 0 1 208.8662 867.1836)" fill="#4D6BAD" font-family="'MyriadPro-Bold'" font-size="48">Z</text>
	<text transform="matrix(1 0 0 1 238.3335 880.4902)" fill="#4D6BAD" font-family="'MyriadPro-Bold'" font-size="36">z</text>
	<text transform="matrix(1 0 0 1 256.6987 886.8242)" fill="#4D6BAD" font-family="'MyriadPro-Bold'" font-size="18">z</text>
</g>
<g>
	<circle fill="#FDFDFE" stroke="#3A6297" stroke-miterlimit="10" cx="236.616" cy="756.233" r="42.385"/>
	
		<line fill="#EF6060" stroke="#53BD8D" stroke-width="16" stroke-miterlimit="10" x1="236.616" y1="725.563" x2="236.616" y2="787.563"/>
	
		<line fill="#EF6060" stroke="#53BD8D" stroke-width="16" stroke-miterlimit="10" x1="207" y1="756.233" x2="266.333" y2="756.233"/>
</g>
</svg>
