<?xml version="1.0" encoding="utf-8"?>
<!-- Generator: Adobe Illustrator 16.0.0, SVG Export Plug-In . SVG Version: 6.00 Build 0)  -->
<!DOCTYPE svg PUBLIC "-//W3C//DTD SVG 1.1//EN" "http://www.w3.org/Graphics/SVG/1.1/DTD/svg11.dtd">
<svg version="1.1" id="Layer_1" xmlns="http://www.w3.org/2000/svg" xmlns:xlink="http://www.w3.org/1999/xlink" x="0px" y="0px"
	 width="595.28px" height="841.89px" viewBox="0 0 595.28 841.89" enable-background="new 0 0 595.28 841.89" xml:space="preserve">
<g>
	
		<radialGradient id="SVGID_1_" cx="-266.8472" cy="586.0498" r="224.0101" gradientTransform="matrix(0.2062 0.2458 -1.0127 0.5219 1029.2505 278.4102)" gradientUnits="userSpaceOnUse">
		<stop  offset="0.0169" style="stop-color:#90C740"/>
		<stop  offset="0.5618" style="stop-color:#54AC47"/>
	</radialGradient>
	<path fill="url(#SVGID_1_)" d="M543.917,487.552c5.909-1.657,12.479,0.166,17.72-3.25c6.488-4.226,6.918-12.113,9.394-17.719
		c1.74-3.938,4.539-7.757,7.112-11.456c2.732-3.925,7.033-7.333,9.03-11.499c1.679-3.502,2.201-7.684,1.697-11.268
		c-1.156-8.185-6.851-13.526-17.546-14.643c3.543-4.173,5.437-9.146-0.884-11.755c-2.855-1.176-6.071-1.564-8.823-2.949
		c-2.74-1.376-4.717-2.984-8.307-3.062c-6.461-0.144-9.799,1.976-15.844-0.413c-6.604-2.61-9.57,0.181-16.384,0.862
		c-5.316,0.534-9.12-1.393-14.688,0.556c-4.826,1.691-8.22,4.338-13.56,5.023c-6.139,0.787-10.539,2.188-16.188,4.324
		c-4.221,1.598-8.937,2.175-13.002,4.041c-5.129,2.346-7.597,6.457-12.28,9.076c-4.986,2.789-8.565,3.803-11.542,8.248
		c-3.132-0.379-5.76-0.061-8.806,0.723c-3.778,0.975-4.229,1.662-6.103,4.443c-2.756,4.104-5.376,8.615-10.425,11.542
		c-4.512,2.608-10.345,3.742-15.302,5.715c-6.146,2.446-12.771,4.428-18.612,7.357c-7.104,3.562-12.913,9.259-15.786,15.254
		c-3.832,8.005-2.013,17.88-7.965,25.364c-3.886,4.888-9.597,9.702-15.373,13.388c-5.662,3.619-7.641,9.163-13.667,12.286
		c-6.291,3.262-2.27,4.035-0.71,8.217c2.183,5.843-3.444,6.792,7.007,8.124c6.146,0.779,11.744,5.503,18.713-3.775
		c1.811-2.411,8.752-0.412,12.406-0.818c3.848-0.432,7.672,0.4,11.525,0.204c3.863-0.192,7.537-1.35,11.373-1.698
		c3.662-0.333,7.033,0.238,10.572,0.593c7.47,0.752,11.188-2.009,17.831-4.319c3.814-1.323,7.934-2.021,11.353-4.014
		c2.901-1.695,4.704-4.193,7.53-5.922c6.399-3.917,13.634,0.254,19.933-2.641c2.941-1.349,4.129-4.034,7.286-5.301
		c3.47-1.39,7.496-1.104,11.159-1.712c6.91-1.146,10.28-6.635,17.165-7.051c3.844-0.231,8.191,1.273,11.818-0.596
		c3.072-1.578,3.325-4.657,5.253-6.807c5.662-6.322,13.346,0.279,20.456-0.89C535.505,498.174,536.42,489.657,543.917,487.552z"/>
	
		<radialGradient id="SVGID_2_" cx="-271.416" cy="585.8662" r="224.0121" gradientTransform="matrix(0.2062 0.2458 -1.0127 0.5219 1029.2505 278.4102)" gradientUnits="userSpaceOnUse">
		<stop  offset="0.0169" style="stop-color:#90C740"/>
		<stop  offset="0.5618" style="stop-color:#54AC47"/>
		<stop  offset="0.648" style="stop-color:#59AE48"/>
		<stop  offset="0.7379" style="stop-color:#67B34C"/>
		<stop  offset="0.8294" style="stop-color:#7CBB55"/>
		<stop  offset="0.9215" style="stop-color:#97C966"/>
		<stop  offset="0.9438" style="stop-color:#9FCE6C"/>
	</radialGradient>
	<path fill="url(#SVGID_2_)" d="M543.159,486.334c5.912-1.657,12.482,0.164,17.722-3.249c6.489-4.229,6.922-12.115,9.397-17.721
		c1.737-3.937,4.537-7.755,7.111-11.455c2.735-3.925,7.032-7.333,9.028-11.497c1.679-3.504,2.201-7.687,1.696-11.268
		c-1.152-8.185-6.848-13.53-17.541-14.646c3.537-4.173,5.434-9.146-0.889-11.752c-2.855-1.177-6.07-1.563-8.824-2.952
		c-2.737-1.375-4.715-2.982-8.3-3.063c-6.466-0.142-9.804,1.977-15.847-0.412c-6.605-2.609-9.568,0.181-16.383,0.863
		c-5.317,0.534-9.121-1.394-14.689,0.557c-4.83,1.691-8.223,4.336-13.562,5.022c-6.137,0.788-10.538,2.187-16.186,4.324
		c-4.225,1.6-8.934,2.176-13.003,4.04c-5.124,2.349-7.597,6.458-12.28,9.079c-4.986,2.788-8.564,3.803-11.542,8.246
		c-3.131-0.375-5.756-0.061-8.805,0.723c-3.782,0.976-4.229,1.661-6.099,4.443c-2.759,4.105-5.379,8.617-10.432,11.542
		c-4.505,2.609-10.339,3.741-15.299,5.714c-6.149,2.448-12.769,4.43-18.611,7.357c-7.104,3.564-12.915,9.263-15.787,15.256
		c-3.832,8.005-2.012,17.879-7.963,25.364c-3.889,4.888-9.598,9.701-15.373,13.389c-5.663,3.616-7.642,9.159-13.671,12.29
		c-6.29,3.259-2.269,4.027-0.705,8.213c2.18,5.844-3.447,6.791,7.003,8.121c6.146,0.781,11.745,5.506,18.716-3.775
		c1.809-2.409,8.751-0.408,12.406-0.817c3.847-0.431,7.671,0.403,11.525,0.206c3.857-0.192,7.536-1.351,11.369-1.698
		c3.664-0.334,7.034,0.235,10.574,0.593c7.471,0.754,11.188-2.01,17.831-4.319c3.814-1.327,7.935-2.019,11.353-4.015
		c2.897-1.693,4.704-4.195,7.529-5.922c6.4-3.916,13.632,0.251,19.935-2.642c2.938-1.349,4.128-4.035,7.287-5.299
		c3.464-1.389,7.494-1.106,11.157-1.713c6.909-1.146,10.28-6.632,17.169-7.05c3.836-0.234,8.188,1.271,11.814-0.593
		c3.075-1.583,3.327-4.658,5.251-6.811c5.663-6.324,13.349,0.276,20.459-0.892C534.755,496.956,535.663,488.44,543.159,486.334z"/>
	<g>
		<g>
			<path fill="#80C343" d="M566.493,449.604c0.021,0.018-22.937,0.636-45.532,5.923c-11.261,2.25-22.053,6.495-31.152,7.578
				c-9.069,1.191-15.163-0.098-15.661-0.042c-2.045-0.343-3.563-0.926-3.397-1.297c0.168-0.371,1.898-0.405,3.869-0.074
				c0.489-0.054,6.319,1.228,15.031,0.147c8.72-0.945,19.593-5.084,31.074-7.266C543.47,449.511,566.597,449.232,566.493,449.604z"
				/>
			<path fill="#A7D384" d="M566.385,449.653c0.043-0.12-23.066,0.502-45.766,5.826c-11.328,2.286-22.163,6.588-31.294,7.58
				c-9.075,1.114-15.165-0.179-15.633-0.167c-1.981-0.334-2.748-0.924-2.688-1.051c0.053-0.133,0.9,0.248,2.859,0.577
				c0.461-0.011,6.462,1.277,15.415,0.202c8.991-0.943,19.853-5.208,31.255-7.469C543.287,449.902,566.456,449.396,566.385,449.653z
				"/>
		</g>
	</g>
	<g>
		<g>
			<path fill="#80C343" d="M537.194,484.141c-0.187,0.24-3.378-3.596-11.514-5.213c-8.023-1.798-19.546-0.508-30.996,0.207
				c-11.48,0.481-23.062,0.506-31.701-0.656c-8.645-1.123-14.088-3.122-14.523-3.287c-1.856-0.658-3.143-1.469-2.873-1.808
				c0.27-0.337,1.938-0.096,3.728,0.541c0.427,0.161,5.659,2.13,14.082,3.299c8.399,1.208,19.907,1.288,31.311,0.933
				c11.331-0.576,23.065-1.748,31.217,0.253C534.195,480.241,537.212,484.272,537.194,484.141z"/>
			<path fill="#A7D384" d="M537.076,484.12c-0.112,0.201-3.3-3.687-11.515-5.305c-8.107-1.805-19.709-0.469-31.195,0.22
				c-11.524,0.467-23.15,0.479-31.801-0.71c-8.67-1.137-14.054-3.236-14.491-3.371c-1.803-0.639-2.362-1.341-2.265-1.457
				c0.09-0.116,0.786,0.389,2.567,1.021c0.43,0.132,5.741,2.224,14.334,3.373c8.567,1.206,20.169,1.23,31.664,0.81
				c11.445-0.646,23.12-1.94,31.27-0.065C533.908,480.33,537.037,484.284,537.076,484.12z"/>
		</g>
	</g>
	<g>
		<g>
			<path fill="#80C343" d="M547.713,401.573c0.115,0.121-5.434,2.874-12.334,8.292c-7.041,5.29-15.117,13.34-25.175,20.17
				c-10.19,6.78-22.355,11.312-29.79,16.525c-7.741,5.029-10.248,10.024-10.46,10.37c-0.903,1.602-1.826,2.901-2.414,2.817
				c-0.508-0.067-0.428-1.602,0.545-3.34c0.202-0.362,3.058-5.758,11.153-10.895c7.777-5.325,20.021-9.759,30.064-16.278
				c10.001-6.608,18.283-14.583,25.535-19.782C541.958,404.121,547.694,401.513,547.713,401.573z"/>
			<path fill="#A7D384" d="M547.652,401.667c0.073,0.06-5.539,2.801-12.495,8.242c-7.094,5.312-15.224,13.398-25.336,20.222
				c-10.267,6.734-22.472,11.309-29.897,16.606c-7.748,5.117-10.06,10.229-10.325,10.54c-0.768,1.591-1.715,2.278-1.916,2.251
				c-0.176-0.029,0.47-0.786,1.266-2.421c0.259-0.317,2.688-5.569,10.563-10.727c7.55-5.342,19.783-9.883,29.994-16.527
				c10.092-6.748,18.297-14.807,25.461-20.087C542.002,404.356,547.68,401.665,547.652,401.667z"/>
		</g>
	</g>
	<g>
		<g>
			<path fill="#80C343" d="M498.346,411.289c0.26,0.169-18.082,10.31-31.799,24.005c-14.435,13.438-20.874,30.1-20.863,30.773
				c-0.53,1.459-1.342,2.596-1.811,2.536c-0.464-0.057-0.405-1.313,0.14-2.803c-0.019-0.685,6.761-17.627,21.583-31.044
				C479.701,421.065,498.345,411.173,498.346,411.289z"/>
			<path fill="#A7D384" d="M498.302,411.37c0.176,0.073-18.304,10.253-32.063,24.049c-14.478,13.545-20.836,30.326-20.788,30.979
				c-0.516,1.422-1.311,2.037-1.467,2.015c-0.163-0.02,0.364-0.675,0.887-2.104c-0.048-0.659,6.428-17.54,21.037-31.073
				C479.807,421.437,498.388,411.345,498.302,411.37z"/>
		</g>
	</g>
	<g>
		<g>
			<path fill="#80C343" d="M444.259,426.84c-0.14-0.099,2.111,3.421-0.719,8.622c-2.558,5.158-9.833,10.405-13.988,16.786
				c-4.079,6.519-4.273,13.734-5.157,19.103c-0.717,5.432-2.249,9.159-2.392,9.465c-0.541,1.269-1.396,2.195-1.753,2.094
				c-0.387-0.106-0.17-1.146,0.345-2.355c0.142-0.3,1.659-3.857,2.45-9.244c0.954-5.308,1.245-12.666,5.566-19.349
				c4.47-6.595,11.751-11.635,14.4-16.642C445.93,430.322,443.938,426.81,444.259,426.84z"/>
			<path fill="#A7D384" d="M444.324,426.888c-0.203-0.084,1.994,3.471-0.915,8.65c-2.621,5.148-9.953,10.388-14.084,16.854
				c-4.039,6.598-4.18,13.849-5.081,19.238c-0.717,5.452-2.337,9.172-2.449,9.473c-0.577,1.219-1.31,1.688-1.436,1.654
				c-0.135-0.036,0.38-0.549,0.948-1.751c0.113-0.298,1.728-3.954,2.467-9.392c0.925-5.366,1.105-12.667,5.223-19.319
				c4.244-6.544,11.575-11.709,14.229-16.807C446.166,430.38,444.057,426.829,444.324,426.888z"/>
		</g>
	</g>
	<g>
		<g>
			<path fill="#80C343" d="M407.379,463.455c-0.196-0.132-5.51,5.637-6.987,12.429c-2.013,6.646-1.766,13.437-1.684,13.713
				c0.044,0.597-0.078,1.101-0.272,1.121c-0.194,0.027-0.389-0.448-0.43-1.061c-0.086-0.285-0.253-7.148,1.898-13.83
				C401.516,468.998,407.059,463.208,407.379,463.455z"/>
			<path fill="#A7D384" d="M407.368,463.49c-0.247-0.171-5.587,5.651-7.064,12.48c-2.004,6.684-1.723,13.507-1.632,13.771
				c0.046,0.583-0.16,0.891-0.226,0.898c-0.067,0.01,0.026-0.288-0.017-0.873c-0.093-0.271-0.347-7.119,1.708-13.814
				C401.661,469.113,407.077,463.278,407.368,463.49z"/>
		</g>
	</g>
	<g>
		<g>
			<path fill="#80C343" d="M570.778,435.478c0.101,0.219-10.812,2.91-21.333,6.611c-10.927,3.454-18.662,10.55-18.567,11.01
				c-0.581,0.655-1.222,1.118-1.437,1.034c-0.211-0.086,0.102-0.709,0.707-1.393c0.138-0.165,1.891-2.19,5.29-4.506
				c3.394-2.32,8.451-4.76,13.769-6.579C559.868,438.041,570.796,435.525,570.778,435.478z"/>
			<path fill="#A7D384" d="M570.74,435.515c0.08,0.162-10.897,2.842-21.47,6.576c-5.283,1.875-10.236,4.364-13.519,6.672
				c-3.301,2.312-4.919,4.322-5.062,4.47c-0.563,0.641-1.082,0.848-1.154,0.819c-0.071-0.031,0.334-0.294,0.902-0.943
				c0.145-0.146,1.786-2.178,5.126-4.503c3.321-2.319,8.318-4.806,13.624-6.664C559.81,438.234,570.787,435.619,570.74,435.515z"/>
		</g>
	</g>
	<g>
		<g>
			<path fill="#80C343" d="M556.657,461.775c0.03-0.004-8.079,0.417-15.831-1.073c-7.815-1.397-14.357-4.982-14.637-5.094
				c-0.591-0.297-0.982-0.627-0.869-0.737c0.111-0.115,0.673,0.032,1.263,0.326c0.276,0.114,6.692,3.701,14.389,5.171
				C548.604,461.933,556.698,461.639,556.657,461.775z"/>
			<path fill="#A7D384" d="M556.623,461.793c0.03-0.049-8.111,0.356-15.887-1.148c-7.835-1.429-14.392-5.025-14.66-5.136
				c-0.572-0.285-0.727-0.555-0.688-0.591c0.038-0.041,0.247,0.162,0.823,0.451c0.274,0.106,6.784,3.707,14.576,5.16
				C548.521,462.06,556.656,461.696,556.623,461.793z"/>
		</g>
	</g>
	<g>
		<g>
			<path fill="#80C343" d="M554.481,406.458c0.001-0.007-6.263,4.646-13.491,8.52c-7.167,4.105-16.003,5.688-16.374,5.582
				c-0.775,0.102-1.417,0.066-1.426-0.074c-0.004-0.14,0.6-0.332,1.358-0.43c0.358,0.1,9.001-1.373,16.195-5.373
				C547.981,410.91,554.374,406.346,554.481,406.458z"/>
			<path fill="#A7D384" d="M554.467,406.49c-0.036-0.042-6.342,4.626-13.61,8.507c-7.197,4.107-16.072,5.672-16.427,5.555
				c-0.758,0.1-1.134-0.019-1.137-0.065c-0.002-0.052,0.364-0.012,1.113-0.11c0.354,0.116,9.154-1.408,16.366-5.481
				C548.044,411.05,554.392,406.411,554.467,406.49z"/>
		</g>
	</g>
	<g>
		<g>
			<path fill="#80C343" d="M525.555,403.446c0.057,0.083-2.037,0.635-4.469,2.278c-2.462,1.618-4.84,4.48-6.034,7.607
				c-2.567,6.282-1.487,12.807-1.495,13.047c0.069,0.568-0.023,1.056-0.207,1.084c-0.184,0.026-0.395-0.423-0.467-1.001
				c0.01-0.247-1.011-6.853,1.712-13.215c1.276-3.166,3.765-6.067,6.325-7.666C523.45,403.954,525.585,403.465,525.555,403.446z"/>
			<path fill="#A7D384" d="M525.527,403.474c0.044,0.06-2.062,0.602-4.512,2.261c-2.491,1.627-4.858,4.525-6.055,7.674
				c-2.549,6.33-1.428,12.879-1.43,13.109c0.069,0.557-0.113,0.855-0.178,0.865s0.016-0.276-0.055-0.834
				c0.002-0.237-1.1-6.812,1.508-13.173c1.218-3.158,3.628-6.069,6.15-7.692C523.44,404.033,525.563,403.513,525.527,403.474z"/>
		</g>
	</g>
	<g>
		<g>
			<path fill="#80C343" d="M577.961,426.228c-1.083-3.658-62.479,21.583-65.631,17.189c-1.559,0.013-2.782-0.204-2.73-0.485
				c0.053-0.282,1.307-0.521,2.802-0.532C514.806,446.893,576.731,422.052,577.961,426.228z"/>
			<path fill="#A7D384" d="M577.888,426.269c-1.115-3.828-62.846,21.663-65.919,17.086c-1.515,0.012-2.186-0.309-2.168-0.402
				c0.011-0.099,0.704,0.062,2.195,0.05C514.81,447.613,576.722,422.263,577.888,426.269z"/>
		</g>
	</g>
	<g>
		<g>
			<path fill="#80C343" d="M571.555,420.587c0.049,0.068-7.985,1.893-14.818,5.799c-6.864,3.766-13.236,8.191-13.598,8.314
				c-0.592,0.374-1.161,0.596-1.268,0.492c-0.106-0.105,0.286-0.491,0.879-0.865c0.357-0.119,6.764-4.498,13.735-8.223
				C563.448,422.239,571.58,420.522,571.555,420.587z"/>
			<path fill="#A7D384" d="M571.524,420.613c0.04,0.021-8.049,1.856-14.919,5.79c-6.885,3.801-13.277,8.243-13.631,8.361
				c-0.574,0.365-0.979,0.422-1.02,0.387c-0.036-0.037,0.307-0.15,0.883-0.518c0.352-0.117,6.761-4.543,13.681-8.326
				C563.434,422.386,571.555,420.587,571.524,420.613z"/>
		</g>
	</g>
	<g>
		<g>
			<path fill="#80C343" d="M564.677,411.492c0.016-0.019-8.397,2.12-15.721,6.13c-7.588,3.73-13.37,9.139-13.429,9.448
				c-0.458,0.497-0.956,0.846-1.114,0.776c-0.159-0.066,0.093-0.544,0.56-1.062c0.076-0.33,6.035-5.798,13.728-9.463
				C556.143,413.361,564.668,411.33,564.677,411.492z"/>
			<path fill="#A7D384" d="M564.647,411.519c0.002-0.071-8.466,2.086-15.827,6.123c-7.621,3.758-13.402,9.221-13.437,9.527
				c-0.445,0.485-0.843,0.641-0.902,0.617c-0.056-0.024,0.261-0.223,0.709-0.715c0.041-0.314,5.884-5.797,13.542-9.533
				C556.137,413.517,564.636,411.397,564.647,411.519z"/>
		</g>
	</g>
	<g>
		<g>
			<path fill="#80C343" d="M510.471,404.715c0.123,0.081-3.146,2.79-7.047,7.412c-3.981,4.563-8.472,11.117-14.945,16.798
				c-6.402,5.738-14.689,10.012-20.755,13.277c-6.147,3.227-10.213,5.582-10.54,5.809c-1.378,0.82-2.705,1.295-2.956,1.062
				c-0.247-0.234,0.688-1.104,2.099-1.939c0.327-0.229,4.485-2.6,10.673-5.777c6.11-3.223,14.326-7.365,20.707-12.936
				c6.45-5.5,11.094-12.002,15.241-16.518C507.019,407.323,510.452,404.691,510.471,404.715z"/>
			<path fill="#A7D384" d="M510.454,404.789c0.072,0.043-3.242,2.754-7.18,7.397c-4.02,4.584-8.553,11.16-15.066,16.841
				c-6.473,5.711-14.766,10.001-20.862,13.276c-6.183,3.234-10.225,5.635-10.546,5.849c-1.343,0.796-2.281,0.91-2.368,0.829
				c-0.088-0.08,0.717-0.33,2.067-1.134c0.322-0.216,4.401-2.622,10.594-5.837c6.113-3.26,14.385-7.506,20.851-13.162
				c6.508-5.616,11.09-12.172,15.167-16.74C507.104,407.479,510.479,404.795,510.454,404.789z"/>
		</g>
	</g>
	<g>
		<g>
			<path fill="#80C343" d="M508.065,422.285c0.04,0.026-5.925,4.007-12.677,7.266c-6.701,3.322-14.041,5.856-14.356,5.976
				c-0.653,0.23-1.23,0.324-1.289,0.207c-0.06-0.117,0.414-0.396,1.064-0.627c0.318-0.119,7.644-2.593,14.367-5.83
				C501.951,426.104,507.999,422.218,508.065,422.285z"/>
			<path fill="#A7D384" d="M508.047,422.313c0.011-0.004-5.995,3.985-12.777,7.252c-6.732,3.328-14.1,5.873-14.406,5.984
				c-0.633,0.229-1.015,0.201-1.027,0.162c-0.025-0.041,0.318-0.081,0.947-0.305c0.311-0.115,7.672-2.643,14.412-5.938
				C501.99,426.231,508.022,422.278,508.047,422.313z"/>
		</g>
	</g>
	<g>
		<g>
			<path fill="#80C343" d="M473.772,409.269c-0.068-0.078-8.893,7.801-13.018,17.525c-2.696,4.685-2.59,9.705-3.271,13.512
				c-0.506,3.83-1.94,6.448-2.148,6.641c-0.513,0.89-1.394,1.417-1.573,1.303c-0.257-0.144,0.181-0.788,0.643-1.598
				c0.184-0.164,1.566-2.588,2.127-6.382c0.72-3.716,0.715-8.902,3.539-13.638C464.403,416.876,473.523,409.022,473.772,409.269z"/>
			<path fill="#A7D384" d="M473.757,409.319c-0.138-0.134-9.021,7.809-13.144,17.586c-2.71,4.718-2.527,9.787-3.239,13.596
				c-0.52,3.846-2.008,6.452-2.228,6.632c-0.559,0.839-1.229,1.057-1.28,1.021c-0.106-0.048,0.424-0.315,0.961-1.13
				c0.208-0.168,1.679-2.703,2.215-6.536c0.729-3.78,0.58-8.899,3.332-13.639C464.57,417.062,473.559,409.126,473.757,409.319z"/>
		</g>
	</g>
	<g>
		<g>
			<path fill="#80C343" d="M451.277,430.108c-0.081-0.049-0.713,7.199-5.066,13.912c-2.108,3.363-5.852,6.173-9.245,7.47
				c-3.41,1.322-6.029,1.465-6.218,1.522c-0.871,0.105-1.577,0.062-1.579-0.093c-0.003-0.157,0.675-0.367,1.509-0.468
				c0.188-0.057,2.724-0.178,6.006-1.424c3.271-1.221,6.923-3.886,9.061-7.17C450.15,437.304,450.999,430.04,451.277,430.108z"/>
			<path fill="#A7D384" d="M451.294,430.142c-0.15-0.055-0.798,7.234-5.2,13.954c-2.141,3.354-5.902,6.174-9.331,7.419
				c-3.424,1.302-6.042,1.436-6.226,1.488c-0.844,0.1-1.254-0.032-1.255-0.085c-0.004-0.056,0.4-0.01,1.23-0.109
				c0.188-0.053,2.779-0.179,6.155-1.453c3.386-1.222,7.112-3.988,9.267-7.316C450.354,437.372,451.076,430.079,451.294,430.142z"/>
		</g>
	</g>
	<g>
		<g>
			<path fill="#80C343" d="M429.474,434.573c-0.02-0.014-0.093,1.592-1.318,3.831c-1.125,2.253-3.692,4.97-4.679,8.048
				c-2.007,6.273,2.149,12.162,1.724,12.458c0.183,0.546,0.189,1.02,0.007,1.062c-0.177,0.041-0.47-0.363-0.644-0.903
				c0.447-0.269-3.702-6.198-1.541-12.679c1.094-3.17,3.716-5.836,4.896-8.049C429.202,436.147,429.361,434.565,429.474,434.573z"/>
			<path fill="#A7D384" d="M429.491,434.602c-0.047-0.012-0.148,1.599-1.4,3.839c-1.135,2.252-3.742,4.979-4.695,8.088
				c-1.947,6.333,2.245,12.23,1.808,12.521c0.176,0.529,0.056,0.833-0.006,0.847c-0.065,0.016-0.041-0.265-0.217-0.792
				c0.446-0.283-3.743-6.194-1.74-12.596c0.989-3.145,3.614-5.85,4.771-8.092C429.283,436.192,429.412,434.591,429.491,434.602z"/>
		</g>
	</g>
	<g>
		<g>
			<path fill="#80C343" d="M531.167,446.152c0.104,0.228-10.449,3.037-21.002,5.995c-10.745,2.937-19.028,9.354-19.256,9.656
				c-0.722,0.553-1.445,0.908-1.62,0.787c-0.174-0.119,0.284-0.673,1.025-1.238c0.203-0.296,8.766-6.794,19.663-9.642
				C520.641,448.849,531.175,446.215,531.167,446.152z"/>
			<path fill="#A7D384" d="M531.13,446.187c0.075,0.177-10.53,2.969-21.132,5.953c-10.798,2.979-19.088,9.477-19.296,9.767
				c-0.708,0.54-1.243,0.663-1.306,0.621c-0.056-0.04,0.386-0.231,1.095-0.778c0.203-0.287,8.591-6.814,19.44-9.76
				C520.574,449.038,531.175,446.307,531.13,446.187z"/>
		</g>
	</g>
	<g>
		<g>
			<path fill="#80C343" d="M556.14,471.701c0.034-0.162-13.362-0.45-26.739-1.773c-6.657-0.722-13.323-1.882-17.846-3.792
				c-4.727-1.822-5.976-4.875-5.893-5.081c-0.353-0.965,0.076-1.804,0.306-1.79c0.364-0.006,0.439,0.729,0.752,1.538
				c-0.052,0.172,0.884,2.845,5.375,4.666c4.309,1.874,10.884,3.1,17.476,3.884C542.828,470.818,556.245,471.313,556.14,471.701z"/>
			<path fill="#A7D384" d="M556.074,471.724c0.057-0.235-13.415-0.541-26.841-1.885c-6.673-0.74-13.379-1.893-17.863-3.86
				c-4.702-1.869-5.841-4.968-5.705-5.168c-0.241-0.943,0.227-1.431,0.287-1.425c0.146-0.008-0.149,0.454,0.083,1.349
				c-0.123,0.189,0.91,3.148,5.523,5.014c4.413,1.954,11.085,3.126,17.733,3.893C542.677,471.031,556.154,471.408,556.074,471.724z"
				/>
		</g>
	</g>
	<g>
		<g>
			<path fill="#80C343" d="M534.174,488.688c0.08,0.188-12.174,1.436-23.867-0.75c-11.922-1.656-21.896-7.018-22.071-7.44
				c-0.814-0.537-1.318-1.09-1.123-1.24c0.192-0.148,0.985,0.147,1.773,0.662c0.157,0.4,9.834,5.729,21.621,7.514
				C522.042,489.73,534.214,488.679,534.174,488.688z"/>
			<path fill="#A7D384" d="M534.124,488.714c0.066,0.128-12.23,1.353-23.959-0.864c-11.956-1.685-21.937-7.085-22.088-7.517
				c-0.784-0.519-0.944-0.942-0.873-0.994c0.064-0.053,0.324,0.283,1.103,0.795c0.145,0.426,10.019,5.816,21.933,7.542
				C521.908,489.933,534.178,488.771,534.124,488.714z"/>
		</g>
	</g>
	<g>
		<g>
			<path fill="#80C343" d="M547.148,478.029c-0.11,0.311-11.792-2.431-24.014-3.839c-6.116-0.683-12.495-0.549-17.139,0.506
				c-4.657,1.042-7.36,2.705-7.547,2.84c-0.902,0.537-1.785,0.855-1.97,0.707c-0.18-0.146,0.447-0.73,1.406-1.303
				c0.198-0.139,3.074-1.877,7.92-2.914c4.833-1.058,11.336-1.126,17.476-0.367C535.574,475.215,547.104,478.131,547.148,478.029z"
				/>
			<path fill="#A7D384" d="M547.086,478.047c-0.088,0.244-11.805-2.54-24.107-3.938c-6.151-0.683-12.58-0.504-17.244,0.583
				c-4.691,1.07-7.338,2.823-7.539,2.937c-0.883,0.525-1.515,0.605-1.579,0.555c-0.058-0.054,0.479-0.223,1.379-0.758
				c0.203-0.115,2.91-1.896,7.671-2.964c4.733-1.09,11.203-1.244,17.364-0.536C535.355,475.372,547.021,478.221,547.086,478.047z"/>
		</g>
	</g>
	<g>
		<g>
			<path fill="#80C343" d="M497.288,500.396c-0.016,0.097-5.832,0.041-14.549-0.226c-8.705-0.268-20.376-0.589-32.11,0.537
				c-11.931,1.122-23.752-0.071-32.568-0.955c-8.839-0.938-14.943-1.309-15.476-1.31c-2.097-0.116-3.751-0.528-3.689-0.923
				c0.064-0.389,1.841-0.613,3.976-0.497c0.534,0.003,6.738,0.421,15.556,1.43c8.805,0.955,20.415,2.232,32.147,1.257
				c11.878-1.009,23.584-0.528,32.261-0.094C491.521,500.056,497.298,500.297,497.288,500.396z"/>
			<path fill="#A7D384" d="M497.177,500.444c-0.006,0.031-5.844-0.065-14.598-0.362c-8.74-0.296-20.48-0.611-32.284,0.536
				c-11.971,1.077-23.813-0.129-32.666-1.02c-8.871-0.948-15.016-1.262-15.528-1.273c-2.037-0.113-2.952-0.623-2.926-0.76
				c0.018-0.135,0.972,0.152,3.026,0.268c0.514,0.012,6.689,0.345,15.556,1.318c8.845,0.913,20.625,2.144,32.52,1.118
				c11.849-1.102,23.605-0.733,32.337-0.38C491.357,500.245,497.18,500.403,497.177,500.444z"/>
		</g>
	</g>
	<g>
		<g>
			<path fill="#80C343" d="M469.396,511.852c0.094,0.176-10.514,0.87-19.798-2.37c-9.355-2.887-17.139-7.859-17.496-8.023
				c-0.705-0.427-1.153-0.884-1.001-1.02c0.15-0.137,0.841,0.098,1.537,0.524c0.362,0.161,8.022,5.154,17.22,8.113
				C458.967,512.388,469.464,511.854,469.396,511.852z"/>
			<path fill="#A7D384" d="M469.354,511.877c0.086,0.117-10.554,0.793-19.85-2.484c-9.381-2.915-17.186-7.905-17.533-8.067
				c-0.687-0.415-0.843-0.773-0.79-0.818c0.053-0.048,0.291,0.232,0.976,0.646c0.345,0.161,8.115,5.154,17.434,8.101
				C458.83,512.549,469.429,511.937,469.354,511.877z"/>
		</g>
	</g>
	<g>
		<g>
			<path fill="#80C343" d="M499.158,492.666c0.084-0.077-16.995-3.024-34.866-1.327c-8.862,0.624-17.735,2.203-24.152,4.171
				c-6.423,1.963-10.318,4.148-10.559,4.388c-1.262,0.78-2.494,1.242-2.757,1.035c-0.262-0.204,0.612-1.04,1.95-1.865
				c0.265-0.262,4.376-2.521,10.973-4.475c6.591-1.963,15.586-3.477,24.529-4.009C482.297,489.069,499.4,492.309,499.158,492.666z"
				/>
			<path fill="#A7D384" d="M499.069,492.684c0.137-0.179-17.061-3.135-35.024-1.415c-8.92,0.637-17.835,2.268-24.271,4.267
				c-6.461,1.996-10.306,4.271-10.548,4.496c-1.227,0.759-2.12,0.885-2.211,0.813c-0.086-0.075,0.673-0.323,1.925-1.099
				c0.253-0.227,4.172-2.535,10.694-4.526c6.5-2,15.46-3.61,24.402-4.214C482.057,489.35,499.259,492.407,499.069,492.684z"/>
		</g>
	</g>
	<g>
		<g>
			<path fill="#80C343" d="M484.683,506.956c0.021,0.051-6.951,0.083-13.376-1.689c-6.43-1.652-12.546-3.918-12.862-3.945
				c-0.558-0.183-0.958-0.421-0.889-0.525c0.064-0.107,0.576-0.046,1.138,0.138c0.319,0.03,6.417,2.34,12.762,4.051
				C477.795,506.817,484.709,506.89,484.683,506.956z"/>
			<path fill="#A7D384" d="M484.651,506.969c0.023,0.014-6.973,0.028-13.421-1.756c-6.444-1.675-12.595-3.933-12.902-3.961
				c-0.549-0.179-0.729-0.389-0.705-0.426c0.025-0.034,0.242,0.113,0.79,0.294c0.31,0.026,6.455,2.3,12.872,3.994
				C477.703,506.918,484.676,506.941,484.651,506.969z"/>
		</g>
	</g>
	<g>
		<g>
			<path fill="#80C343" d="M431.669,520.862c0.02,0.083-16.232,1.878-32.632,1.662c-16.418-0.058-32.591-2.271-33.3-2.35
				c-1.45-0.183-2.551-0.55-2.461-0.817c0.094-0.268,1.335-0.338,2.775-0.157c0.712,0.076,16.758,2.388,33.075,2.625
				C415.423,522.219,431.668,520.675,431.669,520.862z"/>
			<path fill="#A7D384" d="M431.595,520.902c0.016-0.005-16.312,1.769-32.775,1.539c-16.481-0.082-32.716-2.299-33.408-2.371
				c-1.409-0.18-1.984-0.575-1.952-0.668c0.035-0.094,0.657,0.152,2.063,0.329c0.691,0.073,16.884,2.324,33.329,2.469
				C415.276,522.487,431.606,520.801,431.595,520.902z"/>
		</g>
	</g>
	<g>
		<g>
			<path fill="#80C343" d="M421.919,525.979c0.053,0.087-6.16,0.967-12.097-0.194c-5.93-0.97-11.494-2.815-11.749-2.864
				c-0.506-0.154-0.866-0.354-0.804-0.45c0.058-0.096,0.511-0.048,1.014,0.105c0.258,0.05,5.777,1.928,11.638,2.955
				C415.784,526.745,421.937,525.967,421.919,525.979z"/>
			<path fill="#A7D384" d="M421.899,525.993c0.04,0.058-6.191,0.92-12.151-0.251c-5.944-0.986-11.531-2.832-11.783-2.878
				c-0.49-0.15-0.659-0.334-0.634-0.366c0.017-0.032,0.218,0.097,0.705,0.247c0.255,0.043,5.828,1.899,11.748,2.91
				C415.718,526.843,421.924,526.017,421.899,525.993z"/>
		</g>
	</g>
	<g>
		<g>
			<path fill="#80C343" d="M447.896,516.808c0.098-0.14-13.736-2.99-28.446-2.071c-7.286,0.269-14.626,1.254-20.002,2.614
				c-5.392,1.34-8.73,2.972-8.949,3.153c-1.077,0.588-2.118,0.921-2.318,0.741c-0.2-0.179,0.57-0.834,1.724-1.465
				c0.239-0.194,3.761-1.88,9.288-3.205c5.514-1.344,12.941-2.271,20.278-2.464C434.288,513.346,448.147,516.444,447.896,516.808z"
				/>
			<path fill="#A7D384" d="M447.819,516.821c0.151-0.223-13.781-3.086-28.571-2.152c-7.325,0.276-14.705,1.307-20.106,2.689
				c-5.412,1.377-8.74,3.053-8.942,3.241c-1.051,0.573-1.788,0.641-1.857,0.58c-0.065-0.064,0.569-0.243,1.644-0.827
				c0.212-0.193,3.606-1.894,9.069-3.263c5.448-1.379,12.855-2.387,20.202-2.637C434.08,513.571,448.025,516.52,447.819,516.821z"/>
		</g>
	</g>
	<g>
		<g>
			<path fill="#80C343" d="M399.894,462.802c-0.04-0.053-9.246,7.336-14.395,16.67c-5.162,9.215-12.037,18.119-12.752,18.342
				c-0.726,0.749-1.489,1.252-1.704,1.127c-0.217-0.125,0.182-0.819,0.892-1.554c0.689-0.208,7.547-8.904,12.919-18.123
				C390.195,469.926,399.688,462.574,399.894,462.802z"/>
			<path fill="#A7D384" d="M399.877,462.852c-0.104-0.114-9.37,7.336-14.534,16.722c-5.179,9.269-12.104,18.185-12.818,18.391
				c-0.704,0.728-1.296,0.933-1.371,0.888c-0.076-0.04,0.39-0.315,1.088-1.036c0.708-0.201,7.627-9.045,12.876-18.313
				C390.349,470.115,399.715,462.679,399.877,462.852z"/>
		</g>
	</g>
	<g>
		<g>
			<path fill="#80C343" d="M414.653,461.761c0.104-0.012-1.711,4.326-5.795,7.775c-3.948,3.437-7.513,7.09-7.529,7.326
				c-0.294,0.342-0.619,0.582-0.728,0.54c-0.108-0.041,0.045-0.359,0.345-0.707c0.015-0.241,3.682-3.933,7.671-7.308
				C412.727,466.002,414.628,461.742,414.653,461.761z"/>
			<path fill="#A7D384" d="M414.659,461.782c0.065-0.014-1.778,4.324-5.88,7.785c-3.979,3.442-7.531,7.139-7.547,7.366
				c-0.281,0.333-0.546,0.441-0.584,0.426c-0.038-0.014,0.166-0.149,0.454-0.482c0.015-0.23,3.603-3.939,7.592-7.361
				C412.805,466.078,414.681,461.765,414.659,461.782z"/>
		</g>
	</g>
	
		<radialGradient id="SVGID_3_" cx="718.96" cy="603.8291" r="258.6866" gradientTransform="matrix(0.3984 0.6436 -0.8824 0.3529 764.3132 -80.0063)" gradientUnits="userSpaceOnUse">
		<stop  offset="0.5618" style="stop-color:#54AC47"/>
		<stop  offset="0.615" style="stop-color:#59AE47"/>
		<stop  offset="0.6705" style="stop-color:#67B34A"/>
		<stop  offset="0.7271" style="stop-color:#7DBB51"/>
		<stop  offset="0.784" style="stop-color:#98C95C"/>
		<stop  offset="0.7978" style="stop-color:#A0CE60"/>
	</radialGradient>
	<path fill="url(#SVGID_3_)" d="M337.778,515.637c6.328-5.527,14.984-8.691,23.336-12.073c15.893-6.431,54.215-23.036,57.783-24.623
		c5.167-2.297,56.204-25.223,63.872-28.18c7.37-2.841,40.908-17.786,50.694-21.715c3.985-1.598,20.348-6.584,25.043-7.126
		c-7.148,0.858-36.684,16.394-40.306,18.183c-15.471,7.626-31.336,15.148-47.321,22.225c-18.393,8.145-62.452,31.081-97.588,53.026
		c-12.8,7.991-17.79,17.146-19.827,21.353c-2.658,5.493-1.533,9.645-10.22,11.256c-6.488,1.206-15.232-0.644-19.31-4.322
		c-5.238-4.72-3.741-10.545,0.52-16.04C324.455,527.6,328.721,523.555,337.778,515.637z"/>
</g>
<g>
	
		<radialGradient id="SVGID_4_" cx="1443.6611" cy="161.9683" r="149.2241" gradientTransform="matrix(0.0501 0.2504 -1.1275 0.1096 531.6182 163.5999)" gradientUnits="userSpaceOnUse">
		<stop  offset="0.0169" style="stop-color:#90C740"/>
		<stop  offset="0.5618" style="stop-color:#54AC47"/>
		<stop  offset="0.648" style="stop-color:#59AE48"/>
		<stop  offset="0.7379" style="stop-color:#67B34C"/>
		<stop  offset="0.8294" style="stop-color:#7CBB55"/>
		<stop  offset="0.9215" style="stop-color:#97C966"/>
		<stop  offset="0.9438" style="stop-color:#9FCE6C"/>
	</radialGradient>
	<path fill="url(#SVGID_4_)" d="M509.591,557.638c3.581,0.971,6.287,3.828,10.132,4.145c4.845,0.39,7.829-2.622,11.115-3.865
		c2.322-0.847,5.201-1.106,7.925-1.271c2.962-0.183,6.474,0.979,9.024,1.112c2.2,0.113,3.955-0.3,5.108-1.419
		c1.188-1.265,2.179-4.211,2.617-9.006c0.235-2.601,0.738-6.046,0.697-10.208c-0.056-4.627,1.019-21.662-9.236-25.531
		c-3.074-1.426-5.54-1.742-8.2-2.556c-3.02-0.956-5.615-0.264-9.791-0.953c-3.215-0.569-4.619-2.221-8.348-2.76
		c-3.164-0.444-5.842,0.032-8.899-0.541c-3.427-0.656-6.207-0.226-9.861,0.714c-2.705,0.742-5.299,0.307-8.025,0.637
		c-3.361,0.345-5.983,1.98-9.133,1.921c-3.255-0.129-5.272-0.027-8.126,1.737c-1.289-0.536-2.669-0.435-4.361-0.162
		c-2.089,0.36-2.517,0.656-4.339,1.602c-2.637,1.403-5.434,2.795-8.815,3.474c-3.025,0.579-6.166,0.464-9.122,1.045
		c-3.632,0.716-7.236,1.538-10.726,2.998c-4.227,1.754-8.346,5.08-11.381,8.588c-4.344,5.036-7.767,10.617-14.426,15.531
		c-4.097,2.971-7.363,6.378-9.975,9.15c-2.645,2.876-4.56,6.658-8.633,9.823c-5.198,3.917-3.479,3.584-2.904,6.382
		c0.675,3.803-1.101,5.683,2.818,4.166c2.553-0.948,3.849,0.941,9.974-5.858c1.58-1.688,4.472-1.041,6.336-1.481
		c1.904-0.45,3.465-0.068,5.227-0.323c1.743-0.199,3.609-0.999,5.348-1.277c1.662-0.25,2.963,0.038,4.386,0.248
		c3.032,0.426,5.372-1.049,8.91-2.1c2.041-0.599,4.057-0.788,6.134-1.681c1.765-0.761,3.275-2.004,5.045-2.718
		c4.013-1.63,6.104,1.22,9.837,0.391c1.753-0.408,3.103-1.656,4.943-1.939c2.031-0.306,3.831,0.355,5.732,0.558
		c3.616,0.369,6.907-1.873,10.321-0.919c1.918,0.538,3.533,2.051,5.877,1.836c1.992-0.198,3.1-1.646,4.733-2.302
		c4.829-1.91,6.487,2.957,10.361,4.161C501.812,560.132,505.118,556.451,509.591,557.638z"/>
	
		<radialGradient id="SVGID_5_" cx="1461.8076" cy="34.4565" r="290.6164" gradientTransform="matrix(0.0109 0.6145 -0.9305 0.0166 489.1846 -190.9829)" gradientUnits="userSpaceOnUse">
		<stop  offset="0.5618" style="stop-color:#54AC47"/>
		<stop  offset="0.615" style="stop-color:#59AE48"/>
		<stop  offset="0.6705" style="stop-color:#67B34C"/>
		<stop  offset="0.7271" style="stop-color:#7CBB55"/>
		<stop  offset="0.784" style="stop-color:#97C966"/>
		<stop  offset="0.7978" style="stop-color:#9FCE6C"/>
	</radialGradient>
	<path fill="url(#SVGID_5_)" d="M402.131,553.181c2.993-3.937,7.514-6.566,13.647-8.84c11.359-4.212,33.812-11.915,35.918-12.49
		c1.54-0.41,10.231-1.726,19.178-2.562c8.792-0.796,17.78,0.407,20.175,0.716c4.617,0.619,27.212-3.419,34.064-3.22
		c3.048,0.074,15.533-0.838,18.515-2.227c-2.253,1.221-9.409,3.131-16.612,3.245c-6.761,0.111-12.952,1.251-14.209,1.327
		c-10.576,0.611-21.168,2.636-31.32,1.535c-11.373-1.197-39.041,7.143-61.665,20.431c-8.105,4.894-11.775,11-13.795,13.767
		c-2.721,3.857-3.408,6.096-7.458,8.993c-2.929,2.057-5.637,3.248-7.007,1.823c-1.619-1.898-3.526-7.428,1.357-12.535
		C392.919,563.144,397.28,559.677,402.131,553.181z"/>
</g>
<g>
	
		<radialGradient id="SVGID_6_" cx="-322.6758" cy="187.0112" r="149.397" gradientTransform="matrix(-0.0877 -0.4023 1.1941 -0.2603 32.5293 466.9502)" gradientUnits="userSpaceOnUse">
		<stop  offset="0.0169" style="stop-color:#90C740"/>
		<stop  offset="0.5618" style="stop-color:#54AC47"/>
		<stop  offset="0.6486" style="stop-color:#59AE46"/>
		<stop  offset="0.7391" style="stop-color:#68B345"/>
		<stop  offset="0.8313" style="stop-color:#7EBB42"/>
		<stop  offset="0.924" style="stop-color:#9BC93D"/>
		<stop  offset="0.9438" style="stop-color:#A2CD3B"/>
	</radialGradient>
	<path fill="url(#SVGID_6_)" d="M171.438,530.365c-4.243-0.185-7.872-3.549-12.204-2.036c-5.361,1.874-7.959,8.558-11.18,12.714
		c-2.264,2.922-5.167,5.45-7.888,7.934c-2.891,2.643-6.623,4.405-9.114,7.455c-2.099,2.562-3.661,6.025-4.395,9.254
		c-1.681,7.377,0.358,13.536,6.819,17.423c-3.476,2.631-6.142,6.401-2.898,10.377c1.465,1.795,3.394,3.006,4.732,4.953
		c1.329,1.934,2.114,3.861,4.369,4.912c4.057,1.886,6.8,0.971,9.932,4.681c3.423,4.054,6.124,2.459,10.651,3.728
		c3.534,0.992,5.377,3.696,9.486,3.535c3.562-0.14,6.492-1.494,10.084-0.628c4.129,0.998,7.33,0.991,11.542,0.689
		c3.154-0.226,6.312,0.567,9.444,0.07c3.942-0.627,6.724-3.494,10.467-4.477c3.986-1.043,6.555-0.939,9.754-3.96
		c1.873,1.178,3.633,1.626,5.798,1.78c2.686,0.195,3.172-0.278,5.182-2.166c2.958-2.786,5.948-5.961,10.015-7.103
		c3.626-1.019,7.662-0.404,11.394-0.754c4.619-0.428,9.404-0.327,13.975-1.259c5.56-1.132,10.925-4.458,14.51-8.843
		c4.792-5.861,6.544-14.872,12.525-19.7c3.909-3.155,8.945-5.747,13.696-7.35c4.658-1.572,7.547-5.815,12.293-6.863
		c4.951-1.094,2.627-2.858,2.867-6.894c0.336-5.635,4.188-4.914-2.053-8.915c-3.668-2.354-5.83-7.954-12.986-1.856
		c-1.857,1.587-5.676-2.036-8.113-2.683c-2.569-0.682-4.752-2.44-7.254-3.326c-2.508-0.889-5.181-0.895-7.715-1.641
		c-2.426-0.713-4.395-2.123-6.537-3.398c-4.517-2.689-7.693-1.323-12.589-1.145c-2.81,0.101-5.629-0.424-8.387,0.361
		c-2.337,0.669-4.218,2.332-6.52,3.051c-5.218,1.628-8.579-3.94-13.428-3.168c-2.262,0.361-3.808,2.353-6.188,2.581
		c-2.607,0.25-5.078-1.093-7.582-1.569c-4.728-0.898-8.48,2.914-12.973,1.392c-2.503-0.851-4.822-3.333-7.671-2.716
		c-2.414,0.525-3.48,3.11-5.338,4.439c-5.454,3.907-8.39-3.887-13.245-4.819C179.901,523.5,176.816,530.594,171.438,530.365z"/>
	
		<radialGradient id="SVGID_7_" cx="583.915" cy="150.3813" r="172.5628" gradientTransform="matrix(-0.0949 -0.9954 0.9954 -0.0949 126.0479 1040.9355)" gradientUnits="userSpaceOnUse">
		<stop  offset="0.5618" style="stop-color:#54AC47"/>
		<stop  offset="0.615" style="stop-color:#59AE48"/>
		<stop  offset="0.6705" style="stop-color:#67B34C"/>
		<stop  offset="0.7271" style="stop-color:#7CBB55"/>
		<stop  offset="0.784" style="stop-color:#97C966"/>
		<stop  offset="0.7978" style="stop-color:#9FCE6C"/>
	</radialGradient>
	<path fill="url(#SVGID_7_)" d="M311.041,563.815c-5.645,3.041-12.07,3.405-18.367,4.042c-11.979,1.204-41.189,5.06-43.917,5.453
		c-3.954,0.567-43.097,6.399-48.834,6.855c-5.511,0.442-31.195,4.167-38.563,4.883c-3.002,0.292-14.853,0.126-17.992-0.693
		c4.788,1.211,28.108-4.122,30.931-4.67c12.067-2.352,24.347-4.509,36.574-6.246c14.069-1.999,48.787-9.748,77.544-19.077
		c10.478-3.397,16.341-9.93,18.868-13.002c3.307-4.008,3.818-7.896,9.805-6.912c4.471,0.729,9.475,4.712,10.984,8.998
		c1.932,5.499-0.736,10.118-5.057,13.691C323.018,557.138,319.115,559.463,311.041,563.815z"/>
</g>
<g>
	
		<radialGradient id="SVGID_8_" cx="-49.4404" cy="417.0068" r="224.0101" gradientTransform="matrix(-0.1763 0.3721 1.1044 0.5233 -234.4507 340.6997)" gradientUnits="userSpaceOnUse">
		<stop  offset="0.0169" style="stop-color:#90C740"/>
		<stop  offset="0.5618" style="stop-color:#54AC47"/>
	</radialGradient>
	<path fill="url(#SVGID_8_)" d="M64.153,528.216c-6.255-1.168-12.701,2.521-18.515-1.16c-7.197-4.553-8.725-15.194-12.021-22.36
		c-2.316-5.034-5.697-9.71-8.832-14.267c-3.327-4.833-8.182-8.676-10.792-13.97c-2.195-4.455-3.305-10.043-3.285-15.008
		c0.049-11.339,5.119-19.649,15.87-23.136c-4.189-5.021-6.805-11.433-0.721-16.142c2.749-2.125,5.975-3.244,8.59-5.633
		c2.601-2.374,4.396-4.924,8.044-5.691c6.568-1.385,10.263,0.883,16.096-3.476c6.373-4.763,9.782-1.514,16.822-1.842
		c5.493-0.252,9.105-3.572,15.052-1.945c5.153,1.411,8.977,4.385,14.518,4.334c6.367-0.059,11.045,1.036,17.098,2.902
		c4.525,1.396,9.412,1.312,13.813,3.102c5.554,2.247,8.638,7.381,13.773,10.081c5.468,2.873,9.257,3.594,12.904,9.089
		c3.141-1.089,5.864-1.142,9.078-0.636c3.986,0.629,4.54,1.482,6.833,4.918c3.376,5.073,6.669,10.723,12.221,13.773
		c4.959,2.717,11.062,3.186,16.389,4.954c6.603,2.196,13.63,3.672,19.989,6.579c7.735,3.537,14.445,10.213,18.199,17.836
		c5.012,10.178,4.518,23.936,11.618,33.017c4.636,5.93,11.122,11.424,17.52,15.375c6.271,3.877,9.052,11.051,15.629,14.188
		c6.863,3.276,2.871,5.067,1.856,11.04c-1.419,8.345,4.448,8.6-6.022,12.332c-6.158,2.191-11.214,9.643-19.598-1.689
		c-2.179-2.945-8.98,1.051-12.762,1.168c-3.983,0.124-7.766,1.957-11.722,2.399c-3.965,0.448-7.87-0.448-11.829-0.218
		c-3.78,0.222-7.138,1.616-10.697,2.75c-7.511,2.397-11.684-0.672-18.774-2.591c-4.072-1.1-8.367-1.288-12.128-3.37
		c-3.192-1.77-5.374-4.836-8.493-6.666c-7.065-4.146-13.867,2.854-20.687,0.076c-3.185-1.292-4.767-4.725-8.159-5.864
		c-3.729-1.251-7.795-0.125-11.613-0.274c-7.204-0.288-11.396-7.132-18.472-6.43c-3.95,0.391-8.176,3.236-12.132,1.366
		c-3.349-1.582-4.033-5.721-6.294-8.29c-6.646-7.555-13.568,2.833-20.979,2.553C74.192,541.108,72.086,529.698,64.153,528.216z"/>
	
		<radialGradient id="SVGID_9_" cx="-54.0049" cy="416.8242" r="224.0131" gradientTransform="matrix(-0.1763 0.3721 1.1044 0.5233 -234.4507 340.6997)" gradientUnits="userSpaceOnUse">
		<stop  offset="0.0169" style="stop-color:#90C740"/>
		<stop  offset="0.5618" style="stop-color:#54AC47"/>
		<stop  offset="0.648" style="stop-color:#59AE48"/>
		<stop  offset="0.7379" style="stop-color:#67B34C"/>
		<stop  offset="0.8294" style="stop-color:#7CBB55"/>
		<stop  offset="0.9215" style="stop-color:#97C966"/>
		<stop  offset="0.9438" style="stop-color:#9FCE6C"/>
	</radialGradient>
	<path fill="url(#SVGID_9_)" d="M64.757,526.42c-6.257-1.164-12.703,2.521-18.514-1.156c-7.201-4.557-8.729-15.196-12.027-22.364
		c-2.314-5.032-5.694-9.707-8.83-14.265c-3.329-4.833-8.181-8.676-10.791-13.97c-2.195-4.455-3.305-10.045-3.283-15.006
		c0.047-11.34,5.116-19.653,15.863-23.138c-4.182-5.022-6.801-11.436-0.717-16.141c2.751-2.125,5.975-3.242,8.59-5.636
		c2.601-2.372,4.396-4.922,8.04-5.691c6.572-1.382,10.266,0.884,16.099-3.475c6.374-4.761,9.78-1.513,16.822-1.84
		c5.494-0.252,9.106-3.572,15.052-1.945c5.157,1.411,8.98,4.383,14.521,4.333c6.364-0.058,11.043,1.035,17.096,2.901
		c4.528,1.398,9.408,1.314,13.813,3.102c5.549,2.25,8.638,7.383,13.772,10.083c5.468,2.874,9.256,3.594,12.904,9.089
		c3.141-1.086,5.861-1.143,9.077-0.637c3.99,0.631,4.54,1.48,6.83,4.919c3.38,5.073,6.672,10.725,12.228,13.771
		c4.953,2.719,11.056,3.185,16.385,4.954c6.606,2.196,13.628,3.674,19.988,6.579c7.735,3.54,14.445,10.218,18.2,17.838
		c5.013,10.178,4.517,23.938,11.618,33.017c4.638,5.931,11.122,11.424,17.518,15.375c6.272,3.876,9.054,11.048,15.633,14.194
		c6.862,3.272,2.868,5.06,1.853,11.036c-1.417,8.345,4.452,8.6-6.02,12.328c-6.159,2.193-11.214,9.646-19.6-1.689
		c-2.179-2.943-8.98,1.053-12.762,1.17c-3.982,0.122-7.766,1.957-11.722,2.399c-3.96,0.448-7.869-0.448-11.825-0.216
		c-3.782,0.22-7.14,1.612-10.699,2.749c-7.512,2.4-11.684-0.673-18.775-2.592c-4.072-1.102-8.367-1.285-12.127-3.371
		c-3.188-1.769-5.375-4.837-8.494-6.665c-7.065-4.146-13.863,2.85-20.687,0.076c-3.182-1.292-4.767-4.726-8.16-5.864
		c-3.726-1.25-7.794-0.125-11.612-0.275c-7.203-0.287-11.395-7.127-18.476-6.428c-3.942,0.388-8.172,3.236-12.127,1.369
		c-3.352-1.586-4.035-5.723-6.292-8.295c-6.647-7.556-13.571,2.832-20.982,2.551C74.79,539.314,72.69,527.904,64.757,526.42z"/>
	<g>
		<g>
			<path fill="#80C343" d="M35.901,480.776c-0.019,0.028,23.473-3.353,47.238-0.321c11.791,0.987,23.378,4.772,32.805,4.573
				c9.41-0.049,15.445-2.922,15.96-2.939c2.038-0.842,3.506-1.914,3.285-2.388c-0.223-0.473-1.993-0.201-3.956,0.611
				c-0.505,0.016-6.272,2.83-15.303,2.966c-9.021,0.318-20.677-3.31-32.682-4.163C59.361,476.415,35.744,480.291,35.901,480.776z"/>
			<path fill="#A7D384" d="M36.017,480.825c-0.059-0.155,23.586-3.562,47.464-0.497c11.863,1.022,23.504,4.88,32.949,4.55
				c9.405-0.155,15.436-3.033,15.914-3.103c1.975-0.818,2.676-1.763,2.597-1.926c-0.072-0.168-0.884,0.505-2.835,1.312
				c-0.472,0.069-6.412,2.925-15.687,3.109c-9.298,0.372-20.96-3.429-32.896-4.404C59.6,476.915,35.911,480.488,36.017,480.825z"/>
		</g>
	</g>
	<g>
		<g>
			<path fill="#80C343" d="M70.536,522.342c0.223,0.291,2.946-5.511,11.018-9.205c7.933-3.921,19.859-4.285,31.629-5.42
				c11.772-1.459,23.582-3.553,32.229-6.724c8.66-3.117,13.933-6.835,14.354-7.139c1.803-1.236,3.002-2.575,2.679-2.986
				c-0.321-0.409-1.99,0.226-3.725,1.422c-0.413,0.295-5.475,3.937-13.902,7.074c-8.395,3.186-20.117,5.411-31.792,7.027
				c-11.631,1.3-23.756,1.865-31.79,6.085C73.055,516.489,70.536,522.523,70.536,522.342z"/>
			<path fill="#A7D384" d="M70.652,522.291c0.142,0.254,2.856-5.617,11.008-9.329c8.016-3.943,20.029-4.264,31.833-5.438
				c11.814-1.485,23.667-3.608,32.324-6.813c8.682-3.142,13.882-6.986,14.31-7.251c1.749-1.199,2.224-2.257,2.107-2.397
				c-0.106-0.143-0.748,0.674-2.477,1.859c-0.418,0.26-5.547,4.078-14.147,7.224c-8.568,3.214-20.393,5.382-32.169,6.923
				c-11.759,1.229-23.84,1.616-31.89,5.663C73.359,516.557,70.715,522.509,70.652,522.291z"/>
		</g>
	</g>
	<g>
		<g>
			<path fill="#80C343" d="M48.421,412.025c-0.1,0.185,5.937,2.908,13.72,9.004c7.908,5.897,17.252,15.355,28.446,22.79
				c11.326,7.344,24.353,11.267,32.65,16.987c8.587,5.414,11.833,11.744,12.097,12.175c1.141,2.012,2.261,3.609,2.849,3.387
				c0.509-0.184,0.216-2.258-1.016-4.441c-0.255-0.455-3.911-7.265-12.874-12.759c-8.665-5.809-21.758-9.585-32.896-16.602
				c-11.108-7.145-20.651-16.462-28.764-22.196C54.641,414.43,48.434,411.94,48.421,412.025z"/>
			<path fill="#A7D384" d="M48.497,412.142c-0.066,0.094,6.034,2.79,13.875,8.907c7.965,5.918,17.37,15.414,28.62,22.832
				c11.395,7.268,24.47,11.241,32.771,17.079c8.606,5.53,11.666,12.055,11.98,12.429c1.003,2.021,2.063,2.783,2.264,2.708
				c0.176-0.073-0.588-0.984-1.622-3.06c-0.309-0.383-3.509-7.077-12.251-12.64c-8.433-5.871-21.532-9.797-32.858-16.952
				c-11.219-7.315-20.696-16.763-28.729-22.625C54.629,414.758,48.469,412.144,48.497,412.142z"/>
		</g>
	</g>
	<g>
		<g>
			<path fill="#80C343" d="M100.093,416.154c-0.242,0.277,19.857,10.689,35.731,26.787c16.568,15.613,25.432,37.08,25.514,37.999
				c0.742,1.887,1.726,3.281,2.195,3.114c0.465-0.164,0.232-1.859-0.528-3.785c-0.076-0.934-9.326-22.72-26.287-38.234
				C120.449,426.017,100.078,415.996,100.093,416.154z"/>
			<path fill="#A7D384" d="M100.149,416.255c-0.169,0.132,20.073,10.573,36.006,26.797c16.627,15.752,25.425,37.397,25.466,38.294
				c0.723,1.838,1.617,2.528,1.773,2.471c0.164-0.059-0.466-0.851-1.194-2.698c-0.042-0.906-8.972-22.664-25.734-38.376
				C120.393,426.54,100.058,416.237,100.149,416.255z"/>
		</g>
	</g>
	<g>
		<g>
			<path fill="#80C343" d="M157.379,427.346c0.129-0.16-1.679,5.041,1.921,11.59c3.32,6.543,11.461,12.338,16.577,20.249
				c5.059,8.111,6.25,17.885,7.893,25.021c1.48,7.251,3.555,12.039,3.744,12.428c0.727,1.625,1.724,2.726,2.075,2.523
				c0.38-0.216,0.015-1.592-0.676-3.139c-0.186-0.381-2.224-4.939-3.773-12.118c-1.705-7.038-3.016-16.989-8.345-25.279
				c-5.465-8.144-13.583-13.656-16.976-19.977C156.156,432.389,157.704,427.245,157.379,427.346z"/>
			<path fill="#A7D384" d="M157.319,427.424c0.195-0.15-1.553,5.086,2.125,11.592c3.384,6.516,11.581,12.291,16.684,20.323
				c5.028,8.225,6.172,18.058,7.833,25.219c1.483,7.279,3.647,12.041,3.805,12.427c0.757,1.551,1.568,2.056,1.691,1.984
				c0.132-0.071-0.463-0.675-1.208-2.205c-0.157-0.383-2.308-5.058-3.811-12.312c-1.683-7.126-2.874-17.02-7.99-25.305
				c-5.228-8.117-13.416-13.791-16.824-20.231C155.923,432.51,157.584,427.294,157.319,427.424z"/>
		</g>
	</g>
	<g>
		<g>
			<path fill="#80C343" d="M200.029,470.342c0.182-0.215,6.396,6.65,8.839,15.611c2.968,8.667,3.654,17.943,3.607,18.332
				c0.038,0.819,0.233,1.482,0.434,1.477c0.201,0,0.333-0.683,0.29-1.521c0.05-0.405-0.727-9.768-3.843-18.453
				C206.771,476.8,200.321,469.946,200.029,470.342z"/>
			<path fill="#A7D384" d="M200.045,470.389c0.229-0.279,6.474,6.655,8.923,15.666c2.965,8.719,3.619,18.047,3.562,18.422
				c0.035,0.801,0.287,1.181,0.356,1.181c0.069,0-0.066-0.388-0.104-1.191c0.057-0.384-0.629-9.742-3.647-18.466
				C206.639,476.981,200.312,470.047,200.045,470.389z"/>
		</g>
	</g>
	<g>
		<g>
			<path fill="#80C343" d="M29.584,462.36c-0.072,0.317,11.423,1.968,22.661,5.065c11.616,2.686,20.482,10.909,20.448,11.551
				c0.683,0.785,1.399,1.297,1.607,1.143c0.205-0.156-0.201-0.945-0.912-1.763c-0.164-0.198-2.229-2.631-6.015-5.154
				c-3.78-2.528-9.273-4.915-14.945-6.411C41.061,463.838,29.571,462.429,29.584,462.36z"/>
			<path fill="#A7D384" d="M29.628,462.403c-0.06,0.236,11.502,1.859,22.796,4.993c5.645,1.576,11.037,4.049,14.704,6.583
				c3.682,2.535,5.609,4.971,5.776,5.146c0.663,0.768,1.22,0.952,1.289,0.899c0.069-0.056-0.38-0.337-1.05-1.115
				c-0.167-0.172-2.122-2.633-5.846-5.179c-3.707-2.543-9.144-5.005-14.809-6.555C41.146,464.093,29.593,462.554,29.628,462.403z"/>
		</g>
	</g>
	<g>
		<g>
			<path fill="#80C343" d="M47.607,495.517c-0.031,0,8.294-0.919,15.993-4.371c7.775-3.339,13.951-9.414,14.218-9.619
				c0.563-0.513,0.916-1.032,0.786-1.162c-0.129-0.135-0.682,0.168-1.242,0.677c-0.267,0.206-6.313,6.263-13.957,9.678
				C55.839,494.248,47.547,495.337,47.607,495.517z"/>
			<path fill="#A7D384" d="M47.646,495.533c-0.039-0.061,8.32-1.007,16.039-4.483c7.789-3.383,13.977-9.479,14.238-9.678
				c0.543-0.494,0.663-0.888,0.619-0.932c-0.044-0.047-0.229,0.268-0.777,0.766c-0.264,0.194-6.404,6.287-14.149,9.695
				C55.943,494.405,47.598,495.409,47.646,495.533z"/>
		</g>
	</g>
	<g>
		<g>
			<path fill="#80C343" d="M42.196,419.911c-0.003-0.009,7.025,5.164,14.929,9.102c7.874,4.263,17.1,4.788,17.464,4.577
				c0.805-0.005,1.453-0.17,1.443-0.363c-0.015-0.191-0.657-0.343-1.443-0.336c-0.353,0.201-9.368-0.211-17.253-4.324
				C49.437,424.768,42.291,419.739,42.196,419.911z"/>
			<path fill="#A7D384" d="M42.215,419.952c0.032-0.063,7.103,5.122,15.048,9.061c7.906,4.263,17.168,4.755,17.515,4.532
				c0.786-0.006,1.153-0.234,1.151-0.299c-0.007-0.07-0.375,0.051-1.151,0.055c-0.346,0.223-9.528-0.23-17.442-4.441
				C49.393,424.971,42.281,419.831,42.215,419.952z"/>
		</g>
	</g>
	<g>
		<g>
			<path fill="#80C343" d="M71.272,410.496c-0.047,0.123,2.163,0.488,4.87,2.275c2.732,1.748,5.551,5.201,7.201,9.232
				c3.484,8.067,3.282,17.137,3.324,17.462c0.007,0.787,0.169,1.432,0.362,1.436c0.191,0.002,0.343-0.646,0.336-1.447
				c-0.044-0.334,0.084-9.502-3.569-17.65c-1.737-4.069-4.675-7.555-7.505-9.258C73.489,410.799,71.243,410.526,71.272,410.496z"/>
			<path fill="#A7D384" d="M71.303,410.529c-0.038,0.09,2.186,0.439,4.912,2.244c2.764,1.754,5.578,5.258,7.232,9.318
				c3.472,8.138,3.232,17.247,3.264,17.561c0.009,0.771,0.235,1.142,0.301,1.144c0.066,0-0.053-0.373-0.06-1.144
				c-0.034-0.321,0.183-9.465-3.352-17.631c-1.678-4.071-4.537-7.584-7.332-9.327C73.508,410.904,71.272,410.588,71.303,410.529z"/>
		</g>
	</g>
	<g>
		<g>
			<path fill="#80C343" d="M20.984,451.106c0.601-5.173,66.676,17.852,69.283,11.297c1.59-0.27,2.807-0.789,2.716-1.161
				c-0.091-0.374-1.402-0.469-2.93-0.209C88.223,467.585,21.663,445.202,20.984,451.106z"/>
			<path fill="#A7D384" d="M21.065,451.148c0.608-5.41,67.06,17.892,69.562,11.104c1.544-0.264,2.186-0.822,2.154-0.947
				c-0.025-0.132-0.71,0.213-2.232,0.473C88.317,468.564,21.701,445.487,21.065,451.148z"/>
		</g>
	</g>
	<g>
		<g>
			<path fill="#80C343" d="M26.739,442.259c-0.042,0.104,8.401,1.105,15.907,5.159c7.517,3.855,14.624,8.702,15.008,8.802
				c0.657,0.398,1.267,0.598,1.361,0.438c0.095-0.163-0.358-0.616-1.016-1.015c-0.38-0.097-7.516-4.873-15.137-8.653
				C35.231,443.015,26.704,442.176,26.739,442.259z"/>
			<path fill="#A7D384" d="M26.773,442.289c-0.038,0.038,8.461,1.045,16.008,5.129c7.543,3.899,14.675,8.764,15.052,8.86
				c0.635,0.39,1.056,0.392,1.091,0.337c0.031-0.058-0.333-0.147-0.971-0.539c-0.375-0.095-7.519-4.935-15.096-8.806
				C35.266,443.211,26.739,442.259,26.773,442.289z"/>
		</g>
	</g>
	<g>
		<g>
			<path fill="#80C343" d="M32.496,428.631c-0.018-0.023,8.854,1.338,16.873,5.442c8.25,3.675,14.891,9.964,14.995,10.373
				c0.535,0.593,1.091,0.976,1.242,0.853c0.155-0.123-0.169-0.724-0.717-1.341c-0.122-0.436-6.952-6.772-15.3-10.341
				C41.454,429.602,32.483,428.408,32.496,428.631z"/>
			<path fill="#A7D384" d="M32.53,428.661c-0.012-0.097,8.918,1.277,16.979,5.412c8.29,3.708,14.937,10.071,15.014,10.482
				c0.519,0.578,0.946,0.715,1.004,0.673c0.052-0.044-0.296-0.255-0.821-0.84c-0.084-0.424-6.797-6.801-15.121-10.472
				C41.481,429.812,32.524,428.494,32.53,428.661z"/>
		</g>
	</g>
	<g>
		<g>
			<path fill="#80C343" d="M86.824,409.447c-0.113,0.132,3.594,3.213,8.207,8.779c4.69,5.471,10.171,13.557,17.554,20.089
				c7.32,6.621,16.357,10.909,22.991,14.232c6.713,3.256,11.182,5.711,11.547,5.958c1.518,0.861,2.937,1.263,3.16,0.9
				c0.22-0.364-0.853-1.374-2.406-2.251c-0.365-0.25-4.934-2.708-11.678-5.89c-6.675-3.257-15.621-7.38-22.897-13.777
				c-7.333-6.291-12.964-14.276-17.816-19.653C90.704,412.357,86.839,409.41,86.824,409.447z"/>
			<path fill="#A7D384" d="M86.851,409.544c-0.068,0.073,3.687,3.147,8.34,8.735c4.731,5.493,10.26,13.6,17.683,20.124
				c7.387,6.574,16.435,10.883,23.103,14.214c6.747,3.259,11.199,5.778,11.558,6.01c1.478,0.836,2.45,0.817,2.528,0.691
				c0.079-0.125-0.776-0.314-2.263-1.16c-0.36-0.232-4.85-2.755-11.606-5.986c-6.681-3.308-15.7-7.559-23.073-14.059
				c-7.409-6.438-12.986-14.508-17.772-19.97C90.638,412.584,86.827,409.557,86.851,409.544z"/>
		</g>
	</g>
	<g>
		<g>
			<path fill="#80C343" d="M91.701,432.891c-0.038,0.043,6.593,4.358,13.926,7.546c7.289,3.284,15.121,5.381,15.46,5.482
				c0.698,0.193,1.299,0.215,1.343,0.046s-0.478-0.464-1.172-0.659c-0.34-0.102-8.151-2.117-15.452-5.28
				C98.46,436.957,91.757,432.787,91.701,432.891z"/>
			<path fill="#A7D384" d="M91.723,432.926c-0.013-0.004,6.662,4.314,14.027,7.508c7.323,3.285,15.184,5.391,15.514,5.489
				c0.676,0.191,1.061,0.086,1.069,0.029c0.019-0.06-0.335-0.052-1.008-0.24c-0.331-0.099-8.185-2.181-15.511-5.423
				C98.438,437.139,91.745,432.873,91.723,432.926z"/>
		</g>
	</g>
	<g>
		<g>
			<path fill="#80C343" d="M124.867,408.887c0.059-0.119,10.14,8.97,15.687,21.43c3.396,5.875,3.981,12.721,5.2,17.77
				c1.044,5.115,2.868,8.41,3.107,8.632c0.644,1.114,1.615,1.671,1.782,1.482c0.242-0.242-0.292-1.038-0.875-2.054
				c-0.21-0.19-1.955-3.229-3.05-8.285c-1.248-4.919-1.955-11.971-5.49-17.889C135.466,417.505,125.087,408.506,124.867,408.887z"/>
			<path fill="#A7D384" d="M124.889,408.953c0.123-0.208,10.275,8.958,15.825,21.491c3.415,5.916,3.927,12.84,5.179,17.889
				c1.06,5.133,2.937,8.401,3.185,8.605c0.686,1.037,1.399,1.211,1.447,1.152c0.101-0.084-0.475-0.352-1.135-1.358
				c-0.235-0.191-2.085-3.367-3.16-8.479c-1.264-5.005-1.82-11.993-5.279-17.928C135.322,417.789,125.065,408.654,124.889,408.953z"
				/>
		</g>
	</g>
	<g>
		<g>
			<path fill="#80C343" d="M150.675,433.082c0.076-0.082,1.72,9.655,7.084,17.982c2.613,4.183,6.816,7.313,10.456,8.452
				c3.66,1.171,6.348,0.884,6.549,0.928c0.902-0.019,1.616-0.205,1.597-0.418c-0.019-0.214-0.738-0.374-1.604-0.358
				c-0.198-0.042-2.801,0.259-6.319-0.831c-3.503-1.057-7.594-4.009-10.226-8.08C152.817,442.654,150.949,432.937,150.675,433.082z"
				/>
			<path fill="#A7D384" d="M150.663,433.13c0.145-0.104,1.811,9.688,7.226,18.014c2.644,4.166,6.87,7.308,10.537,8.369
				c3.67,1.142,6.358,0.841,6.552,0.879c0.875-0.021,1.274-0.273,1.268-0.346c-0.003-0.077-0.409,0.06-1.27,0.077
				c-0.199-0.038-2.858,0.27-6.475-0.845c-3.623-1.037-7.801-4.112-10.456-8.242C152.619,442.786,150.876,433.004,150.663,433.13z"
				/>
		</g>
	</g>
	<g>
		<g>
			<path fill="#80C343" d="M173.519,435.141c0.019-0.021,0.314,2.146,1.874,4.967c1.457,2.854,4.449,6.077,5.88,10.078
				c2.912,8.161-0.515,16.932-0.041,17.255c-0.11,0.776-0.05,1.422,0.141,1.444c0.186,0.023,0.428-0.58,0.532-1.346
				c-0.494-0.283,2.918-9.108-0.179-17.521c-1.551-4.108-4.594-7.252-6.1-10.042C174.013,437.231,173.633,435.108,173.519,435.141z"
				/>
			<path fill="#A7D384" d="M173.506,435.183c0.047-0.024,0.371,2.146,1.957,4.962c1.468,2.853,4.502,6.079,5.902,10.131
				c2.86,8.252-0.602,17.041-0.114,17.356c-0.106,0.751,0.057,1.143,0.123,1.149c0.067,0.008,0.003-0.367,0.11-1.116
				c-0.494-0.304,2.962-9.11,0.038-17.444c-1.443-4.094-4.493-7.289-5.981-10.123C173.937,437.307,173.585,435.152,173.506,435.183z
				"/>
		</g>
	</g>
	<g>
		<g>
			<path fill="#80C343" d="M71.441,469.588c-0.076,0.327,11.071,2.207,22.237,4.287c11.36,2.017,20.689,9.218,20.963,9.586
				c0.814,0.619,1.6,0.969,1.76,0.773c0.161-0.196-0.383-0.864-1.217-1.496c-0.248-0.366-9.873-7.626-21.375-9.492
				C82.544,471.317,71.441,469.674,71.441,469.588z"/>
			<path fill="#A7D384" d="M71.482,469.628c-0.053,0.254,11.145,2.1,22.366,4.205c11.42,2.064,20.768,9.373,21.02,9.729
				c0.795,0.604,1.358,0.673,1.416,0.604c0.053-0.063-0.425-0.245-1.223-0.855c-0.245-0.353-9.697-7.685-21.165-9.693
				C82.639,471.562,71.454,469.799,71.482,469.628z"/>
		</g>
	</g>
	<g>
		<g>
			<path fill="#80C343" d="M49.504,508.914c-0.057-0.214,13.561-3.067,27.018-7.329c6.686-2.204,13.323-5.009,17.669-8.437
				c4.568-3.347,5.42-7.729,5.307-7.993c0.227-1.374-0.326-2.438-0.559-2.376c-0.372,0.06-0.347,1.069-0.554,2.23
				c0.076,0.225-0.508,4.029-4.836,7.331c-4.135,3.339-10.668,6.217-17.28,8.493C62.955,505.266,49.344,508.407,49.504,508.914z"/>
			<path fill="#A7D384" d="M49.573,508.933c-0.089-0.31,13.602-3.203,27.107-7.498c6.7-2.235,13.376-5.035,17.678-8.535
				c4.537-3.405,5.269-7.827,5.103-8.074c0.116-1.327-0.428-1.903-0.488-1.884c-0.15,0.017,0.215,0.589,0.101,1.849
				c0.151,0.233-0.493,4.447-4.94,7.833c-4.229,3.467-10.87,6.287-17.542,8.552C63.138,505.527,49.45,508.519,49.573,508.933z"/>
		</g>
	</g>
	<g>
		<g>
			<path fill="#80C343" d="M74.243,527.967c-0.056,0.27,12.608-0.287,24.228-5.411c11.926-4.442,21.356-13.564,21.476-14.174
				c0.757-0.879,1.195-1.723,0.975-1.892c-0.218-0.166-0.985,0.381-1.718,1.227c-0.104,0.571-9.234,9.598-21.006,14.191
				C86.754,527.154,74.199,527.962,74.243,527.967z"/>
			<path fill="#A7D384" d="M74.296,527.994c-0.05,0.186,12.656-0.41,24.306-5.581c11.958-4.488,21.388-13.667,21.482-14.284
				c0.729-0.848,0.833-1.453,0.754-1.51c-0.073-0.061-0.292,0.442-1.016,1.283c-0.088,0.604-9.411,9.749-21.319,14.287
				C86.918,527.403,74.25,528.082,74.296,527.994z"/>
		</g>
	</g>
	<g>
		<g>
			<path fill="#80C343" d="M59.543,515.864c0.157,0.401,11.688-5.475,23.953-9.638c6.141-2.052,12.663-3.044,17.543-2.462
				c4.893,0.559,7.876,2.323,8.086,2.472c0.994,0.563,1.938,0.833,2.104,0.599c0.164-0.232-0.556-0.912-1.612-1.513
				c-0.221-0.151-3.393-1.985-8.478-2.506c-5.072-0.549-11.71,0.557-17.866,2.715C70.955,509.91,59.603,515.994,59.543,515.864z"/>
			<path fill="#A7D384" d="M59.61,515.876c0.122,0.316,11.684-5.624,24.034-9.788c6.176-2.06,12.757-3,17.662-2.378
				c4.931,0.59,7.87,2.487,8.09,2.604c0.972,0.552,1.629,0.542,1.686,0.464c0.053-0.083-0.519-0.215-1.51-0.778
				c-0.223-0.117-3.229-2.041-8.229-2.616c-4.977-0.613-11.593,0.368-17.777,2.464C71.199,510.084,59.7,516.101,59.61,515.876z"/>
		</g>
	</g>
	<g>
		<g>
			<path fill="#80C343" d="M113.462,537.103c0.028,0.127,5.953-1.02,14.801-2.983c8.838-1.966,20.692-4.551,32.811-5.175
				c12.319-0.67,24.206-4.468,33.073-7.291c8.883-2.899,15.055-4.525,15.596-4.628c2.122-0.542,3.751-1.408,3.634-1.932
				c-0.12-0.518-1.962-0.496-4.123,0.055c-0.544,0.103-6.811,1.811-15.662,4.807c-8.845,2.918-20.504,6.787-32.601,7.62
				c-12.25,0.812-24.117,3.621-32.903,5.807C119.294,535.578,113.438,536.968,113.462,537.103z"/>
			<path fill="#A7D384" d="M113.582,537.144c0.01,0.044,5.95-1.162,14.832-3.176c8.871-2.009,20.796-4.597,32.988-5.21
				c12.353-0.736,24.261-4.555,33.163-7.394c8.915-2.92,15.134-4.477,15.656-4.586c2.062-0.531,2.924-1.392,2.88-1.572
				c-0.038-0.18-0.972,0.388-3.05,0.92c-0.522,0.11-6.772,1.7-15.677,4.654c-8.893,2.868-20.732,6.709-33,7.502
				c-12.231,0.681-24.167,3.344-33.019,5.431C119.487,535.804,113.573,537.092,113.582,537.144z"/>
		</g>
	</g>
	<g>
		<g>
			<path fill="#80C343" d="M143.479,547.544c-0.073,0.255,10.838-0.75,19.855-6.862c9.141-5.647,16.39-13.839,16.731-14.126
				c0.66-0.71,1.054-1.415,0.88-1.57c-0.173-0.157-0.845,0.285-1.496,0.994c-0.347,0.285-7.469,8.482-16.436,14.199
				C154.185,546.354,143.409,547.561,143.479,547.544z"/>
			<path fill="#A7D384" d="M143.526,547.571c-0.073,0.176,10.866-0.865,19.895-7.027c9.159-5.69,16.429-13.911,16.761-14.195
				c0.642-0.689,0.752-1.204,0.692-1.258c-0.061-0.055-0.265,0.37-0.906,1.061c-0.33,0.28-7.562,8.499-16.656,14.217
				C154.345,546.549,143.457,547.665,143.526,547.571z"/>
		</g>
	</g>
	<g>
		<g>
			<path fill="#80C343" d="M110.488,526.935c-0.095-0.088,16.91-7.236,35.365-8.215c9.121-0.782,18.385-0.27,25.198,1.228
				c6.818,1.486,11.093,3.74,11.37,4.021c1.394,0.828,2.713,1.23,2.953,0.901c0.238-0.326-0.768-1.302-2.246-2.179
				c-0.305-0.306-4.808-2.621-11.804-4.063c-6.99-1.456-16.369-1.859-25.56-0.94C127.182,518.944,110.192,526.493,110.488,526.935z"
				/>
			<path fill="#A7D384" d="M110.582,526.943c-0.164-0.218,16.961-7.4,35.513-8.367c9.181-0.774,18.495-0.197,25.333,1.339
				c6.862,1.522,11.094,3.911,11.374,4.171c1.355,0.806,2.283,0.812,2.365,0.698c0.078-0.117-0.73-0.315-2.113-1.139
				c-0.289-0.262-4.603-2.679-11.527-4.187c-6.902-1.523-16.26-2.064-25.46-1.241C127.467,519.281,110.349,526.604,110.582,526.943z
				"/>
		</g>
	</g>
	<g>
		<g>
			<path fill="#80C343" d="M127.219,543.7c-0.015,0.073,7.097-1.166,13.404-4.756c6.326-3.432,12.25-7.635,12.568-7.731
				c0.544-0.352,0.918-0.747,0.833-0.877c-0.082-0.134-0.594,0.044-1.141,0.396c-0.321,0.1-6.22,4.362-12.452,7.855
				C134.221,542.245,127.182,543.614,127.219,543.7z"/>
			<path fill="#A7D384" d="M127.251,543.711c-0.022,0.024,7.112-1.244,13.441-4.854c6.339-3.463,12.298-7.664,12.608-7.758
				c0.532-0.344,0.689-0.662,0.661-0.708c-0.032-0.044-0.233,0.197-0.767,0.544c-0.311,0.093-6.264,4.314-12.571,7.798
				C134.328,542.364,127.222,543.68,127.251,543.711z"/>
		</g>
	</g>
	<g>
		<g>
			<path fill="#80C343" d="M183.185,552.856c-0.009,0.115,16.807-0.434,33.498-3.741c16.729-3.1,32.913-9.083,33.625-9.321
				c1.452-0.515,2.525-1.216,2.396-1.563c-0.132-0.348-1.408-0.216-2.851,0.295c-0.714,0.236-16.756,6.33-33.358,9.654
				C199.934,551.712,183.16,552.601,183.185,552.856z"/>
			<path fill="#A7D384" d="M183.264,552.896c-0.016-0.005,16.875-0.599,33.628-3.936c16.791-3.143,33.038-9.146,33.732-9.37
				c1.412-0.504,1.943-1.145,1.898-1.267c-0.047-0.121-0.649,0.327-2.059,0.825c-0.694,0.228-16.891,6.268-33.638,9.487
				C200.12,552.049,183.238,552.761,183.264,552.896z"/>
		</g>
	</g>
	<g>
		<g>
			<path fill="#80C343" d="M193.829,558.017c-0.042,0.13,6.414,0.183,12.306-2.487c5.912-2.409,11.329-5.942,11.584-6.056
				c0.494-0.301,0.833-0.641,0.757-0.76c-0.073-0.119-0.527,0.029-1.019,0.33c-0.257,0.115-5.625,3.685-11.458,6.157
				C200.189,557.931,193.81,558.006,193.829,558.017z"/>
			<path fill="#A7D384" d="M193.851,558.033c-0.032,0.088,6.439,0.111,12.354-2.575c5.924-2.436,11.367-5.972,11.618-6.081
				c0.478-0.293,0.624-0.575,0.595-0.613c-0.022-0.041-0.211,0.17-0.686,0.465c-0.252,0.106-5.679,3.655-11.574,6.117
				C200.272,558.052,193.829,558.071,193.851,558.033z"/>
		</g>
	</g>
	<g>
		<g>
			<path fill="#80C343" d="M166.083,550.328c-0.12-0.172,13.59-6.593,28.714-8.05c7.465-0.975,15.083-0.983,20.752-0.125
				c5.681,0.831,9.311,2.437,9.559,2.642c1.179,0.603,2.286,0.862,2.465,0.58c0.179-0.278-0.694-1.028-1.958-1.673
				c-0.271-0.22-4.094-1.865-9.912-2.648c-5.807-0.813-13.509-0.707-21.014,0.379C179.478,543.118,165.774,549.88,166.083,550.328z"
				/>
			<path fill="#A7D384" d="M166.161,550.332c-0.185-0.274,13.625-6.73,28.831-8.181c7.509-0.972,15.172-0.93,20.869-0.044
				c5.709,0.877,9.332,2.545,9.565,2.763c1.151,0.587,1.912,0.54,1.975,0.446c0.056-0.101-0.616-0.224-1.792-0.82
				c-0.242-0.225-3.937-1.911-9.694-2.77c-5.745-0.873-13.436-0.88-20.96,0.132C179.72,543.386,165.911,549.961,166.161,550.332z"/>
		</g>
	</g>
	<g>
		<g>
			<path fill="#80C343" d="M207.57,468.077c0.034-0.08,10.439,8.272,16.976,20.015c6.535,11.578,14.771,22.419,15.529,22.591
				c0.843,0.884,1.692,1.428,1.893,1.219c0.205-0.21-0.299-1.08-1.122-1.947c-0.733-0.159-8.923-10.718-15.671-22.263
				C218.439,475.979,207.749,467.73,207.57,468.077z"/>
			<path fill="#A7D384" d="M207.595,468.142c0.091-0.174,10.564,8.248,17.124,20.061c6.558,11.647,14.847,22.495,15.605,22.644
				c0.818,0.858,1.45,1.028,1.521,0.955c0.071-0.069-0.442-0.358-1.253-1.208c-0.75-0.143-9.023-10.896-15.653-22.53
				C218.311,476.264,207.735,467.878,207.595,468.142z"/>
		</g>
	</g>
	<g>
		<g>
			<path fill="#80C343" d="M192.379,469.375c-0.107,0.007,2.342,5.567,6.98,9.504c4.5,3.947,8.638,8.26,8.688,8.578
				c0.345,0.408,0.71,0.677,0.815,0.601c0.106-0.077-0.095-0.481-0.448-0.897c-0.049-0.327-4.298-4.671-8.829-8.526
				C194.929,474.789,192.401,469.346,192.379,469.375z"/>
			<path fill="#A7D384" d="M192.376,469.405c-0.069-0.006,2.411,5.553,7.068,9.503c4.531,3.948,8.663,8.32,8.71,8.628
				c0.333,0.4,0.617,0.499,0.654,0.472c0.038-0.027-0.189-0.173-0.529-0.574c-0.047-0.309-4.216-4.692-8.756-8.611
				C194.86,474.905,192.351,469.388,192.376,469.405z"/>
		</g>
	</g>
	
		<radialGradient id="SVGID_10_" cx="783.9121" cy="387.9854" r="258.7209" gradientTransform="matrix(-0.3174 0.9483 0.9483 0.3174 -13.5479 -195.8701)" gradientUnits="userSpaceOnUse">
		<stop  offset="0.5618" style="stop-color:#54AC47"/>
		<stop  offset="0.615" style="stop-color:#59AE47"/>
		<stop  offset="0.6705" style="stop-color:#67B34A"/>
		<stop  offset="0.7271" style="stop-color:#7DBB51"/>
		<stop  offset="0.784" style="stop-color:#98C95C"/>
		<stop  offset="0.7978" style="stop-color:#A0CE60"/>
	</radialGradient>
	<path fill="url(#SVGID_10_)" d="M278.185,528.481c-7.214-6.352-16.477-9.062-25.457-12.121
		c-17.089-5.82-58.45-21.349-62.305-22.848c-5.584-2.172-60.78-23.952-69.005-26.562c-7.906-2.506-44.159-16.655-54.677-20.196
		c-4.286-1.439-21.655-5.209-26.516-5.082c7.405-0.147,39.66,15.541,43.6,17.305c16.825,7.521,34.037,14.832,51.309,21.512
		c19.876,7.689,67.958,30.767,106.807,54.14c14.151,8.512,20.501,20.039,23.158,25.382c3.469,6.979,2.895,12.83,11.972,13.423
		c6.781,0.447,15.44-3.675,19.09-9.427c4.689-7.381,2.359-15.024-2.742-21.712C293.418,542.294,288.509,537.579,278.185,528.481z"/>
</g>
<g>
	<path fill="#1C191A" d="M275.149,405.886c19.549-9.901,44.001-10.331,62.64,1.895c14.4-1.137,28.316,2.677,41.375,8.386
		c11.82-0.606,22.303,4.167,32.684,9.068c15.863,2.576,27.203,16.593,30.059,31.877c17.148,17.908,11.492,46.122,2.426,66.632
		c0.631,9.119,3.988,18.717-0.027,27.634c-7.174,19.626-29.25,28.619-48.875,28.516c-3.838,3.46-8.031,6.617-12.982,8.312
		c-10.457,3.385-17.936,12.478-28.617,15.278c-8.133,3.108-16.748-1.135-24.932,1.34c-14.701,4.193-30.562,1.493-44.078-5.152
		c-7.728-4.976-16.568,0.783-24.854,0.354c-14.901,1.263-28.769-6.594-37.861-17.936c-7.755-0.353-15.839-1.34-22.23-6.162
		c-8.84-7.808-22.91-7.629-29.25-18.591c-9.168-13.033-5.153-29.351-3.283-43.875c-1.211-15.709,6.771-31.344,20.283-39.479
		c1.337-8.335,4.344-16.544,10.331-22.684c5.784-6.113,8.84-14.497,15.762-19.575c7.729-5.807,13.438-14.121,22.228-18.487
		C247.767,406.416,261.736,404.572,275.149,405.886z"/>
	<path fill="#E187B8" d="M267.622,425.335c8.133-6.921,17.074-13.488,27.707-15.863c13.185-3.333,27.408,0.026,38.548,7.578
		c-9.375,1.971-18.365,5.631-25.971,11.493c-0.324-1.641-0.957-4.924-1.287-6.567c0.025,2.072,0.053,6.238,0.076,8.311
		c-5.076,6.264-10.382,13.815-19.17,14.523c-8.31,0.429-15.686,3.991-21.268,10.156c-0.659-1.466-1.996-4.396-2.676-5.861
		c1.993,7.274-5.533,10.404-9.245,15.229c-5.508,5.786-6.946,14.777-13.917,19.223c-5.432,3.712-11.569,6.998-14.778,13.034
		c-7.905,11.847-5.606,27.303,0.025,39.604c-2.98,11.087-2.854,22.655-0.202,33.82c-8.991,1.14-18.944,0.331-25.612-6.591
		c-0.354-3.132,3.813-4.218,5.457-6.44c5.935-5.508,8.209-15.889,3.308-22.761c-3.13-5.1-7.348-10.076-6.188-16.491
		c-3.764-2.979-7.449-6.062-11.263-8.994c2.474,3.943,5.579,7.428,9.067,10.508c0.932,7.197,5.579,12.958,8.283,19.502
		c2.023,7.702-2.047,16.998-9.447,20.281c-7.955,2.575-16.418-2.478-20.938-8.89c-4.901-9.019-4.067-20.057-1.541-29.655
		c2.804,3.942,4.545,8.485,5.784,13.161c0.53-10.457-7.933-19.98-3.663-30.312c3.638-11.796,14.067-22.53,27.432-20.357
		c-0.227,3.459-0.454,6.92-0.784,10.38c2.047-10.633,8.286-19.649,16.773-26.194c-6.719,2.628-12.402,7.022-15.434,13.718
		c-2.704-0.48-5.38-0.962-8.059-1.44c-0.555-11.845,6.769-23.794,18.466-27.052c10.404-4.396,27.076,2.348,25.157,15.407
		c0.807,7.199-5.71,11.366-9.775,16.218c5.659-3.638,11.796-8.69,11.569-16.117c0.858-7.047-3.813-12.755-8.589-17.227
		c1.566-7.07,4.953-13.437,9.092-19.298c-6.112,4.521-9.822,11.115-11.568,18.414c-6.744-1.136-13.586-1.062-20.331,0.076
		c4.825-9.726,14.245-15.256,21.823-22.506c11.719-9.321,27.126-12.855,41.879-12.478c-3.991,3.511-7.906,7.172-11.29,11.316
		c-1.643,0.024-4.953,0.101-6.593,0.126c3.638,1.035,7.274,2.123,10.91,3.184C268.958,428.469,268.05,426.396,267.622,425.335z"/>
	<path fill="#E187B8" d="M311.242,433.342c11.871-10.912,28.643-17.227,44.76-13.941c11.518,1.465,21.164,9.622,33.064,9.043
		c11.77,0.353,20.281,9.672,25.182,19.549c-1.693-3.688-3.385-7.352-5.08-11.039c13.162,0.76,20.385,12.881,22.963,24.4
		c-1.615,4.371-2.098,8.967-2.045,13.59c1.641-2.98,3.408-5.91,5.15-8.842c8.137,7.68,8.111,19.652,6.42,29.882
		c-1.344,10.711-5.764,20.688-11.293,29.856c6.617,9.825,3.611,24.098-3.863,32.71c-9.244,9.952-23.846,11.821-36.729,10.481
		c5.455-8.108,15.41-12.933,16.975-23.615c1.969-0.178,5.887-0.583,7.83-0.783c-2.68-0.682-5.381-1.341-8.057-1.974
		c-0.582-3.279-1.164-6.564-1.744-9.848c1.945-0.759,5.887-2.224,7.857-2.98c-7.631,0.604-15.232,1.666-22.785,2.753
		c4.42,0.176,8.84,0.176,13.287,0.228c0.553,6.921,1.92,14.397-1.465,20.838c-2.047,4.926-7.275,6.946-11.621,9.27
		c-2.068,5.785-3.889,13.111-10.961,14.524c-11.973,3.209-20.486,13.791-32.938,15.636c-5.732,1.44-11.416-0.505-16.67-2.627
		c-0.809-1.517-2.402-4.521-3.209-6.035c2.805-2.352,5.582-4.7,8.334-7.1c-7.299,4.142-15.332,6.541-23.615,7.703
		c5.027,0.101,10.078,0.076,15.131-0.052c0.555,2.023,1.691,6.115,2.248,8.159c-21.395,7.428-50.519-1.312-57.137-24.776
		c-6.389,5.655-14.144,9.169-22.077,12.098c7.629-0.202,14.879-2.979,20.612-8.031c2.299,4.772,5.254,9.193,8.512,13.386
		c-13.11,5.001-29.755,6.139-40.466-4.495c-11.569-11.569-10.429-29.428-8.032-44.304c8.135,2.854,15.358,7.576,22.432,12.374
		c-1.771,3.286-3.513,6.621-5.18,9.979c2.679-2.903,5.254-5.883,7.857-8.813c10.076,0.833,20.231-3.385,24.525-13.034
		c3.636,2.575,7.376,5.052,11.468,6.87c-3.006-2.551-6.189-4.876-9.371-7.173c7.553-4.194,11.999-11.645,17.633-17.86
		c4.646-5.226,12.197-2.096,18.133-2.348c-5.76-1.011-12.855-4.343-17.986,0c-6.514,6.165-9.497,16.821-19.575,18.389
		c-3.508,5.329-7.726,11.165-14.598,11.972c-11.115,2.805-19.803-6.238-29.753-9.294c-8.312-2.45-10.838-11.923-10.786-19.628
		c-0.077-11.541,4.521-24.601,15.305-30.207c10.864-4.523,11.924-18.061,20.915-24.73c2.55-1.692,6.315-7.424,7.753-1.515
		c2.477-8.387,10.762-12.452,18.944-13.009C297.705,448.118,304.02,439.454,311.242,433.342z"/>
	<path fill="#1C191A" d="M325.615,438.849c6.164-2.628,13.084-6.39,19.826-3.309c4.221,1.162,6.518,5.153,9.246,8.233
		c6.541-3.485,14.877-6.111,21.445-1.161c8.586,5.634,8.461,16.872,9.723,25.938c-2.602-7.803-1.994-18.438-9.9-23.26
		c-6.691-4.094-14.523-1.518-20.965,1.616c-0.354,2.525-0.707,5.075-1.061,7.626c3.637,4.926,5.584,10.735,6.744,16.723
		c4.521,2.274,10.961,3.788,12.176,9.548c1.844,7.351,3.156,15.609,10.885,19.021c-3.688-1.643-8.664-2.352-10.002-6.796
		c-2.68-6.795-3.359-16.722-12.301-18.135c-7.299,0.681-12.504,6.769-16.318,12.477c-1.539,7.881-2.801,16.445-11.162,20.031
		c5.809,7.806,8.135,20.054,0.557,27.531c-5.027,5.886-13.236,5.026-20.107,4.42c-0.025,1.162-0.025,3.51-0.025,4.699
		c-0.328-1.744-0.959-5.229-1.262-6.971c7.932,2.195,18.361,1.741,22.377-6.72c6.568-11.544-3.41-23.289-12.324-29.906
		c3.23,1.843,6.389,3.838,9.545,5.834c6.922-3.712,9.725-10.811,9.676-18.414c5.383-6.011,9.625-13.767,17.984-16.014
		c-2.199-5.277-4.85-10.33-7.703-15.256c-1.012,0.984-3.084,3.007-4.121,3.991c4.17-6.416,5.133-16.471-1.691-21.445
		C340.418,434.479,332.613,437.837,325.615,438.849z"/>
	<path fill="#1C191A" d="M355.799,535.388c7.527-6.111,22.455,0.05,20.258,10.685c0.883,4.622-3.006,7.427-5.457,10.634
		c-2.045,5.204-3.107,10.811-6.389,15.458c2.879-7.553,1.438-14.953,0.252-22.559c2.803,0.534,3.838,4.525,5.861,6.367
		c8.41-8.764-0.152-24.223-11.873-20.231c-9.369,8.032-14.17,23.969-29.123,22.784c-4.85,5.253-10.281,11.566-18.135,11.466
		c-6.469-0.202-10.281-6.036-14.021-10.481c4.068,3.005,7.576,8.488,13.365,7.477c6.211-0.101,11.414-3.789,15.734-7.933
		c4.117-4.344,10.91-3.384,15.484-7.02C347.211,547.159,350.215,540.161,355.799,535.388z"/>
</g>
<path fill="#040404" d="M397.937,505.002c1.228-6.733,0.025-13.838,2.319-20.349c2.48-5.921,9.811-5.446,15.082-4.573
	c2.829-6.188,7.339-11.545,13.182-15.112c2.368-1.221,2.816-4.019,3.958-6.177c0.519,3.553,2.248,6.638,4.654,9.247
	c-1.886-0.517-3.693-1.22-5.574-1.738c-5.495,2.779-10.338,7.364-12.81,13.062c-1.769,5.975,0.857,14.072,7.283,16.048
	c4.188,1.875,8.584-1.033,12.913-0.193c3.634,0.399,6.695,2.6,9.225,5.085c-4.833-2.128-10.432-4.125-15.592-1.843
	c-4.07,2.525-2.262,8.345-5.189,11.688c-2.383,2.792-5.069,5.304-7.574,7.978c0.899-3.243,2.729-6.066,4.792-8.687
	c2.357-2.934,2.886-6.817,3.137-10.453c-3.345-1.386-6.678-2.837-9.41-5.275c-4.057,1.328-6.846,4.492-9.474,7.641
	c0.497-5.049,5.113-7.389,8.213-10.562c-0.847-2.842-0.359-8.004-4.29-8.37c-3.416-0.773-8.013-0.593-9.638,3.112
	C400.404,491.725,401.136,498.92,397.937,505.002L397.937,505.002z"/>
<path fill="#040404" d="M308.761,468.424c-2.817,1.47-6.043,3.256-9.087,1.224c6.92-0.581,10.61-6.834,14.198-11.941
	c2.084-3.217,5.88-4.19,9.436-4.67c-7.657,3.759-13.317,12.491-10.559,21.114C311.139,472.448,309.854,470.488,308.761,468.424
	L308.761,468.424z"/>
<path fill="#040404" d="M269.639,498.923c1.151-2.038,2.562-3.929,4.522-5.257c2.624-1.731,4.064-4.644,6.34-6.736
	c1.691-1.533,4.125-1.322,6.228-1.491c-0.795,2.489-3.822,1.983-5.397,3.564c-1.812,1.889-2.999,4.424-5.377,5.698
	C273.757,495.975,271.624,497.344,269.639,498.923L269.639,498.923z"/>
<path fill="#1C191A" d="M270.43,496.68c3.342-2.897,9.971,0.023,8.996,5.063c0.393,2.191-1.334,3.521-2.423,5.04
	c-0.908,2.467-1.381,5.125-2.837,7.327c1.278-3.58,0.639-7.088,0.111-10.692c1.244,0.253,1.704,2.145,2.603,3.018
	c3.735-4.153-0.067-11.48-5.272-9.589c-4.161,3.807-6.293,11.361-12.933,10.8c-2.154,2.488-4.566,5.482-8.054,5.435
	c-2.872-0.096-4.565-2.861-6.226-4.968c1.806,1.424,3.365,4.022,5.935,3.543c2.758-0.047,5.069-1.795,6.987-3.76
	c1.829-2.059,4.845-1.604,6.876-3.327C266.616,502.259,267.95,498.941,270.43,496.68z"/>
<text transform="matrix(1 0 0 1 110.5796 658.0781)" font-family="'Papyrus'" font-size="72">Brain Salad</text>
</svg>
