<?xml version="1.0" encoding="utf-8"?>
<!-- Generator: Adobe Illustrator 16.0.0, SVG Export Plug-In . SVG Version: 6.00 Build 0)  -->
<!DOCTYPE svg PUBLIC "-//W3C//DTD SVG 1.1//EN" "http://www.w3.org/Graphics/SVG/1.1/DTD/svg11.dtd">
<svg version="1.1" id="Layer_1" xmlns="http://www.w3.org/2000/svg" xmlns:xlink="http://www.w3.org/1999/xlink" x="0px" y="0px"
	 width="750px" height="1200px" viewBox="0 0 750 1200" enable-background="new 0 0 750 1200" xml:space="preserve">
<g>
	<line fill="#040403" stroke="#000000" stroke-miterlimit="10" x1="29.667" y1="40.836" x2="71.667" y2="40.836"/>
	<line fill="#040403" stroke="#000000" stroke-miterlimit="10" x1="29.667" y1="69.167" x2="71.667" y2="69.167"/>
	<line fill="#040403" stroke="#000000" stroke-miterlimit="10" x1="29.667" y1="55.002" x2="71.667" y2="55.002"/>
</g>
<g>
	<rect y="1075" fill="#3A6297" stroke="#000000" stroke-miterlimit="10" width="750" height="125"/>
	<g>
		<line fill="#FFFFFF" stroke="#FFFFFF" stroke-width="3" stroke-miterlimit="10" x1="375.375" y1="1110" x2="375.375" y2="1165"/>
		
			<line fill="#FFFFFF" stroke="#FFFFFF" stroke-width="3" stroke-miterlimit="10" x1="347.875" y1="1137.5" x2="402.125" y2="1137.5"/>
	</g>
	<g>
		
			<line fill="#FFFFFF" stroke="#FFFFFF" stroke-width="3" stroke-miterlimit="10" x1="591.667" y1="1107.5" x2="591.667" y2="1167.499"/>
		
			<line fill="#FFFFFF" stroke="#FFFFFF" stroke-width="3" stroke-miterlimit="10" x1="590.667" y1="1166.499" x2="676.667" y2="1166.499"/>
		
			<line fill="#FFFFFF" stroke="#FFFFFF" stroke-width="3" stroke-miterlimit="10" x1="591.667" y1="1167.499" x2="611.667" y2="1123.5"/>
		
			<line fill="#FFFFFF" stroke="#FFFFFF" stroke-width="3" stroke-miterlimit="10" x1="610.667" y1="1123.5" x2="620" y2="1139.999"/>
		<line fill="#FFFFFF" stroke="#FFFFFF" stroke-width="3" stroke-miterlimit="10" x1="619" y1="1139.999" x2="641" y2="1109.5"/>
		<line fill="#FFFFFF" stroke="#FFFFFF" stroke-width="3" stroke-miterlimit="10" x1="640" y1="1109.5" x2="644" y2="1134.833"/>
		
			<line fill="#FFFFFF" stroke="#FFFFFF" stroke-width="3" stroke-miterlimit="10" x1="643" y1="1134.833" x2="660.333" y2="1139.999"/>
		
			<line fill="#FFFFFF" stroke="#FFFFFF" stroke-width="3" stroke-miterlimit="10" x1="659.333" y1="1139.999" x2="676.667" y2="1116.833"/>
	</g>
	
		<rect x="124.354" y="1145" fill="none" stroke="#FFFFFF" stroke-width="3" stroke-miterlimit="10" width="34.498" height="29.916"/>
	
		<rect x="124.354" y="1105.001" fill="none" stroke="#FFFFFF" stroke-width="3" stroke-miterlimit="10" width="34.498" height="29.916"/>
	<rect x="74.357" y="1145" fill="none" stroke="#FFFFFF" stroke-width="3" stroke-miterlimit="10" width="34.498" height="29.916"/>
	
		<rect x="74.357" y="1102.153" transform="matrix(0.925 0.38 -0.38 0.925 431.3161 48.9698)" fill="#FDFDFE" stroke="#FFFFFF" stroke-width="3" stroke-miterlimit="10" width="34.498" height="29.915"/>
</g>
<text transform="matrix(1 0 0 1 69.8022 345)" fill="#3A6297" font-family="'Avenir-Book'" font-size="200" letter-spacing="6">7 days</text>
<text transform="matrix(1 0 0 1 74.8022 413)" fill="#3A6297" font-family="'Avenir-Book'" font-size="72" letter-spacing="2">seizure free</text>
<text transform="matrix(1 0 0 1 101.3296 498)"><tspan x="0" y="0" fill="#3A6297" font-family="'MyriadPro-Regular'" font-size="30">15 May</tspan><tspan x="22.081" y="36" fill="#3A6297" font-family="'MyriadPro-Regular'" font-size="30">21:20</tspan></text>
<text transform="matrix(1 0 0 1 281.5566 498)"><tspan x="0" y="0" fill="#984D23" font-family="'MyriadPro-Regular'" font-size="30">Mild seizure</tspan><tspan x="5.22" y="36" fill="#984D23" font-family="'MyriadPro-Regular'" font-size="30">10 minutes</tspan></text>
<text transform="matrix(1 0 0 1 514.375 498)"><tspan x="0" y="0" fill="#7BC25A" font-family="'MyriadPro-Regular'" font-size="30">Lorem</tspan><tspan x="0" y="36" fill="#7BC25A" font-family="'MyriadPro-Regular'" font-size="30">ipsum...</tspan></text>
<line fill="none" stroke="#3A6297" stroke-miterlimit="10" x1="210.475" y1="453.248" x2="210.475" y2="562.593"/>
<line fill="none" stroke="#3A6297" stroke-miterlimit="10" x1="500.803" y1="453.248" x2="500.803" y2="562.593"/>
<line fill="none" stroke="#3A6297" stroke-miterlimit="10" x1="51.875" y1="565.5" x2="698.875" y2="565.5"/>
<line fill="none" stroke="#3A6297" stroke-miterlimit="10" x1="51.875" y1="448.248" x2="698.875" y2="448.248"/>
<text transform="matrix(1 0 0 1 116.3442 616.252)"><tspan x="0" y="0" fill="#3A6297" font-family="'MyriadPro-Regular'" font-size="30">7 May</tspan><tspan x="6.691" y="36" fill="#3A6297" font-family="'MyriadPro-Regular'" font-size="30">08:40</tspan></text>
<text transform="matrix(1 0 0 1 266.6919 616.252)"><tspan x="0" y="0" fill="#E06A6A" font-family="'MyriadPro-Regular'" font-size="30">Severe seizure</tspan><tspan x="27.404" y="36" fill="#E06A6A" font-family="'MyriadPro-Regular'" font-size="30">3 minutes</tspan></text>
<text transform="matrix(1 0 0 1 514 616.252)"><tspan x="0" y="0" fill="#7BC25A" font-family="'MyriadPro-Regular'" font-size="30">Lorem</tspan><tspan x="0" y="36" fill="#7BC25A" font-family="'MyriadPro-Regular'" font-size="30">ipsum...</tspan></text>
<line fill="none" stroke="#3A6297" stroke-miterlimit="10" x1="210.1" y1="571.5" x2="210.1" y2="680.845"/>
<line fill="none" stroke="#3A6297" stroke-miterlimit="10" x1="500.428" y1="571.5" x2="500.428" y2="680.845"/>
<line fill="none" stroke="#3A6297" stroke-miterlimit="10" x1="51.5" y1="685.752" x2="698.5" y2="685.752"/>
</svg>
