<?xml version="1.0" encoding="utf-8"?>
<!-- Generator: Adobe Illustrator 16.0.0, SVG Export Plug-In . SVG Version: 6.00 Build 0)  -->
<!DOCTYPE svg PUBLIC "-//W3C//DTD SVG 1.1//EN" "http://www.w3.org/Graphics/SVG/1.1/DTD/svg11.dtd">
<svg version="1.1" id="Layer_1" xmlns="http://www.w3.org/2000/svg" xmlns:xlink="http://www.w3.org/1999/xlink" x="0px" y="0px"
	 width="750px" height="1200px" viewBox="0 0 750 1200" enable-background="new 0 0 750 1200" xml:space="preserve">
<g opacity="0.7">
	<g>
		
			<radialGradient id="SVGID_1_" cx="-723.2612" cy="655.0967" r="224.0101" gradientTransform="matrix(0.2062 0.2458 -1.0127 0.5219 1271.6465 345.063)" gradientUnits="userSpaceOnUse">
			<stop  offset="0.0169" style="stop-color:#90C740"/>
			<stop  offset="0.5618" style="stop-color:#54AC47"/>
		</radialGradient>
		<path fill="url(#SVGID_1_)" d="M622.276,478.054c5.91-1.657,12.48,0.166,17.721-3.25c6.488-4.226,6.918-12.113,9.393-17.719
			c1.74-3.938,4.539-7.757,7.113-11.456c2.732-3.925,7.033-7.333,9.029-11.499c1.68-3.502,2.201-7.684,1.697-11.268
			c-1.156-8.185-6.85-13.526-17.545-14.643c3.543-4.173,5.436-9.146-0.885-11.755c-2.855-1.176-6.07-1.564-8.822-2.949
			c-2.74-1.376-4.717-2.984-8.307-3.062c-6.461-0.144-9.799,1.976-15.844-0.413c-6.605-2.61-9.57,0.181-16.385,0.862
			c-5.316,0.534-9.119-1.393-14.688,0.556c-4.826,1.691-8.221,4.338-13.561,5.023c-6.139,0.787-10.539,2.188-16.188,4.324
			c-4.221,1.598-8.936,2.175-13.002,4.041c-5.129,2.346-7.596,6.457-12.279,9.076c-4.986,2.789-8.566,3.803-11.543,8.248
			c-3.131-0.379-5.76-0.061-8.805,0.723c-3.779,0.975-4.23,1.662-6.104,4.443c-2.756,4.104-5.375,8.615-10.424,11.542
			c-4.512,2.608-10.346,3.742-15.303,5.715c-6.146,2.446-12.77,4.428-18.611,7.357c-7.105,3.562-12.914,9.259-15.787,15.254
			c-3.832,8.005-2.012,17.88-7.965,25.364c-3.885,4.888-9.596,9.702-15.373,13.388c-5.662,3.619-7.641,9.163-13.666,12.286
			c-6.291,3.262-2.27,4.035-0.711,8.217c2.184,5.843-3.443,6.792,7.008,8.124c6.146,0.779,11.744,5.503,18.713-3.775
			c1.811-2.411,8.752-0.412,12.406-0.818c3.848-0.432,7.672,0.4,11.525,0.204c3.863-0.192,7.537-1.35,11.373-1.698
			c3.662-0.333,7.033,0.238,10.572,0.593c7.469,0.752,11.188-2.009,17.83-4.319c3.814-1.323,7.934-2.021,11.354-4.014
			c2.9-1.695,4.703-4.193,7.529-5.922c6.4-3.917,13.635,0.254,19.934-2.641c2.941-1.349,4.129-4.034,7.285-5.301
			c3.471-1.39,7.496-1.104,11.16-1.712c6.91-1.146,10.279-6.635,17.164-7.051c3.844-0.231,8.191,1.273,11.818-0.596
			c3.072-1.578,3.326-4.657,5.254-6.807c5.662-6.322,13.346,0.279,20.455-0.89C613.864,488.676,614.78,480.16,622.276,478.054z"/>
		
			<radialGradient id="SVGID_2_" cx="-727.8271" cy="654.9131" r="224.0121" gradientTransform="matrix(0.2062 0.2458 -1.0127 0.5219 1271.6465 345.063)" gradientUnits="userSpaceOnUse">
			<stop  offset="0.0169" style="stop-color:#90C740"/>
			<stop  offset="0.5618" style="stop-color:#54AC47"/>
			<stop  offset="0.648" style="stop-color:#59AE48"/>
			<stop  offset="0.7379" style="stop-color:#67B34C"/>
			<stop  offset="0.8294" style="stop-color:#7CBB55"/>
			<stop  offset="0.9215" style="stop-color:#97C966"/>
			<stop  offset="0.9438" style="stop-color:#9FCE6C"/>
		</radialGradient>
		<path fill="url(#SVGID_2_)" d="M621.519,476.836c5.912-1.657,12.482,0.164,17.723-3.249c6.488-4.229,6.922-12.115,9.396-17.721
			c1.738-3.937,4.537-7.755,7.111-11.455c2.736-3.925,7.033-7.333,9.029-11.497c1.678-3.504,2.201-7.687,1.695-11.268
			c-1.152-8.185-6.848-13.53-17.541-14.646c3.537-4.173,5.434-9.146-0.889-11.752c-2.855-1.177-6.07-1.563-8.824-2.952
			c-2.736-1.375-4.715-2.982-8.299-3.063c-6.467-0.142-9.805,1.977-15.848-0.412c-6.605-2.609-9.568,0.181-16.383,0.863
			c-5.316,0.534-9.121-1.394-14.689,0.557c-4.83,1.691-8.223,4.336-13.562,5.022c-6.137,0.788-10.537,2.187-16.186,4.324
			c-4.225,1.6-8.934,2.176-13.002,4.04c-5.125,2.349-7.598,6.458-12.281,9.079c-4.986,2.788-8.564,3.803-11.541,8.246
			c-3.131-0.375-5.756-0.061-8.805,0.723c-3.783,0.976-4.229,1.661-6.1,4.443c-2.758,4.105-5.379,8.617-10.432,11.542
			c-4.504,2.609-10.338,3.741-15.299,5.714c-6.148,2.448-12.768,4.43-18.611,7.357c-7.104,3.564-12.914,9.263-15.787,15.256
			c-3.832,8.005-2.012,17.879-7.963,25.364c-3.889,4.888-9.598,9.701-15.373,13.389c-5.662,3.616-7.641,9.159-13.67,12.29
			c-6.291,3.259-2.27,4.027-0.705,8.213c2.18,5.844-3.447,6.791,7.002,8.121c6.146,0.781,11.746,5.506,18.717-3.775
			c1.809-2.409,8.75-0.408,12.406-0.817c3.846-0.431,7.67,0.403,11.525,0.206c3.857-0.192,7.535-1.351,11.369-1.698
			c3.664-0.334,7.033,0.235,10.574,0.593c7.471,0.754,11.188-2.01,17.83-4.319c3.814-1.327,7.936-2.019,11.354-4.015
			c2.896-1.693,4.703-4.195,7.529-5.922c6.4-3.916,13.631,0.251,19.934-2.642c2.939-1.349,4.129-4.035,7.287-5.299
			c3.465-1.389,7.494-1.106,11.158-1.713c6.908-1.146,10.279-6.632,17.168-7.05c3.836-0.234,8.189,1.271,11.814-0.593
			c3.076-1.583,3.328-4.658,5.252-6.811c5.662-6.324,13.348,0.276,20.459-0.892C613.114,487.458,614.022,478.943,621.519,476.836z"
			/>
		<g>
			<g>
				<path fill="#80C343" d="M644.853,440.106c0.021,0.018-22.936,0.636-45.531,5.923c-11.262,2.25-22.053,6.495-31.152,7.578
					c-9.07,1.191-15.164-0.098-15.662-0.042c-2.045-0.343-3.562-0.926-3.396-1.297c0.168-0.371,1.898-0.405,3.869-0.074
					c0.488-0.054,6.318,1.228,15.031,0.147c8.719-0.945,19.592-5.084,31.074-7.266C621.829,440.013,644.956,439.735,644.853,440.106
					z"/>
				<path fill="#A7D384" d="M644.745,440.156c0.043-0.12-23.066,0.502-45.766,5.826c-11.328,2.286-22.164,6.588-31.295,7.58
					c-9.074,1.114-15.164-0.179-15.633-0.167c-1.98-0.334-2.748-0.924-2.688-1.051c0.053-0.133,0.9,0.248,2.859,0.577
					c0.461-0.011,6.461,1.277,15.414,0.202c8.992-0.943,19.854-5.208,31.256-7.469C621.647,440.405,644.815,439.899,644.745,440.156
					z"/>
			</g>
		</g>
		<g>
			<g>
				<path fill="#80C343" d="M615.554,474.643c-0.186,0.24-3.377-3.596-11.514-5.213c-8.023-1.798-19.545-0.508-30.996,0.207
					c-11.48,0.481-23.062,0.506-31.701-0.656c-8.645-1.123-14.088-3.122-14.523-3.287c-1.855-0.658-3.143-1.469-2.873-1.808
					c0.27-0.337,1.939-0.096,3.729,0.541c0.426,0.161,5.658,2.13,14.082,3.299c8.398,1.208,19.906,1.288,31.311,0.933
					c11.33-0.576,23.064-1.748,31.217,0.253C612.556,470.744,615.571,474.775,615.554,474.643z"/>
				<path fill="#A7D384" d="M615.437,474.623c-0.113,0.201-3.301-3.687-11.516-5.305c-8.107-1.805-19.709-0.469-31.195,0.22
					c-11.523,0.467-23.15,0.479-31.801-0.71c-8.67-1.137-14.053-3.236-14.49-3.371c-1.803-0.639-2.363-1.341-2.266-1.457
					c0.09-0.116,0.787,0.389,2.568,1.021c0.43,0.132,5.74,2.224,14.334,3.373c8.566,1.206,20.168,1.23,31.664,0.81
					c11.445-0.646,23.119-1.94,31.27-0.065C612.269,470.833,615.397,474.787,615.437,474.623z"/>
			</g>
		</g>
		<g>
			<g>
				<path fill="#80C343" d="M626.073,392.076c0.115,0.121-5.434,2.874-12.334,8.292c-7.041,5.29-15.117,13.34-25.176,20.17
					c-10.189,6.78-22.355,11.312-29.789,16.525c-7.742,5.029-10.248,10.024-10.461,10.37c-0.902,1.602-1.826,2.901-2.414,2.817
					c-0.508-0.067-0.428-1.602,0.545-3.34c0.203-0.362,3.059-5.758,11.154-10.895c7.777-5.325,20.021-9.759,30.064-16.278
					c10-6.608,18.283-14.583,25.535-19.782C620.317,394.624,626.054,392.016,626.073,392.076z"/>
				<path fill="#A7D384" d="M626.013,392.17c0.072,0.06-5.539,2.801-12.496,8.242c-7.094,5.312-15.223,13.398-25.336,20.222
					c-10.266,6.734-22.471,11.309-29.896,16.606c-7.748,5.117-10.061,10.229-10.326,10.54c-0.768,1.591-1.715,2.278-1.916,2.251
					c-0.176-0.029,0.471-0.786,1.266-2.421c0.26-0.317,2.688-5.569,10.564-10.727c7.549-5.342,19.783-9.883,29.994-16.527
					c10.092-6.748,18.297-14.807,25.461-20.087C620.362,394.859,626.04,392.167,626.013,392.17z"/>
			</g>
		</g>
		<g>
			<g>
				<path fill="#80C343" d="M576.706,401.792c0.26,0.169-18.082,10.31-31.799,24.005c-14.436,13.438-20.875,30.1-20.863,30.773
					c-0.531,1.459-1.342,2.596-1.811,2.536c-0.465-0.057-0.406-1.313,0.139-2.803c-0.018-0.685,6.762-17.627,21.584-31.044
					C558.062,411.568,576.704,401.676,576.706,401.792z"/>
				<path fill="#A7D384" d="M576.661,401.872c0.176,0.073-18.303,10.253-32.062,24.049c-14.479,13.545-20.836,30.326-20.789,30.979
					c-0.516,1.422-1.311,2.037-1.467,2.015c-0.162-0.02,0.365-0.675,0.887-2.104c-0.047-0.659,6.428-17.54,21.037-31.073
					C558.167,411.939,576.747,401.847,576.661,401.872z"/>
			</g>
		</g>
		<g>
			<g>
				<path fill="#80C343" d="M522.618,417.342c-0.139-0.099,2.111,3.421-0.719,8.622c-2.557,5.158-9.832,10.405-13.988,16.786
					c-4.078,6.519-4.273,13.734-5.156,19.103c-0.717,5.432-2.25,9.159-2.393,9.465c-0.541,1.269-1.395,2.195-1.752,2.094
					c-0.387-0.106-0.17-1.146,0.344-2.355c0.143-0.3,1.66-3.857,2.451-9.244c0.953-5.308,1.244-12.666,5.566-19.349
					c4.469-6.595,11.75-11.635,14.4-16.642C524.29,420.825,522.298,417.312,522.618,417.342z"/>
				<path fill="#A7D384" d="M522.685,417.39c-0.203-0.084,1.994,3.471-0.916,8.65c-2.621,5.148-9.953,10.388-14.084,16.854
					c-4.039,6.598-4.18,13.849-5.08,19.238c-0.717,5.452-2.338,9.172-2.449,9.473c-0.578,1.219-1.311,1.688-1.436,1.654
					c-0.135-0.036,0.379-0.549,0.947-1.751c0.113-0.298,1.729-3.954,2.467-9.392c0.926-5.366,1.105-12.667,5.223-19.319
					c4.244-6.544,11.576-11.709,14.23-16.807C524.526,420.882,522.417,417.332,522.685,417.39z"/>
			</g>
		</g>
		<g>
			<g>
				<path fill="#80C343" d="M485.739,453.958c-0.197-0.132-5.51,5.637-6.988,12.429c-2.012,6.646-1.766,13.437-1.684,13.713
					c0.045,0.597-0.078,1.101-0.271,1.121c-0.195,0.027-0.389-0.448-0.43-1.061c-0.086-0.285-0.254-7.148,1.898-13.83
					C479.876,459.5,485.419,453.71,485.739,453.958z"/>
				<path fill="#A7D384" d="M485.728,453.993c-0.246-0.171-5.586,5.651-7.064,12.48c-2.004,6.684-1.723,13.507-1.631,13.771
					c0.045,0.583-0.16,0.891-0.227,0.898c-0.066,0.01,0.027-0.288-0.016-0.873c-0.094-0.271-0.348-7.119,1.707-13.814
					C480.021,459.616,485.437,453.781,485.728,453.993z"/>
			</g>
		</g>
		<g>
			<g>
				<path fill="#80C343" d="M649.138,425.98c0.102,0.219-10.811,2.91-21.332,6.611c-10.928,3.454-18.662,10.55-18.568,11.01
					c-0.58,0.655-1.221,1.118-1.436,1.034c-0.211-0.086,0.102-0.709,0.707-1.393c0.137-0.165,1.891-2.19,5.289-4.506
					c3.395-2.32,8.451-4.76,13.77-6.579C638.228,428.543,649.155,426.028,649.138,425.98z"/>
				<path fill="#A7D384" d="M649.101,426.017c0.08,0.162-10.898,2.842-21.471,6.576c-5.283,1.875-10.236,4.364-13.518,6.672
					c-3.301,2.312-4.92,4.322-5.062,4.47c-0.564,0.641-1.082,0.848-1.154,0.819c-0.072-0.031,0.334-0.294,0.902-0.943
					c0.145-0.146,1.785-2.178,5.125-4.503c3.322-2.319,8.318-4.806,13.625-6.664C638.169,428.737,649.147,426.122,649.101,426.017z"
					/>
			</g>
		</g>
		<g>
			<g>
				<path fill="#80C343" d="M635.017,452.278c0.031-0.004-8.078,0.417-15.83-1.073c-7.816-1.397-14.357-4.982-14.637-5.094
					c-0.592-0.297-0.982-0.627-0.869-0.737c0.111-0.115,0.672,0.032,1.262,0.326c0.277,0.114,6.693,3.701,14.389,5.171
					C626.964,452.435,635.058,452.141,635.017,452.278z"/>
				<path fill="#A7D384" d="M634.983,452.295c0.029-0.049-8.111,0.356-15.887-1.148c-7.836-1.429-14.393-5.025-14.66-5.136
					c-0.572-0.285-0.727-0.555-0.689-0.591c0.039-0.041,0.248,0.162,0.824,0.451c0.273,0.106,6.783,3.707,14.576,5.16
					C626.88,452.562,635.017,452.199,634.983,452.295z"/>
			</g>
		</g>
		<g>
			<g>
				<path fill="#80C343" d="M632.841,396.96c0.002-0.007-6.262,4.646-13.49,8.52c-7.168,4.105-16.004,5.688-16.375,5.582
					c-0.775,0.102-1.416,0.066-1.426-0.074c-0.004-0.14,0.6-0.332,1.359-0.43c0.357,0.1,9-1.373,16.195-5.373
					C626.341,401.412,632.733,396.849,632.841,396.96z"/>
				<path fill="#A7D384" d="M632.827,396.992c-0.037-0.042-6.342,4.626-13.611,8.507c-7.197,4.107-16.072,5.672-16.426,5.555
					c-0.758,0.1-1.135-0.019-1.137-0.065c-0.002-0.052,0.363-0.012,1.113-0.11c0.354,0.116,9.154-1.408,16.365-5.481
					C626.403,401.553,632.751,396.914,632.827,396.992z"/>
			</g>
		</g>
		<g>
			<g>
				<path fill="#80C343" d="M603.915,393.948c0.057,0.083-2.037,0.635-4.469,2.278c-2.463,1.618-4.84,4.48-6.035,7.607
					c-2.566,6.282-1.486,12.807-1.494,13.047c0.068,0.568-0.023,1.056-0.207,1.084c-0.184,0.026-0.395-0.423-0.467-1.001
					c0.01-0.247-1.012-6.853,1.711-13.215c1.277-3.166,3.766-6.067,6.326-7.666C601.81,394.457,603.944,393.967,603.915,393.948z"/>
				<path fill="#A7D384" d="M603.888,393.977c0.043,0.06-2.062,0.602-4.512,2.261c-2.492,1.627-4.859,4.525-6.055,7.674
					c-2.549,6.33-1.428,12.879-1.43,13.109c0.068,0.557-0.113,0.855-0.178,0.865s0.016-0.276-0.055-0.834
					c0.002-0.237-1.1-6.812,1.508-13.173c1.217-3.158,3.627-6.069,6.15-7.692C601.8,394.535,603.923,394.015,603.888,393.977z"/>
			</g>
		</g>
		<g>
			<g>
				<path fill="#80C343" d="M656.321,416.73c-1.084-3.658-62.48,21.583-65.631,17.189c-1.559,0.013-2.783-0.204-2.73-0.485
					c0.053-0.282,1.307-0.521,2.801-0.532C593.165,437.395,655.091,412.554,656.321,416.73z"/>
				<path fill="#A7D384" d="M656.247,416.771c-1.115-3.828-62.846,21.663-65.918,17.086c-1.516,0.012-2.186-0.309-2.168-0.402
					c0.01-0.099,0.703,0.062,2.195,0.05C593.169,438.116,655.081,412.765,656.247,416.771z"/>
			</g>
		</g>
		<g>
			<g>
				<path fill="#80C343" d="M649.915,411.089c0.049,0.068-7.986,1.893-14.818,5.799c-6.865,3.766-13.236,8.191-13.598,8.314
					c-0.592,0.374-1.162,0.596-1.268,0.492c-0.107-0.105,0.285-0.491,0.879-0.865c0.357-0.119,6.764-4.498,13.734-8.223
					C641.808,412.742,649.94,411.025,649.915,411.089z"/>
				<path fill="#A7D384" d="M649.884,411.116c0.041,0.021-8.049,1.856-14.918,5.79c-6.885,3.801-13.277,8.243-13.631,8.361
					c-0.574,0.365-0.98,0.422-1.02,0.387c-0.037-0.037,0.307-0.15,0.883-0.518c0.352-0.117,6.76-4.543,13.68-8.326
					C641.794,412.888,649.915,411.089,649.884,411.116z"/>
			</g>
		</g>
		<g>
			<g>
				<path fill="#80C343" d="M643.036,401.995c0.016-0.019-8.396,2.12-15.721,6.13c-7.588,3.73-13.369,9.139-13.428,9.448
					c-0.459,0.497-0.957,0.846-1.115,0.776c-0.158-0.066,0.094-0.544,0.561-1.062c0.076-0.33,6.035-5.798,13.727-9.463
					C634.503,403.864,643.028,401.833,643.036,401.995z"/>
				<path fill="#A7D384" d="M643.007,402.021c0.002-0.071-8.465,2.086-15.826,6.123c-7.621,3.758-13.402,9.221-13.438,9.527
					c-0.445,0.485-0.842,0.641-0.902,0.617c-0.055-0.024,0.262-0.223,0.709-0.715c0.041-0.314,5.885-5.797,13.543-9.533
					C634.497,404.019,642.995,401.9,643.007,402.021z"/>
			</g>
		</g>
		<g>
			<g>
				<path fill="#80C343" d="M588.831,395.218c0.123,0.081-3.146,2.79-7.047,7.412c-3.982,4.563-8.473,11.117-14.945,16.798
					c-6.402,5.738-14.689,10.012-20.756,13.277c-6.146,3.227-10.213,5.582-10.539,5.809c-1.379,0.82-2.705,1.295-2.957,1.062
					c-0.246-0.234,0.688-1.104,2.1-1.939c0.326-0.229,4.484-2.6,10.672-5.777c6.111-3.223,14.326-7.365,20.707-12.936
					c6.451-5.5,11.094-12.002,15.242-16.518C585.378,397.826,588.812,395.193,588.831,395.218z"/>
				<path fill="#A7D384" d="M588.813,395.292c0.072,0.043-3.242,2.754-7.18,7.397c-4.02,4.584-8.553,11.16-15.066,16.841
					c-6.473,5.711-14.766,10.001-20.861,13.276c-6.184,3.234-10.225,5.635-10.547,5.849c-1.342,0.796-2.281,0.91-2.367,0.829
					c-0.088-0.08,0.717-0.33,2.066-1.134c0.322-0.216,4.402-2.622,10.594-5.837c6.113-3.26,14.385-7.506,20.852-13.162
					c6.508-5.616,11.09-12.172,15.166-16.74C585.464,397.981,588.839,395.298,588.813,395.292z"/>
			</g>
		</g>
		<g>
			<g>
				<path fill="#80C343" d="M586.425,412.788c0.041,0.026-5.924,4.007-12.676,7.266c-6.701,3.322-14.041,5.856-14.357,5.976
					c-0.652,0.23-1.23,0.324-1.289,0.207s0.414-0.396,1.064-0.627c0.318-0.119,7.645-2.593,14.367-5.83
					C580.312,416.606,586.358,412.72,586.425,412.788z"/>
				<path fill="#A7D384" d="M586.407,412.816c0.01-0.004-5.996,3.985-12.777,7.252c-6.732,3.328-14.1,5.873-14.406,5.984
					c-0.633,0.229-1.016,0.201-1.027,0.162c-0.025-0.041,0.318-0.081,0.947-0.305c0.311-0.115,7.672-2.643,14.412-5.938
					C580.351,416.734,586.382,412.781,586.407,412.816z"/>
			</g>
		</g>
		<g>
			<g>
				<path fill="#80C343" d="M552.132,399.771c-0.068-0.078-8.893,7.801-13.018,17.525c-2.695,4.685-2.59,9.705-3.271,13.512
					c-0.506,3.83-1.939,6.448-2.148,6.641c-0.512,0.89-1.393,1.417-1.572,1.303c-0.258-0.144,0.18-0.788,0.643-1.598
					c0.184-0.164,1.566-2.588,2.127-6.382c0.719-3.716,0.715-8.902,3.539-13.638C542.763,407.378,551.884,399.525,552.132,399.771z"
					/>
				<path fill="#A7D384" d="M552.116,399.821c-0.137-0.134-9.021,7.809-13.143,17.586c-2.711,4.718-2.527,9.787-3.24,13.596
					c-0.52,3.846-2.008,6.452-2.227,6.632c-0.559,0.839-1.229,1.057-1.281,1.021c-0.105-0.048,0.424-0.315,0.961-1.13
					c0.209-0.168,1.68-2.703,2.215-6.536c0.729-3.78,0.58-8.899,3.332-13.639C542.931,407.564,551.919,399.628,552.116,399.821z"/>
			</g>
		</g>
		<g>
			<g>
				<path fill="#80C343" d="M529.638,420.611c-0.082-0.049-0.713,7.199-5.066,13.912c-2.109,3.363-5.852,6.173-9.246,7.47
					c-3.41,1.322-6.029,1.465-6.217,1.522c-0.871,0.105-1.578,0.062-1.58-0.093c-0.002-0.157,0.676-0.367,1.51-0.468
					c0.188-0.057,2.723-0.178,6.006-1.424c3.27-1.221,6.922-3.886,9.061-7.17C528.511,427.806,529.358,420.542,529.638,420.611z"/>
				<path fill="#A7D384" d="M529.653,420.644c-0.15-0.055-0.797,7.234-5.199,13.954c-2.141,3.354-5.902,6.174-9.332,7.419
					c-3.424,1.302-6.041,1.436-6.225,1.488c-0.844,0.1-1.254-0.032-1.256-0.085c-0.004-0.056,0.4-0.01,1.23-0.109
					c0.188-0.053,2.779-0.179,6.156-1.453c3.385-1.222,7.111-3.988,9.266-7.316C528.714,427.875,529.437,420.582,529.653,420.644z"
					/>
			</g>
		</g>
		<g>
			<g>
				<path fill="#80C343" d="M507.833,425.076c-0.02-0.014-0.092,1.592-1.318,3.831c-1.125,2.253-3.691,4.97-4.678,8.048
					c-2.008,6.273,2.148,12.162,1.723,12.458c0.184,0.546,0.189,1.02,0.008,1.062c-0.178,0.041-0.471-0.363-0.645-0.903
					c0.447-0.269-3.701-6.198-1.541-12.679c1.094-3.17,3.717-5.836,4.896-8.049C507.562,426.65,507.722,425.068,507.833,425.076z"/>
				<path fill="#A7D384" d="M507.851,425.104c-0.047-0.012-0.148,1.599-1.4,3.839c-1.135,2.252-3.742,4.979-4.695,8.088
					c-1.947,6.333,2.246,12.23,1.809,12.521c0.176,0.529,0.055,0.833-0.006,0.847c-0.066,0.016-0.041-0.265-0.217-0.792
					c0.445-0.283-3.744-6.194-1.74-12.596c0.988-3.145,3.613-5.85,4.77-8.092C507.644,426.695,507.772,425.093,507.851,425.104z"/>
			</g>
		</g>
		<g>
			<g>
				<path fill="#80C343" d="M609.526,436.655c0.105,0.228-10.449,3.037-21.002,5.995c-10.744,2.937-19.027,9.354-19.256,9.656
					c-0.721,0.553-1.445,0.908-1.619,0.787c-0.174-0.119,0.283-0.673,1.025-1.238c0.203-0.296,8.766-6.794,19.662-9.642
					C599.001,439.351,609.534,436.717,609.526,436.655z"/>
				<path fill="#A7D384" d="M609.489,436.689c0.076,0.177-10.529,2.969-21.131,5.953c-10.799,2.979-19.088,9.477-19.297,9.767
					c-0.707,0.54-1.242,0.663-1.305,0.621c-0.057-0.04,0.385-0.231,1.094-0.778c0.203-0.287,8.592-6.814,19.441-9.76
					C598.935,439.541,609.534,436.809,609.489,436.689z"/>
			</g>
		</g>
		<g>
			<g>
				<path fill="#80C343" d="M634.499,462.204c0.035-0.162-13.361-0.45-26.738-1.773c-6.658-0.722-13.324-1.882-17.846-3.792
					c-4.727-1.822-5.977-4.875-5.893-5.081c-0.354-0.965,0.076-1.804,0.305-1.79c0.365-0.006,0.439,0.729,0.752,1.538
					c-0.051,0.172,0.885,2.845,5.375,4.666c4.309,1.874,10.885,3.1,17.477,3.884C621.188,461.321,634.604,461.816,634.499,462.204z"
					/>
				<path fill="#A7D384" d="M634.435,462.226c0.057-0.235-13.416-0.541-26.842-1.885c-6.672-0.74-13.379-1.893-17.863-3.86
					c-4.701-1.869-5.84-4.968-5.705-5.168c-0.24-0.943,0.227-1.431,0.287-1.425c0.146-0.008-0.148,0.454,0.084,1.349
					c-0.123,0.189,0.91,3.148,5.523,5.014c4.412,1.954,11.084,3.126,17.732,3.893C621.036,461.534,634.515,461.911,634.435,462.226z
					"/>
			</g>
		</g>
		<g>
			<g>
				<path fill="#80C343" d="M612.534,479.19c0.08,0.188-12.174,1.436-23.867-0.75c-11.922-1.656-21.896-7.018-22.072-7.44
					c-0.814-0.537-1.318-1.09-1.123-1.24c0.193-0.148,0.986,0.147,1.773,0.662c0.158,0.4,9.834,5.729,21.621,7.514
					C600.401,480.233,612.573,479.181,612.534,479.19z"/>
				<path fill="#A7D384" d="M612.483,479.216c0.066,0.128-12.23,1.353-23.959-0.864c-11.955-1.685-21.936-7.085-22.088-7.517
					c-0.783-0.519-0.943-0.942-0.873-0.994c0.064-0.053,0.324,0.283,1.104,0.795c0.145,0.426,10.018,5.816,21.932,7.542
					C600.269,480.435,612.538,479.273,612.483,479.216z"/>
			</g>
		</g>
		<g>
			<g>
				<path fill="#80C343" d="M625.509,468.532c-0.111,0.311-11.793-2.431-24.014-3.839c-6.117-0.683-12.496-0.549-17.139,0.506
					c-4.658,1.042-7.361,2.705-7.547,2.84c-0.902,0.537-1.785,0.855-1.971,0.707c-0.18-0.146,0.447-0.73,1.406-1.303
					c0.199-0.139,3.074-1.877,7.92-2.914c4.834-1.058,11.336-1.126,17.477-0.367C613.935,465.717,625.464,468.633,625.509,468.532z"
					/>
				<path fill="#A7D384" d="M625.446,468.549c-0.088,0.244-11.805-2.54-24.107-3.938c-6.152-0.683-12.58-0.504-17.244,0.583
					c-4.691,1.07-7.338,2.823-7.539,2.937c-0.883,0.525-1.516,0.605-1.58,0.555c-0.057-0.054,0.48-0.223,1.379-0.758
					c0.203-0.115,2.91-1.896,7.672-2.964c4.732-1.09,11.203-1.244,17.363-0.536C613.716,465.875,625.38,468.723,625.446,468.549z"/>
			</g>
		</g>
		<g>
			<g>
				<path fill="#80C343" d="M575.647,490.899c-0.016,0.097-5.832,0.041-14.549-0.226c-8.705-0.268-20.375-0.589-32.109,0.537
					c-11.932,1.122-23.752-0.071-32.568-0.955c-8.84-0.938-14.943-1.309-15.477-1.31c-2.096-0.116-3.75-0.528-3.689-0.923
					c0.064-0.389,1.842-0.613,3.977-0.497c0.533,0.003,6.738,0.421,15.555,1.43c8.805,0.955,20.416,2.232,32.148,1.257
					c11.877-1.009,23.584-0.528,32.26-0.094C569.88,490.558,575.657,490.799,575.647,490.899z"/>
				<path fill="#A7D384" d="M575.536,490.947c-0.006,0.031-5.844-0.065-14.598-0.362c-8.74-0.296-20.48-0.611-32.283,0.536
					c-11.971,1.077-23.814-0.129-32.666-1.02c-8.871-0.948-15.016-1.262-15.529-1.273c-2.037-0.113-2.951-0.623-2.926-0.76
					c0.018-0.135,0.973,0.152,3.027,0.268c0.514,0.012,6.689,0.345,15.555,1.318c8.846,0.913,20.625,2.144,32.52,1.118
					c11.85-1.102,23.605-0.733,32.338-0.38C569.718,490.748,575.54,490.906,575.536,490.947z"/>
			</g>
		</g>
		<g>
			<g>
				<path fill="#80C343" d="M547.757,502.354c0.094,0.176-10.514,0.87-19.799-2.37c-9.355-2.887-17.139-7.859-17.496-8.023
					c-0.705-0.427-1.152-0.884-1-1.02c0.15-0.137,0.84,0.098,1.537,0.524c0.361,0.161,8.021,5.154,17.219,8.113
					C537.327,502.89,547.823,502.357,547.757,502.354z"/>
				<path fill="#A7D384" d="M547.714,502.379c0.086,0.117-10.555,0.793-19.85-2.484c-9.381-2.915-17.186-7.905-17.533-8.067
					c-0.688-0.415-0.844-0.773-0.791-0.818c0.053-0.048,0.291,0.232,0.977,0.646c0.344,0.161,8.115,5.154,17.434,8.101
					C537.19,503.051,547.788,502.439,547.714,502.379z"/>
			</g>
		</g>
		<g>
			<g>
				<path fill="#80C343" d="M577.519,483.168c0.084-0.077-16.996-3.024-34.867-1.327c-8.861,0.624-17.734,2.203-24.152,4.171
					c-6.422,1.963-10.318,4.148-10.559,4.388c-1.262,0.78-2.494,1.242-2.756,1.035c-0.262-0.204,0.611-1.04,1.949-1.865
					c0.266-0.262,4.377-2.521,10.973-4.475c6.592-1.963,15.586-3.477,24.529-4.009C560.657,479.572,577.761,482.811,577.519,483.168
					z"/>
				<path fill="#A7D384" d="M577.429,483.186c0.137-0.179-17.061-3.135-35.023-1.415c-8.92,0.637-17.836,2.268-24.271,4.267
					c-6.461,1.996-10.305,4.271-10.547,4.496c-1.227,0.759-2.121,0.885-2.211,0.813c-0.086-0.075,0.672-0.323,1.924-1.099
					c0.254-0.227,4.172-2.535,10.695-4.526c6.5-2,15.459-3.61,24.402-4.214C560.417,479.852,577.618,482.91,577.429,483.186z"/>
			</g>
		</g>
		<g>
			<g>
				<path fill="#80C343" d="M563.042,497.458c0.021,0.051-6.951,0.083-13.375-1.689c-6.43-1.652-12.547-3.918-12.863-3.945
					c-0.557-0.183-0.957-0.421-0.889-0.525c0.064-0.107,0.576-0.046,1.139,0.138c0.318,0.03,6.416,2.34,12.762,4.051
					C556.155,497.32,563.069,497.392,563.042,497.458z"/>
				<path fill="#A7D384" d="M563.011,497.471c0.023,0.014-6.973,0.028-13.42-1.756c-6.445-1.675-12.596-3.933-12.902-3.961
					c-0.549-0.179-0.73-0.389-0.705-0.426c0.025-0.034,0.242,0.113,0.789,0.294c0.311,0.026,6.455,2.3,12.873,3.994
					C556.063,497.42,563.036,497.444,563.011,497.471z"/>
			</g>
		</g>
		<g>
			<g>
				<path fill="#80C343" d="M510.028,511.365c0.02,0.083-16.232,1.878-32.631,1.662c-16.418-0.058-32.592-2.271-33.301-2.35
					c-1.449-0.183-2.551-0.55-2.461-0.817c0.094-0.268,1.336-0.338,2.775-0.157c0.713,0.076,16.758,2.388,33.076,2.625
					C493.782,512.721,510.028,511.177,510.028,511.365z"/>
				<path fill="#A7D384" d="M509.954,511.405c0.016-0.005-16.311,1.769-32.775,1.539c-16.48-0.082-32.715-2.299-33.408-2.371
					c-1.408-0.18-1.984-0.575-1.951-0.668c0.035-0.094,0.656,0.152,2.062,0.329c0.691,0.073,16.885,2.324,33.33,2.469
					C493.636,512.99,509.966,511.303,509.954,511.405z"/>
			</g>
		</g>
		<g>
			<g>
				<path fill="#80C343" d="M500.278,516.482c0.053,0.087-6.16,0.967-12.096-0.194c-5.93-0.97-11.494-2.815-11.75-2.864
					c-0.506-0.154-0.865-0.354-0.803-0.45c0.057-0.096,0.51-0.048,1.014,0.105c0.258,0.05,5.777,1.928,11.637,2.955
					C494.144,517.248,500.296,516.469,500.278,516.482z"/>
				<path fill="#A7D384" d="M500.259,516.496c0.041,0.058-6.191,0.92-12.15-0.251c-5.945-0.986-11.531-2.832-11.783-2.878
					c-0.49-0.15-0.66-0.334-0.635-0.366c0.018-0.032,0.219,0.097,0.705,0.247c0.256,0.043,5.828,1.899,11.748,2.91
					C494.077,517.345,500.284,516.519,500.259,516.496z"/>
			</g>
		</g>
		<g>
			<g>
				<path fill="#80C343" d="M526.255,507.31c0.098-0.14-13.736-2.99-28.445-2.071c-7.287,0.269-14.627,1.254-20.002,2.614
					c-5.393,1.34-8.73,2.972-8.949,3.153c-1.078,0.588-2.119,0.921-2.318,0.741c-0.201-0.179,0.57-0.834,1.723-1.465
					c0.24-0.194,3.762-1.88,9.289-3.205c5.514-1.344,12.941-2.271,20.277-2.464C512.647,503.848,526.507,506.947,526.255,507.31z"/>
				<path fill="#A7D384" d="M526.179,507.324c0.152-0.223-13.781-3.086-28.57-2.152c-7.326,0.276-14.705,1.307-20.107,2.689
					c-5.412,1.377-8.74,3.053-8.941,3.241c-1.051,0.573-1.789,0.641-1.857,0.58c-0.066-0.064,0.568-0.243,1.643-0.827
					c0.213-0.193,3.607-1.894,9.07-3.263c5.447-1.379,12.855-2.387,20.201-2.637C512.44,504.074,526.386,507.022,526.179,507.324z"
					/>
			</g>
		</g>
		<g>
			<g>
				<path fill="#80C343" d="M478.253,453.304c-0.039-0.053-9.246,7.336-14.395,16.67c-5.162,9.215-12.037,18.119-12.752,18.342
					c-0.725,0.749-1.488,1.252-1.703,1.127c-0.217-0.125,0.182-0.819,0.891-1.554c0.689-0.208,7.547-8.904,12.92-18.123
					C468.556,460.428,478.048,453.077,478.253,453.304z"/>
				<path fill="#A7D384" d="M478.237,453.354c-0.105-0.114-9.371,7.336-14.535,16.722c-5.178,9.269-12.104,18.185-12.818,18.391
					c-0.703,0.728-1.295,0.933-1.371,0.888c-0.076-0.04,0.391-0.315,1.088-1.036c0.709-0.201,7.627-9.045,12.877-18.313
					C468.708,460.618,478.075,453.181,478.237,453.354z"/>
			</g>
		</g>
		<g>
			<g>
				<path fill="#80C343" d="M493.013,452.263c0.105-0.012-1.711,4.326-5.795,7.775c-3.947,3.437-7.512,7.09-7.529,7.326
					c-0.293,0.342-0.619,0.582-0.727,0.54c-0.109-0.041,0.045-0.359,0.344-0.707c0.016-0.241,3.682-3.933,7.672-7.308
					C491.087,456.504,492.987,452.245,493.013,452.263z"/>
				<path fill="#A7D384" d="M493.019,452.285c0.066-0.014-1.777,4.324-5.879,7.785c-3.98,3.442-7.531,7.139-7.547,7.366
					c-0.281,0.333-0.547,0.441-0.584,0.426c-0.039-0.014,0.166-0.149,0.453-0.482c0.016-0.23,3.604-3.939,7.592-7.361
					C491.165,456.581,493.04,452.267,493.019,452.285z"/>
			</g>
		</g>
		
			<radialGradient id="SVGID_3_" cx="561.877" cy="675.6006" r="258.6866" gradientTransform="matrix(0.3984 0.6436 -0.8824 0.3529 968.5862 -13.7329)" gradientUnits="userSpaceOnUse">
			<stop  offset="0.5618" style="stop-color:#54AC47"/>
			<stop  offset="0.615" style="stop-color:#59AE47"/>
			<stop  offset="0.6705" style="stop-color:#67B34A"/>
			<stop  offset="0.7271" style="stop-color:#7DBB51"/>
			<stop  offset="0.784" style="stop-color:#98C95C"/>
			<stop  offset="0.7978" style="stop-color:#A0CE60"/>
		</radialGradient>
		<path fill="url(#SVGID_3_)" d="M416.138,506.139c6.328-5.527,14.984-8.691,23.336-12.073
			c15.893-6.431,54.215-23.036,57.783-24.623c5.168-2.297,56.205-25.223,63.873-28.18c7.369-2.841,40.908-17.786,50.693-21.715
			c3.986-1.598,20.348-6.584,25.043-7.126c-7.148,0.858-36.684,16.394-40.305,18.183c-15.471,7.626-31.336,15.148-47.322,22.225
			c-18.393,8.145-62.451,31.081-97.588,53.026c-12.799,7.991-17.789,17.146-19.826,21.353c-2.658,5.493-1.533,9.645-10.221,11.256
			c-6.488,1.206-15.232-0.644-19.309-4.322c-5.238-4.72-3.742-10.545,0.52-16.04C402.815,518.102,407.081,514.057,416.138,506.139z"
			/>
	</g>
	<g>
		
			<radialGradient id="SVGID_4_" cx="782.7559" cy="306.9731" r="149.2255" gradientTransform="matrix(0.0501 0.2504 -1.1275 0.1096 806.5835 303.7007)" gradientUnits="userSpaceOnUse">
			<stop  offset="0.0169" style="stop-color:#90C740"/>
			<stop  offset="0.5618" style="stop-color:#54AC47"/>
			<stop  offset="0.648" style="stop-color:#59AE48"/>
			<stop  offset="0.7379" style="stop-color:#67B34C"/>
			<stop  offset="0.8294" style="stop-color:#7CBB55"/>
			<stop  offset="0.9215" style="stop-color:#97C966"/>
			<stop  offset="0.9438" style="stop-color:#9FCE6C"/>
		</radialGradient>
		<path fill="url(#SVGID_4_)" d="M587.95,548.14c3.582,0.971,6.287,3.828,10.133,4.145c4.844,0.39,7.828-2.622,11.115-3.865
			c2.322-0.847,5.201-1.106,7.924-1.271c2.963-0.183,6.475,0.979,9.025,1.112c2.199,0.113,3.955-0.3,5.107-1.419
			c1.188-1.265,2.18-4.211,2.617-9.006c0.236-2.601,0.738-6.046,0.697-10.208c-0.055-4.627,1.02-21.662-9.236-25.531
			c-3.074-1.426-5.539-1.742-8.199-2.556c-3.02-0.956-5.615-0.264-9.791-0.953c-3.215-0.569-4.619-2.221-8.348-2.76
			c-3.164-0.444-5.842,0.032-8.9-0.541c-3.426-0.656-6.207-0.226-9.861,0.714c-2.705,0.742-5.299,0.307-8.025,0.637
			c-3.361,0.345-5.982,1.98-9.133,1.921c-3.254-0.129-5.271-0.027-8.125,1.737c-1.289-0.536-2.67-0.435-4.361-0.162
			c-2.09,0.36-2.518,0.656-4.34,1.602c-2.637,1.403-5.434,2.795-8.814,3.474c-3.025,0.579-6.166,0.464-9.123,1.045
			c-3.631,0.716-7.236,1.538-10.725,2.998c-4.227,1.754-8.346,5.08-11.381,8.588c-4.344,5.036-7.768,10.617-14.426,15.531
			c-4.098,2.971-7.363,6.378-9.975,9.15c-2.645,2.876-4.561,6.658-8.633,9.823c-5.199,3.917-3.48,3.584-2.904,6.382
			c0.674,3.803-1.102,5.683,2.818,4.166c2.553-0.948,3.848,0.941,9.973-5.858c1.58-1.688,4.473-1.041,6.336-1.481
			c1.904-0.45,3.465-0.068,5.227-0.323c1.744-0.199,3.609-0.999,5.348-1.277c1.662-0.25,2.963,0.038,4.387,0.248
			c3.031,0.426,5.371-1.049,8.91-2.1c2.041-0.599,4.057-0.788,6.133-1.681c1.766-0.761,3.275-2.004,5.045-2.718
			c4.014-1.63,6.105,1.22,9.838,0.391c1.752-0.408,3.102-1.656,4.943-1.939c2.031-0.306,3.83,0.355,5.732,0.558
			c3.615,0.369,6.906-1.873,10.32-0.919c1.918,0.538,3.533,2.051,5.877,1.836c1.992-0.198,3.1-1.646,4.734-2.302
			c4.828-1.91,6.486,2.957,10.361,4.161C580.171,550.634,583.478,546.954,587.95,548.14z"/>
		
			<radialGradient id="SVGID_5_" cx="1232.1943" cy="208.4038" r="290.6164" gradientTransform="matrix(0.0109 0.6145 -0.9305 0.0166 731.9048 -62.2705)" gradientUnits="userSpaceOnUse">
			<stop  offset="0.5618" style="stop-color:#54AC47"/>
			<stop  offset="0.615" style="stop-color:#59AE48"/>
			<stop  offset="0.6705" style="stop-color:#67B34C"/>
			<stop  offset="0.7271" style="stop-color:#7CBB55"/>
			<stop  offset="0.784" style="stop-color:#97C966"/>
			<stop  offset="0.7978" style="stop-color:#9FCE6C"/>
		</radialGradient>
		<path fill="url(#SVGID_5_)" d="M480.491,543.683c2.992-3.937,7.514-6.566,13.646-8.84c11.359-4.212,33.812-11.915,35.918-12.49
			c1.541-0.41,10.232-1.726,19.178-2.562c8.793-0.796,17.781,0.407,20.176,0.716c4.617,0.619,27.211-3.419,34.064-3.22
			c3.047,0.074,15.533-0.838,18.514-2.227c-2.252,1.221-9.408,3.131-16.611,3.245c-6.762,0.111-12.953,1.251-14.209,1.327
			c-10.576,0.611-21.168,2.636-31.32,1.535c-11.373-1.197-39.041,7.143-61.666,20.431c-8.105,4.894-11.775,11-13.795,13.767
			c-2.721,3.857-3.408,6.096-7.457,8.993c-2.93,2.057-5.637,3.248-7.008,1.823c-1.619-1.898-3.525-7.428,1.357-12.535
			C471.278,553.646,475.64,550.179,480.491,543.683z"/>
	</g>
	<g>
		
			<radialGradient id="SVGID_6_" cx="200.917" cy="399.9497" r="149.3963" gradientTransform="matrix(-0.0877 -0.4023 1.1941 -0.2603 -97.4619 723.522)" gradientUnits="userSpaceOnUse">
			<stop  offset="0.0169" style="stop-color:#90C740"/>
			<stop  offset="0.5618" style="stop-color:#54AC47"/>
			<stop  offset="0.6486" style="stop-color:#59AE46"/>
			<stop  offset="0.7391" style="stop-color:#68B345"/>
			<stop  offset="0.8313" style="stop-color:#7EBB42"/>
			<stop  offset="0.924" style="stop-color:#9BC93D"/>
			<stop  offset="0.9438" style="stop-color:#A2CD3B"/>
		</radialGradient>
		<path fill="url(#SVGID_6_)" d="M249.797,520.868c-4.243-0.185-7.872-3.549-12.204-2.036c-5.361,1.874-7.959,8.558-11.18,12.714
			c-2.264,2.922-5.167,5.45-7.889,7.934c-2.891,2.643-6.623,4.405-9.113,7.455c-2.1,2.562-3.661,6.025-4.395,9.254
			c-1.682,7.377,0.357,13.536,6.818,17.423c-3.476,2.631-6.142,6.401-2.898,10.377c1.466,1.795,3.395,3.006,4.732,4.953
			c1.329,1.934,2.114,3.861,4.369,4.912c4.057,1.886,6.8,0.971,9.932,4.681c3.423,4.054,6.124,2.459,10.651,3.728
			c3.533,0.992,5.377,3.695,9.485,3.535c3.562-0.141,6.492-1.494,10.084-0.629c4.13,0.998,7.33,0.992,11.543,0.689
			c3.153-0.225,6.312,0.568,9.443,0.07c3.942-0.627,6.724-3.494,10.467-4.477c3.986-1.042,6.556-0.939,9.755-3.959
			c1.873,1.178,3.633,1.626,5.798,1.78c2.686,0.195,3.172-0.278,5.182-2.166c2.958-2.786,5.948-5.961,10.016-7.103
			c3.626-1.019,7.661-0.404,11.394-0.754c4.619-0.428,9.404-0.327,13.975-1.259c5.561-1.132,10.925-4.458,14.511-8.843
			c4.791-5.861,6.544-14.872,12.524-19.7c3.908-3.155,8.944-5.747,13.697-7.35c4.659-1.572,7.548-5.815,12.294-6.863
			c4.951-1.094,2.627-2.858,2.867-6.894c0.336-5.635,4.188-4.914-2.053-8.915c-3.668-2.354-5.83-7.954-12.987-1.856
			c-1.857,1.587-5.677-2.036-8.114-2.683c-2.569-0.682-4.752-2.44-7.252-3.326c-2.508-0.889-5.182-0.895-7.715-1.641
			c-2.427-0.713-4.396-2.123-6.537-3.398c-4.518-2.689-7.693-1.323-12.59-1.145c-2.81,0.101-5.629-0.424-8.387,0.361
			c-2.337,0.669-4.218,2.332-6.52,3.051c-5.218,1.628-8.578-3.94-13.428-3.168c-2.263,0.361-3.809,2.353-6.188,2.581
			c-2.607,0.25-5.078-1.093-7.582-1.569c-4.728-0.898-8.48,2.914-12.973,1.392c-2.503-0.851-4.822-3.333-7.672-2.716
			c-2.414,0.525-3.48,3.11-5.338,4.439c-5.453,3.907-8.39-3.887-13.244-4.819C258.261,514.002,255.175,521.096,249.797,520.868z"/>
		
			<radialGradient id="SVGID_7_" cx="848.4482" cy="348.627" r="172.5619" gradientTransform="matrix(-0.0949 -0.9954 0.9954 -0.0949 32.1787 1313.5684)" gradientUnits="userSpaceOnUse">
			<stop  offset="0.5618" style="stop-color:#54AC47"/>
			<stop  offset="0.615" style="stop-color:#59AE48"/>
			<stop  offset="0.6705" style="stop-color:#67B34C"/>
			<stop  offset="0.7271" style="stop-color:#7CBB55"/>
			<stop  offset="0.784" style="stop-color:#97C966"/>
			<stop  offset="0.7978" style="stop-color:#9FCE6C"/>
		</radialGradient>
		<path fill="url(#SVGID_7_)" d="M389.4,554.318c-5.645,3.041-12.07,3.405-18.367,4.042c-11.979,1.204-41.189,5.06-43.918,5.453
			c-3.954,0.567-43.097,6.399-48.834,6.855c-5.511,0.442-31.195,4.167-38.562,4.883c-3.002,0.292-14.853,0.126-17.992-0.693
			c4.788,1.211,28.108-4.122,30.932-4.67c12.066-2.352,24.347-4.509,36.574-6.246c14.068-1.999,48.786-9.748,77.544-19.077
			c10.477-3.397,16.34-9.93,18.868-13.002c3.307-4.008,3.818-7.896,9.806-6.912c4.471,0.729,9.475,4.712,10.984,8.998
			c1.932,5.499-0.736,10.118-5.057,13.691C401.378,547.64,397.476,549.965,389.4,554.318z"/>
	</g>
	<g>
		
			<radialGradient id="SVGID_8_" cx="-387.5557" cy="530.9707" r="224.009" gradientTransform="matrix(-0.1763 0.3721 1.1044 0.5233 -341.5635 397.3774)" gradientUnits="userSpaceOnUse">
			<stop  offset="0.0169" style="stop-color:#90C740"/>
			<stop  offset="0.5618" style="stop-color:#54AC47"/>
		</radialGradient>
		<path fill="url(#SVGID_8_)" d="M142.513,518.718c-6.255-1.168-12.701,2.521-18.515-1.16c-7.197-4.553-8.725-15.194-12.021-22.36
			c-2.316-5.034-5.697-9.71-8.831-14.267c-3.327-4.833-8.182-8.676-10.792-13.97c-2.195-4.455-3.305-10.043-3.285-15.008
			c0.049-11.339,5.118-19.649,15.869-23.136c-4.188-5.021-6.805-11.433-0.721-16.142c2.749-2.125,5.975-3.244,8.59-5.633
			c2.601-2.374,4.396-4.924,8.045-5.691c6.567-1.385,10.263,0.883,16.096-3.476c6.373-4.763,9.781-1.514,16.822-1.842
			c5.493-0.252,9.105-3.572,15.052-1.945c5.153,1.411,8.977,4.385,14.518,4.334c6.366-0.059,11.045,1.036,17.098,2.902
			c4.525,1.396,9.411,1.312,13.812,3.102c5.555,2.247,8.638,7.381,13.773,10.081c5.468,2.873,9.257,3.594,12.904,9.089
			c3.141-1.089,5.864-1.142,9.078-0.636c3.985,0.629,4.54,1.482,6.833,4.918c3.376,5.073,6.669,10.723,12.221,13.773
			c4.96,2.717,11.062,3.186,16.389,4.954c6.604,2.196,13.631,3.672,19.989,6.579c7.734,3.537,14.444,10.213,18.199,17.836
			c5.012,10.178,4.518,23.936,11.618,33.017c4.636,5.93,11.122,11.424,17.52,15.375c6.271,3.877,9.052,11.051,15.629,14.188
			c6.861,3.276,2.87,5.067,1.856,11.04c-1.419,8.345,4.447,8.6-6.022,12.332c-6.158,2.191-11.214,9.643-19.599-1.689
			c-2.179-2.945-8.979,1.051-12.762,1.168c-3.982,0.124-7.766,1.957-11.722,2.399c-3.965,0.448-7.87-0.448-11.829-0.218
			c-3.779,0.222-7.138,1.616-10.697,2.75c-7.511,2.397-11.684-0.672-18.774-2.591c-4.071-1.1-8.367-1.288-12.128-3.37
			c-3.191-1.77-5.373-4.836-8.492-6.666c-7.065-4.146-13.867,2.854-20.687,0.076c-3.186-1.292-4.767-4.725-8.159-5.864
			c-3.729-1.251-7.795-0.125-11.613-0.274c-7.203-0.288-11.396-7.132-18.472-6.43c-3.95,0.391-8.176,3.236-12.132,1.366
			c-3.349-1.582-4.033-5.721-6.294-8.29c-6.646-7.555-13.568,2.833-20.979,2.553C152.552,531.611,150.446,520.201,142.513,518.718z"
			/>
		
			<radialGradient id="SVGID_9_" cx="-392.1211" cy="530.7881" r="224.0131" gradientTransform="matrix(-0.1763 0.3721 1.1044 0.5233 -341.5635 397.3774)" gradientUnits="userSpaceOnUse">
			<stop  offset="0.0169" style="stop-color:#90C740"/>
			<stop  offset="0.5618" style="stop-color:#54AC47"/>
			<stop  offset="0.648" style="stop-color:#59AE48"/>
			<stop  offset="0.7379" style="stop-color:#67B34C"/>
			<stop  offset="0.8294" style="stop-color:#7CBB55"/>
			<stop  offset="0.9215" style="stop-color:#97C966"/>
			<stop  offset="0.9438" style="stop-color:#9FCE6C"/>
		</radialGradient>
		<path fill="url(#SVGID_9_)" d="M143.117,516.922c-6.257-1.164-12.703,2.521-18.515-1.156c-7.2-4.557-8.729-15.196-12.026-22.364
			c-2.314-5.032-5.694-9.707-8.83-14.265c-3.329-4.833-8.182-8.676-10.791-13.97c-2.194-4.455-3.305-10.045-3.282-15.006
			c0.047-11.34,5.115-19.653,15.862-23.138c-4.182-5.022-6.801-11.436-0.717-16.141c2.751-2.125,5.975-3.242,8.591-5.636
			c2.601-2.372,4.396-4.922,8.04-5.691c6.572-1.382,10.266,0.884,16.099-3.475c6.374-4.761,9.779-1.513,16.822-1.84
			c5.493-0.252,9.105-3.572,15.052-1.945c5.157,1.411,8.98,4.383,14.521,4.333c6.364-0.058,11.044,1.035,17.097,2.901
			c4.528,1.398,9.407,1.314,13.812,3.102c5.55,2.25,8.638,7.383,13.772,10.083c5.468,2.874,9.257,3.594,12.904,9.089
			c3.142-1.086,5.861-1.143,9.077-0.637c3.99,0.631,4.54,1.48,6.83,4.919c3.38,5.073,6.672,10.725,12.228,13.771
			c4.953,2.719,11.056,3.185,16.386,4.954c6.605,2.196,13.628,3.674,19.988,6.579c7.735,3.54,14.445,10.218,18.199,17.838
			c5.013,10.178,4.518,23.938,11.618,33.017c4.639,5.931,11.122,11.424,17.519,15.375c6.272,3.876,9.054,11.048,15.633,14.194
			c6.861,3.272,2.868,5.06,1.853,11.036c-1.417,8.345,4.451,8.6-6.021,12.328c-6.158,2.193-11.214,9.646-19.6-1.689
			c-2.18-2.943-8.98,1.053-12.762,1.17c-3.982,0.122-7.766,1.957-11.722,2.399c-3.96,0.448-7.869-0.448-11.825-0.216
			c-3.782,0.22-7.141,1.612-10.699,2.749c-7.512,2.4-11.685-0.673-18.775-2.592c-4.072-1.102-8.367-1.285-12.127-3.371
			c-3.188-1.769-5.375-4.837-8.494-6.665c-7.064-4.146-13.863,2.85-20.687,0.076c-3.182-1.292-4.767-4.726-8.159-5.864
			c-3.726-1.25-7.795-0.125-11.612-0.275c-7.202-0.287-11.395-7.127-18.476-6.428c-3.942,0.388-8.172,3.236-12.127,1.369
			c-3.353-1.586-4.035-5.723-6.293-8.295c-6.646-7.556-13.571,2.832-20.981,2.551C153.15,529.817,151.049,518.407,143.117,516.922z"
			/>
		<g>
			<g>
				<path fill="#80C343" d="M114.26,471.279c-0.019,0.028,23.473-3.353,47.238-0.321c11.791,0.987,23.378,4.772,32.805,4.573
					c9.41-0.049,15.445-2.922,15.961-2.939c2.037-0.842,3.506-1.914,3.285-2.388c-0.224-0.473-1.993-0.201-3.956,0.611
					c-0.505,0.016-6.272,2.83-15.303,2.966c-9.021,0.318-20.678-3.31-32.683-4.163C137.721,466.917,114.103,470.793,114.26,471.279z
					"/>
				<path fill="#A7D384" d="M114.376,471.328c-0.059-0.155,23.586-3.562,47.465-0.497c11.863,1.022,23.504,4.88,32.948,4.55
					c9.405-0.155,15.437-3.033,15.914-3.103c1.975-0.818,2.676-1.763,2.597-1.926c-0.071-0.168-0.884,0.505-2.835,1.312
					c-0.472,0.069-6.412,2.925-15.688,3.109c-9.298,0.372-20.96-3.429-32.896-4.404C137.959,467.417,114.27,470.991,114.376,471.328
					z"/>
			</g>
		</g>
		<g>
			<g>
				<path fill="#80C343" d="M148.895,512.844c0.224,0.291,2.946-5.511,11.019-9.205c7.933-3.921,19.858-4.285,31.629-5.42
					c11.772-1.459,23.582-3.553,32.229-6.724c8.66-3.117,13.934-6.835,14.354-7.139c1.803-1.236,3.002-2.575,2.679-2.986
					c-0.32-0.409-1.99,0.226-3.725,1.422c-0.413,0.295-5.475,3.937-13.902,7.074c-8.396,3.186-20.117,5.411-31.792,7.027
					c-11.632,1.3-23.757,1.865-31.79,6.085C151.415,506.992,148.895,513.026,148.895,512.844z"/>
				<path fill="#A7D384" d="M149.011,512.793c0.143,0.254,2.856-5.617,11.009-9.329c8.016-3.943,20.029-4.264,31.833-5.438
					c11.814-1.485,23.668-3.608,32.324-6.813c8.682-3.142,13.882-6.986,14.31-7.251c1.749-1.199,2.224-2.257,2.106-2.397
					c-0.106-0.143-0.748,0.674-2.477,1.859c-0.419,0.26-5.547,4.078-14.147,7.224c-8.568,3.214-20.394,5.382-32.17,6.923
					c-11.759,1.229-23.84,1.616-31.89,5.663C151.718,507.059,149.075,513.011,149.011,512.793z"/>
			</g>
		</g>
		<g>
			<g>
				<path fill="#80C343" d="M126.781,402.528c-0.1,0.185,5.938,2.908,13.72,9.004c7.908,5.897,17.252,15.355,28.446,22.79
					c11.326,7.344,24.354,11.267,32.65,16.987c8.588,5.414,11.833,11.744,12.097,12.175c1.141,2.012,2.261,3.609,2.849,3.387
					c0.509-0.184,0.217-2.258-1.016-4.441c-0.255-0.455-3.911-7.265-12.873-12.759c-8.665-5.809-21.758-9.585-32.896-16.602
					c-11.108-7.145-20.651-16.462-28.764-22.196C133,404.933,126.793,402.442,126.781,402.528z"/>
				<path fill="#A7D384" d="M126.857,402.645c-0.066,0.094,6.033,2.79,13.875,8.907c7.966,5.918,17.37,15.414,28.62,22.832
					c11.396,7.268,24.47,11.241,32.771,17.079c8.606,5.53,11.666,12.055,11.98,12.429c1.003,2.021,2.063,2.783,2.264,2.708
					c0.176-0.073-0.588-0.984-1.622-3.06c-0.309-0.383-3.509-7.077-12.251-12.64c-8.434-5.871-21.532-9.797-32.858-16.952
					c-11.219-7.315-20.696-16.763-28.729-22.625C132.989,405.26,126.829,402.646,126.857,402.645z"/>
			</g>
		</g>
		<g>
			<g>
				<path fill="#80C343" d="M178.453,406.656c-0.242,0.277,19.856,10.689,35.731,26.787c16.567,15.613,25.432,37.08,25.514,37.999
					c0.742,1.887,1.726,3.281,2.195,3.114c0.465-0.164,0.231-1.859-0.528-3.785c-0.076-0.934-9.326-22.72-26.287-38.234
					C198.808,416.519,178.437,406.498,178.453,406.656z"/>
				<path fill="#A7D384" d="M178.508,406.757c-0.169,0.132,20.073,10.573,36.007,26.797c16.627,15.752,25.425,37.397,25.466,38.294
					c0.723,1.838,1.616,2.528,1.773,2.471c0.164-0.059-0.466-0.851-1.194-2.698c-0.042-0.906-8.972-22.664-25.734-38.376
					C198.752,417.042,178.417,406.74,178.508,406.757z"/>
			</g>
		</g>
		<g>
			<g>
				<path fill="#80C343" d="M235.739,417.848c0.129-0.16-1.679,5.041,1.922,11.59c3.319,6.543,11.461,12.338,16.577,20.249
					c5.059,8.111,6.25,17.885,7.893,25.021c1.48,7.251,3.555,12.039,3.744,12.428c0.727,1.625,1.724,2.726,2.075,2.523
					c0.38-0.216,0.015-1.592-0.676-3.139c-0.186-0.381-2.224-4.939-3.773-12.118c-1.704-7.038-3.016-16.989-8.345-25.279
					c-5.465-8.144-13.584-13.656-16.977-19.977C234.516,422.891,236.063,417.748,235.739,417.848z"/>
				<path fill="#A7D384" d="M235.679,417.926c0.195-0.15-1.554,5.086,2.125,11.592c3.384,6.516,11.581,12.291,16.684,20.323
					c5.028,8.225,6.173,18.058,7.834,25.219c1.483,7.279,3.647,12.041,3.805,12.427c0.757,1.551,1.567,2.056,1.691,1.984
					c0.132-0.071-0.463-0.675-1.208-2.205c-0.157-0.383-2.308-5.058-3.811-12.312c-1.683-7.126-2.874-17.02-7.99-25.305
					c-5.229-8.117-13.416-13.791-16.824-20.231C234.283,423.012,235.944,417.796,235.679,417.926z"/>
			</g>
		</g>
		<g>
			<g>
				<path fill="#80C343" d="M278.388,460.844c0.183-0.215,6.396,6.65,8.839,15.611c2.969,8.667,3.654,17.943,3.607,18.332
					c0.037,0.819,0.232,1.482,0.434,1.477c0.201,0,0.334-0.683,0.29-1.521c0.05-0.405-0.728-9.768-3.843-18.453
					C285.13,467.302,278.681,460.449,278.388,460.844z"/>
				<path fill="#A7D384" d="M278.405,460.891c0.229-0.279,6.474,6.655,8.924,15.666c2.965,8.719,3.619,18.047,3.562,18.422
					c0.035,0.801,0.287,1.181,0.356,1.181s-0.066-0.388-0.104-1.191c0.058-0.384-0.629-9.742-3.646-18.466
					C284.999,467.484,278.671,460.549,278.405,460.891z"/>
			</g>
		</g>
		<g>
			<g>
				<path fill="#80C343" d="M107.944,452.863c-0.072,0.317,11.423,1.968,22.661,5.065c11.615,2.686,20.481,10.909,20.447,11.551
					c0.683,0.785,1.399,1.297,1.607,1.143c0.204-0.156-0.201-0.945-0.912-1.763c-0.164-0.198-2.229-2.631-6.016-5.154
					c-3.779-2.528-9.272-4.915-14.944-6.411C119.42,454.34,107.931,452.931,107.944,452.863z"/>
				<path fill="#A7D384" d="M107.988,452.906c-0.061,0.236,11.502,1.859,22.796,4.993c5.645,1.576,11.037,4.049,14.703,6.583
					c3.683,2.535,5.609,4.971,5.776,5.146c0.663,0.768,1.221,0.952,1.289,0.899c0.068-0.056-0.381-0.337-1.05-1.115
					c-0.167-0.172-2.122-2.633-5.846-5.179c-3.707-2.543-9.144-5.005-14.81-6.555C119.505,454.595,107.953,453.056,107.988,452.906z
					"/>
			</g>
		</g>
		<g>
			<g>
				<path fill="#80C343" d="M125.966,486.019c-0.03,0,8.295-0.919,15.993-4.371c7.775-3.339,13.951-9.414,14.218-9.619
					c0.563-0.513,0.916-1.032,0.786-1.162c-0.129-0.135-0.682,0.168-1.242,0.677c-0.267,0.206-6.312,6.263-13.956,9.678
					C134.199,484.75,125.907,485.839,125.966,486.019z"/>
				<path fill="#A7D384" d="M126.005,486.036c-0.039-0.061,8.319-1.007,16.038-4.483c7.789-3.383,13.978-9.479,14.238-9.678
					c0.543-0.494,0.663-0.888,0.619-0.932c-0.044-0.047-0.229,0.268-0.777,0.766c-0.264,0.194-6.404,6.287-14.149,9.695
					C134.303,484.908,125.958,485.912,126.005,486.036z"/>
			</g>
		</g>
		<g>
			<g>
				<path fill="#80C343" d="M120.555,410.413c-0.003-0.009,7.025,5.164,14.929,9.102c7.874,4.263,17.1,4.788,17.465,4.577
					c0.805-0.005,1.453-0.17,1.442-0.363c-0.015-0.191-0.656-0.343-1.442-0.336c-0.353,0.201-9.368-0.211-17.253-4.324
					C127.796,415.27,120.65,410.241,120.555,410.413z"/>
				<path fill="#A7D384" d="M120.575,410.455c0.031-0.063,7.103,5.122,15.048,9.061c7.906,4.263,17.169,4.755,17.515,4.532
					c0.786-0.006,1.153-0.234,1.151-0.299c-0.007-0.07-0.375,0.051-1.151,0.055c-0.346,0.223-9.527-0.23-17.441-4.441
					C127.752,415.473,120.64,410.333,120.575,410.455z"/>
			</g>
		</g>
		<g>
			<g>
				<path fill="#80C343" d="M149.631,400.998c-0.047,0.123,2.163,0.488,4.87,2.275c2.732,1.748,5.551,5.201,7.201,9.232
					c3.484,8.067,3.282,17.137,3.323,17.462c0.007,0.787,0.17,1.432,0.362,1.436c0.191,0.002,0.343-0.646,0.336-1.447
					c-0.044-0.334,0.085-9.502-3.568-17.65c-1.737-4.069-4.676-7.555-7.506-9.258C151.848,401.301,149.603,401.029,149.631,400.998z
					"/>
				<path fill="#A7D384" d="M149.663,401.031c-0.038,0.09,2.186,0.439,4.911,2.244c2.765,1.754,5.578,5.258,7.232,9.318
					c3.472,8.138,3.232,17.247,3.264,17.561c0.009,0.771,0.235,1.142,0.302,1.144c0.065,0-0.053-0.373-0.06-1.144
					c-0.034-0.321,0.183-9.465-3.353-17.631c-1.678-4.071-4.536-7.584-7.331-9.327C151.868,401.407,149.631,401.09,149.663,401.031z
					"/>
			</g>
		</g>
		<g>
			<g>
				<path fill="#80C343" d="M99.343,441.609c0.601-5.173,66.677,17.852,69.283,11.297c1.591-0.27,2.808-0.789,2.716-1.161
					c-0.091-0.374-1.402-0.469-2.93-0.209C166.583,458.087,100.023,435.705,99.343,441.609z"/>
				<path fill="#A7D384" d="M99.425,441.651c0.607-5.41,67.06,17.892,69.562,11.104c1.545-0.264,2.187-0.822,2.154-0.947
					c-0.024-0.132-0.71,0.213-2.231,0.473C166.677,459.067,100.06,435.99,99.425,441.651z"/>
			</g>
		</g>
		<g>
			<g>
				<path fill="#80C343" d="M105.098,432.761c-0.041,0.104,8.401,1.105,15.907,5.159c7.518,3.855,14.624,8.702,15.008,8.802
					c0.657,0.398,1.268,0.598,1.361,0.438c0.095-0.163-0.358-0.616-1.016-1.015c-0.38-0.097-7.516-4.873-15.137-8.653
					C113.591,433.517,105.064,432.678,105.098,432.761z"/>
				<path fill="#A7D384" d="M105.132,432.792c-0.037,0.038,8.462,1.045,16.008,5.129c7.543,3.899,14.675,8.764,15.052,8.86
					c0.636,0.39,1.057,0.392,1.092,0.337c0.03-0.058-0.333-0.147-0.972-0.539c-0.375-0.095-7.519-4.935-15.096-8.806
					C113.625,433.713,105.098,432.761,105.132,432.792z"/>
			</g>
		</g>
		<g>
			<g>
				<path fill="#80C343" d="M110.855,419.133c-0.018-0.023,8.854,1.338,16.873,5.442c8.251,3.675,14.892,9.964,14.995,10.373
					c0.535,0.593,1.091,0.976,1.242,0.853c0.154-0.123-0.17-0.724-0.717-1.341c-0.122-0.436-6.952-6.772-15.301-10.341
					C119.814,420.104,110.842,418.911,110.855,419.133z"/>
				<path fill="#A7D384" d="M110.889,419.164c-0.012-0.097,8.918,1.277,16.979,5.412c8.29,3.708,14.937,10.071,15.015,10.482
					c0.519,0.578,0.946,0.715,1.004,0.673c0.052-0.044-0.296-0.255-0.821-0.84c-0.085-0.424-6.798-6.801-15.121-10.472
					C119.841,420.315,110.884,418.997,110.889,419.164z"/>
			</g>
		</g>
		<g>
			<g>
				<path fill="#80C343" d="M165.183,399.95c-0.113,0.132,3.595,3.213,8.207,8.779c4.69,5.471,10.172,13.557,17.555,20.089
					c7.319,6.621,16.357,10.909,22.991,14.232c6.713,3.256,11.182,5.711,11.547,5.958c1.518,0.861,2.937,1.263,3.159,0.9
					c0.221-0.364-0.853-1.374-2.405-2.251c-0.365-0.25-4.934-2.708-11.678-5.89c-6.676-3.257-15.621-7.38-22.897-13.777
					c-7.333-6.291-12.964-14.276-17.815-19.653C169.063,402.86,165.199,399.912,165.183,399.95z"/>
				<path fill="#A7D384" d="M165.21,400.046c-0.068,0.073,3.687,3.147,8.34,8.735c4.731,5.493,10.26,13.6,17.684,20.124
					c7.387,6.574,16.435,10.883,23.103,14.214c6.747,3.259,11.199,5.778,11.558,6.01c1.478,0.836,2.449,0.817,2.527,0.691
					c0.079-0.125-0.775-0.314-2.263-1.16c-0.359-0.232-4.85-2.755-11.606-5.986c-6.681-3.308-15.7-7.559-23.072-14.059
					c-7.409-6.438-12.986-14.508-17.772-19.97C168.998,403.086,165.187,400.06,165.21,400.046z"/>
			</g>
		</g>
		<g>
			<g>
				<path fill="#80C343" d="M170.06,423.393c-0.037,0.043,6.593,4.358,13.926,7.546c7.289,3.284,15.121,5.381,15.461,5.482
					c0.698,0.193,1.299,0.215,1.343,0.046s-0.478-0.464-1.172-0.659c-0.34-0.102-8.151-2.117-15.452-5.28
					C176.82,427.459,170.117,423.29,170.06,423.393z"/>
				<path fill="#A7D384" d="M170.083,423.428c-0.013-0.004,6.662,4.314,14.026,7.508c7.323,3.285,15.184,5.391,15.514,5.489
					c0.676,0.191,1.061,0.086,1.069,0.029c0.019-0.06-0.336-0.052-1.009-0.24c-0.331-0.099-8.185-2.181-15.511-5.423
					C176.798,427.641,170.104,423.375,170.083,423.428z"/>
			</g>
		</g>
		<g>
			<g>
				<path fill="#80C343" d="M203.227,399.389c0.059-0.119,10.14,8.97,15.687,21.43c3.396,5.875,3.981,12.721,5.2,17.77
					c1.045,5.115,2.868,8.41,3.107,8.632c0.645,1.114,1.615,1.671,1.782,1.482c0.242-0.242-0.292-1.038-0.874-2.054
					c-0.21-0.19-1.955-3.229-3.05-8.285c-1.248-4.919-1.955-11.971-5.49-17.889C213.826,408.008,203.447,399.009,203.227,399.389z"
					/>
				<path fill="#A7D384" d="M203.249,399.455c0.123-0.208,10.275,8.958,15.825,21.491c3.415,5.916,3.928,12.84,5.179,17.889
					c1.06,5.133,2.937,8.401,3.186,8.605c0.686,1.037,1.398,1.211,1.446,1.152c0.102-0.084-0.475-0.352-1.135-1.358
					c-0.235-0.191-2.085-3.367-3.16-8.479c-1.265-5.005-1.82-11.993-5.279-17.928C213.682,408.292,203.424,399.156,203.249,399.455z
					"/>
			</g>
		</g>
		<g>
			<g>
				<path fill="#80C343" d="M229.035,423.584c0.076-0.082,1.72,9.655,7.085,17.982c2.612,4.183,6.816,7.313,10.455,8.452
					c3.66,1.171,6.349,0.884,6.55,0.928c0.902-0.019,1.615-0.205,1.597-0.418c-0.019-0.214-0.738-0.374-1.604-0.358
					c-0.198-0.042-2.802,0.259-6.319-0.831c-3.503-1.057-7.594-4.009-10.227-8.08C231.177,433.157,229.309,423.439,229.035,423.584z
					"/>
				<path fill="#A7D384" d="M229.023,423.632c0.145-0.104,1.811,9.688,7.226,18.014c2.644,4.166,6.87,7.308,10.536,8.369
					c3.67,1.142,6.358,0.841,6.553,0.879c0.875-0.021,1.273-0.273,1.268-0.346c-0.004-0.077-0.409,0.06-1.27,0.077
					c-0.199-0.038-2.858,0.27-6.475-0.845c-3.623-1.037-7.802-4.112-10.456-8.242C230.978,433.289,229.236,423.506,229.023,423.632z
					"/>
			</g>
		</g>
		<g>
			<g>
				<path fill="#80C343" d="M251.878,425.643c0.02-0.021,0.314,2.146,1.874,4.967c1.457,2.854,4.449,6.077,5.88,10.078
					c2.912,8.161-0.515,16.932-0.04,17.255c-0.11,0.776-0.051,1.422,0.141,1.444c0.186,0.023,0.429-0.58,0.532-1.346
					c-0.494-0.283,2.918-9.108-0.18-17.521c-1.551-4.108-4.594-7.252-6.1-10.042C252.373,427.734,251.993,425.611,251.878,425.643z"
					/>
				<path fill="#A7D384" d="M251.866,425.685c0.047-0.024,0.371,2.146,1.957,4.962c1.468,2.853,4.502,6.079,5.901,10.131
					c2.86,8.252-0.602,17.041-0.113,17.356c-0.106,0.751,0.057,1.143,0.122,1.149c0.067,0.008,0.003-0.367,0.11-1.116
					c-0.494-0.304,2.963-9.11,0.038-17.444c-1.443-4.094-4.493-7.289-5.981-10.123C252.296,427.809,251.945,425.655,251.866,425.685
					z"/>
			</g>
		</g>
		<g>
			<g>
				<path fill="#80C343" d="M149.801,460.09c-0.076,0.327,11.07,2.207,22.237,4.287c11.359,2.017,20.688,9.218,20.963,9.586
					c0.813,0.619,1.6,0.969,1.76,0.773c0.161-0.196-0.383-0.864-1.217-1.496c-0.248-0.366-9.873-7.626-21.374-9.492
					C160.904,461.82,149.801,460.176,149.801,460.09z"/>
				<path fill="#A7D384" d="M149.841,460.13c-0.053,0.254,11.145,2.1,22.366,4.205c11.42,2.064,20.768,9.373,21.02,9.729
					c0.796,0.604,1.358,0.673,1.416,0.604c0.053-0.063-0.426-0.245-1.224-0.855c-0.245-0.353-9.697-7.685-21.164-9.693
					C160.999,462.065,149.814,460.301,149.841,460.13z"/>
			</g>
		</g>
		<g>
			<g>
				<path fill="#80C343" d="M127.864,499.417c-0.058-0.214,13.561-3.067,27.018-7.329c6.687-2.204,13.323-5.009,17.669-8.437
					c4.568-3.347,5.421-7.729,5.308-7.993c0.227-1.374-0.326-2.438-0.56-2.376c-0.371,0.06-0.347,1.069-0.554,2.23
					c0.075,0.225-0.509,4.029-4.836,7.331c-4.135,3.339-10.669,6.217-17.28,8.493C141.315,495.768,127.704,498.91,127.864,499.417z"
					/>
				<path fill="#A7D384" d="M127.933,499.435c-0.09-0.31,13.602-3.203,27.106-7.498c6.7-2.235,13.376-5.035,17.678-8.535
					c4.537-3.405,5.269-7.827,5.104-8.074c0.116-1.327-0.428-1.903-0.488-1.884c-0.15,0.017,0.215,0.589,0.101,1.849
					c0.151,0.233-0.493,4.447-4.939,7.833c-4.229,3.467-10.87,6.287-17.542,8.552C141.498,496.03,127.81,499.021,127.933,499.435z"
					/>
			</g>
		</g>
		<g>
			<g>
				<path fill="#80C343" d="M152.602,518.469c-0.056,0.27,12.608-0.287,24.229-5.411c11.926-4.442,21.355-13.564,21.476-14.174
					c0.757-0.879,1.194-1.723,0.975-1.892c-0.218-0.166-0.984,0.381-1.718,1.227c-0.104,0.571-9.234,9.598-21.006,14.191
					C165.114,517.657,152.558,518.464,152.602,518.469z"/>
				<path fill="#A7D384" d="M152.656,518.497c-0.05,0.186,12.656-0.41,24.307-5.581c11.957-4.488,21.388-13.667,21.482-14.284
					c0.729-0.848,0.833-1.453,0.754-1.51c-0.073-0.061-0.293,0.442-1.016,1.283c-0.088,0.604-9.411,9.749-21.319,14.287
					C165.278,517.906,152.609,518.584,152.656,518.497z"/>
			</g>
		</g>
		<g>
			<g>
				<path fill="#80C343" d="M137.903,506.367c0.157,0.401,11.688-5.475,23.953-9.638c6.142-2.052,12.663-3.044,17.543-2.462
					c4.893,0.559,7.877,2.323,8.087,2.472c0.993,0.563,1.938,0.833,2.104,0.599c0.164-0.232-0.556-0.912-1.612-1.513
					c-0.221-0.151-3.393-1.985-8.478-2.506c-5.071-0.549-11.71,0.557-17.866,2.715C149.314,500.413,137.962,506.497,137.903,506.367
					z"/>
				<path fill="#A7D384" d="M137.969,506.378c0.122,0.316,11.685-5.624,24.034-9.788c6.176-2.06,12.757-3,17.662-2.378
					c4.931,0.59,7.87,2.487,8.091,2.604c0.972,0.552,1.629,0.542,1.686,0.464c0.053-0.083-0.519-0.215-1.51-0.778
					c-0.223-0.117-3.229-2.041-8.229-2.616c-4.977-0.613-11.594,0.368-17.777,2.464C149.559,500.586,138.06,506.603,137.969,506.378
					z"/>
			</g>
		</g>
		<g>
			<g>
				<path fill="#80C343" d="M191.822,527.605c0.028,0.127,5.952-1.02,14.801-2.983c8.839-1.966,20.692-4.551,32.811-5.175
					c12.319-0.67,24.206-4.468,33.073-7.291c8.883-2.899,15.055-4.525,15.596-4.628c2.122-0.542,3.751-1.408,3.635-1.932
					c-0.12-0.518-1.962-0.496-4.123,0.055c-0.544,0.103-6.811,1.811-15.661,4.807c-8.846,2.918-20.505,6.787-32.601,7.62
					c-12.251,0.812-24.117,3.621-32.903,5.807C197.654,526.081,191.797,527.47,191.822,527.605z"/>
				<path fill="#A7D384" d="M191.941,527.646c0.011,0.044,5.95-1.162,14.832-3.176c8.871-2.009,20.797-4.597,32.988-5.21
					c12.353-0.736,24.261-4.555,33.163-7.394c8.914-2.92,15.134-4.477,15.655-4.586c2.062-0.531,2.924-1.392,2.88-1.572
					c-0.037-0.18-0.972,0.388-3.05,0.92c-0.522,0.11-6.772,1.7-15.677,4.654c-8.893,2.868-20.732,6.709-33.001,7.502
					c-12.231,0.681-24.167,3.344-33.019,5.431C197.847,526.306,191.932,527.594,191.941,527.646z"/>
			</g>
		</g>
		<g>
			<g>
				<path fill="#80C343" d="M221.838,538.046c-0.073,0.255,10.838-0.75,19.855-6.862c9.141-5.647,16.39-13.839,16.731-14.126
					c0.66-0.71,1.054-1.415,0.88-1.57c-0.173-0.157-0.845,0.285-1.495,0.994c-0.347,0.285-7.469,8.482-16.437,14.199
					C232.544,536.857,221.769,538.063,221.838,538.046z"/>
				<path fill="#A7D384" d="M221.885,538.074c-0.072,0.176,10.866-0.865,19.895-7.027c9.159-5.69,16.429-13.911,16.762-14.195
					c0.642-0.689,0.752-1.204,0.692-1.258c-0.061-0.055-0.265,0.37-0.906,1.061c-0.33,0.28-7.562,8.499-16.656,14.217
					C232.705,537.051,221.816,538.167,221.885,538.074z"/>
			</g>
		</g>
		<g>
			<g>
				<path fill="#80C343" d="M188.847,517.437c-0.095-0.088,16.91-7.236,35.365-8.215c9.121-0.782,18.385-0.27,25.198,1.228
					c6.817,1.486,11.093,3.74,11.37,4.021c1.394,0.828,2.713,1.23,2.953,0.901c0.238-0.326-0.768-1.302-2.246-2.179
					c-0.305-0.306-4.808-2.621-11.804-4.063c-6.99-1.456-16.369-1.859-25.56-0.94C205.542,509.447,188.552,516.996,188.847,517.437z
					"/>
				<path fill="#A7D384" d="M188.942,517.446c-0.164-0.218,16.961-7.4,35.513-8.367c9.181-0.774,18.494-0.197,25.333,1.339
					c6.861,1.522,11.094,3.911,11.373,4.171c1.355,0.806,2.283,0.812,2.365,0.698c0.078-0.117-0.73-0.315-2.113-1.139
					c-0.289-0.262-4.604-2.679-11.527-4.187c-6.902-1.523-16.26-2.064-25.46-1.241C205.827,509.784,188.708,517.106,188.942,517.446
					z"/>
			</g>
		</g>
		<g>
			<g>
				<path fill="#80C343" d="M205.579,534.203c-0.016,0.073,7.097-1.166,13.404-4.756c6.326-3.432,12.25-7.635,12.567-7.731
					c0.544-0.352,0.918-0.747,0.834-0.877c-0.082-0.134-0.594,0.044-1.142,0.396c-0.321,0.1-6.22,4.362-12.451,7.855
					C212.581,532.748,205.542,534.117,205.579,534.203z"/>
				<path fill="#A7D384" d="M205.611,534.213c-0.022,0.024,7.111-1.244,13.441-4.854c6.339-3.463,12.298-7.664,12.608-7.758
					c0.532-0.344,0.688-0.662,0.66-0.708c-0.031-0.044-0.232,0.197-0.767,0.544c-0.312,0.093-6.264,4.314-12.571,7.798
					C212.687,532.867,205.582,534.182,205.611,534.213z"/>
			</g>
		</g>
		<g>
			<g>
				<path fill="#80C343" d="M261.544,543.359c-0.009,0.115,16.807-0.434,33.497-3.741c16.729-3.1,32.913-9.083,33.625-9.321
					c1.452-0.515,2.525-1.216,2.396-1.563c-0.132-0.348-1.407-0.216-2.851,0.295c-0.715,0.236-16.757,6.33-33.358,9.654
					C278.293,542.214,261.519,543.103,261.544,543.359z"/>
				<path fill="#A7D384" d="M261.624,543.399c-0.016-0.005,16.875-0.599,33.628-3.936c16.791-3.143,33.038-9.146,33.732-9.37
					c1.412-0.504,1.943-1.145,1.898-1.267c-0.048-0.121-0.649,0.327-2.059,0.825c-0.694,0.228-16.891,6.268-33.639,9.487
					C278.48,542.551,261.598,543.263,261.624,543.399z"/>
			</g>
		</g>
		<g>
			<g>
				<path fill="#80C343" d="M272.189,548.519c-0.042,0.13,6.414,0.183,12.306-2.487c5.912-2.409,11.329-5.942,11.584-6.056
					c0.494-0.301,0.833-0.641,0.758-0.76c-0.073-0.119-0.527,0.029-1.02,0.33c-0.257,0.115-5.624,3.685-11.457,6.157
					C278.548,548.433,272.169,548.508,272.189,548.519z"/>
				<path fill="#A7D384" d="M272.21,548.536c-0.032,0.088,6.439,0.111,12.354-2.575c5.924-2.436,11.367-5.972,11.618-6.081
					c0.479-0.293,0.624-0.575,0.595-0.613c-0.021-0.041-0.211,0.17-0.686,0.465c-0.252,0.106-5.679,3.655-11.574,6.117
					C278.631,548.554,272.189,548.574,272.21,548.536z"/>
			</g>
		</g>
		<g>
			<g>
				<path fill="#80C343" d="M244.443,540.831c-0.12-0.172,13.59-6.593,28.714-8.05c7.465-0.975,15.084-0.983,20.753-0.125
					c5.681,0.831,9.311,2.437,9.559,2.642c1.179,0.603,2.286,0.862,2.465,0.58c0.18-0.278-0.694-1.028-1.958-1.673
					c-0.271-0.22-4.095-1.865-9.912-2.648c-5.807-0.813-13.509-0.707-21.014,0.379C257.837,533.621,244.134,540.382,244.443,540.831
					z"/>
				<path fill="#A7D384" d="M244.521,540.834c-0.185-0.274,13.625-6.73,28.83-8.181c7.509-0.972,15.172-0.93,20.869-0.044
					c5.71,0.877,9.332,2.545,9.565,2.763c1.15,0.587,1.911,0.54,1.975,0.446c0.057-0.101-0.616-0.224-1.792-0.82
					c-0.242-0.225-3.938-1.911-9.694-2.77c-5.744-0.873-13.436-0.88-20.96,0.132C258.08,533.888,244.27,540.463,244.521,540.834z"/>
			</g>
		</g>
		<g>
			<g>
				<path fill="#80C343" d="M285.929,458.58c0.034-0.08,10.439,8.272,16.977,20.015c6.534,11.578,14.771,22.419,15.529,22.591
					c0.843,0.884,1.691,1.428,1.893,1.219c0.205-0.21-0.299-1.08-1.122-1.947c-0.733-0.159-8.923-10.718-15.671-22.263
					C296.799,466.482,286.108,458.233,285.929,458.58z"/>
				<path fill="#A7D384" d="M285.955,458.644c0.091-0.174,10.564,8.248,17.123,20.061c6.559,11.647,14.848,22.495,15.605,22.644
					c0.818,0.858,1.45,1.028,1.521,0.955c0.071-0.069-0.442-0.358-1.253-1.208c-0.75-0.143-9.022-10.896-15.653-22.53
					C296.67,466.766,286.095,458.38,285.955,458.644z"/>
			</g>
		</g>
		<g>
			<g>
				<path fill="#80C343" d="M270.739,459.877c-0.107,0.007,2.342,5.567,6.98,9.504c4.5,3.947,8.638,8.26,8.688,8.578
					c0.346,0.408,0.711,0.677,0.815,0.601c0.106-0.077-0.095-0.481-0.448-0.897c-0.049-0.327-4.298-4.671-8.828-8.526
					C273.289,465.292,270.761,459.848,270.739,459.877z"/>
				<path fill="#A7D384" d="M270.736,459.908c-0.069-0.006,2.411,5.553,7.068,9.503c4.531,3.948,8.662,8.32,8.71,8.628
					c0.333,0.4,0.616,0.499,0.653,0.472c0.038-0.027-0.188-0.173-0.528-0.574c-0.047-0.309-4.216-4.692-8.756-8.611
					C273.219,465.408,270.71,459.89,270.736,459.908z"/>
			</g>
		</g>
		
			<radialGradient id="SVGID_10_" cx="681.7344" cy="508.4468" r="258.7231" gradientTransform="matrix(-0.3174 0.9483 0.9483 0.3174 -81.8535 -146.7041)" gradientUnits="userSpaceOnUse">
			<stop  offset="0.5618" style="stop-color:#54AC47"/>
			<stop  offset="0.615" style="stop-color:#59AE47"/>
			<stop  offset="0.6705" style="stop-color:#67B34A"/>
			<stop  offset="0.7271" style="stop-color:#7DBB51"/>
			<stop  offset="0.784" style="stop-color:#98C95C"/>
			<stop  offset="0.7978" style="stop-color:#A0CE60"/>
		</radialGradient>
		<path fill="url(#SVGID_10_)" d="M356.544,518.984c-7.214-6.352-16.477-9.062-25.457-12.121
			c-17.089-5.82-58.449-21.349-62.305-22.848c-5.585-2.172-60.78-23.952-69.005-26.562c-7.906-2.506-44.159-16.655-54.678-20.196
			c-4.285-1.439-21.655-5.209-26.516-5.082c7.405-0.147,39.659,15.541,43.6,17.305c16.824,7.521,34.037,14.832,51.309,21.512
			c19.876,7.689,67.959,30.767,106.807,54.14c14.151,8.512,20.502,20.039,23.158,25.382c3.469,6.979,2.895,12.83,11.973,13.423
			c6.781,0.447,15.44-3.675,19.09-9.427c4.688-7.381,2.359-15.024-2.741-21.712C371.779,532.796,366.869,528.082,356.544,518.984z"
			/>
	</g>
	<g>
		<path fill="#1C191A" d="M353.509,396.388c19.548-9.901,44.001-10.331,62.64,1.895c14.4-1.137,28.316,2.677,41.375,8.386
			c11.82-0.606,22.303,4.167,32.684,9.068c15.863,2.576,27.203,16.593,30.059,31.877c17.148,17.908,11.492,46.122,2.426,66.632
			c0.631,9.119,3.988,18.717-0.027,27.634c-7.174,19.626-29.25,28.619-48.875,28.516c-3.838,3.46-8.031,6.617-12.982,8.312
			c-10.457,3.385-17.936,12.478-28.617,15.278c-8.133,3.108-16.748-1.135-24.932,1.34c-14.701,4.193-30.563,1.493-44.079-5.152
			c-7.728-4.976-16.567,0.783-24.854,0.354c-14.901,1.263-28.769-6.594-37.86-17.936c-7.756-0.353-15.839-1.34-22.23-6.162
			c-8.84-7.808-22.91-7.629-29.25-18.591c-9.168-13.033-5.152-29.351-3.282-43.875c-1.212-15.709,6.771-31.344,20.283-39.479
			c1.337-8.335,4.344-16.544,10.33-22.684c5.784-6.113,8.841-14.497,15.762-19.575c7.729-5.807,13.438-14.121,22.228-18.487
			C326.126,396.918,340.095,395.075,353.509,396.388z"/>
		<path fill="#E187B8" d="M345.981,415.837c8.133-6.921,17.074-13.488,27.707-15.863c13.185-3.333,27.409,0.026,38.549,7.578
			c-9.375,1.971-18.365,5.631-25.972,11.493c-0.324-1.641-0.957-4.924-1.287-6.567c0.025,2.072,0.053,6.238,0.076,8.311
			c-5.077,6.264-10.382,13.815-19.17,14.523c-8.31,0.429-15.686,3.991-21.268,10.156c-0.658-1.466-1.995-4.396-2.676-5.861
			c1.992,7.274-5.533,10.404-9.245,15.229c-5.509,5.786-6.946,14.777-13.917,19.223c-5.432,3.712-11.569,6.998-14.778,13.034
			c-7.905,11.847-5.606,27.303,0.024,39.604c-2.979,11.087-2.854,22.655-0.202,33.82c-8.991,1.14-18.944,0.331-25.611-6.591
			c-0.354-3.132,3.813-4.218,5.456-6.44c5.935-5.508,8.21-15.889,3.308-22.761c-3.13-5.1-7.348-10.076-6.188-16.491
			c-3.764-2.979-7.449-6.062-11.263-8.994c2.474,3.943,5.579,7.428,9.067,10.508c0.933,7.197,5.579,12.958,8.283,19.502
			c2.022,7.702-2.048,16.998-9.447,20.281c-7.955,2.575-16.419-2.478-20.938-8.89c-4.901-9.019-4.067-20.057-1.541-29.655
			c2.804,3.942,4.545,8.485,5.784,13.161c0.53-10.457-7.934-19.98-3.663-30.312c3.638-11.796,14.067-22.53,27.432-20.357
			c-0.228,3.459-0.454,6.92-0.784,10.38c2.047-10.633,8.285-19.649,16.772-26.194c-6.719,2.628-12.401,7.022-15.434,13.718
			c-2.703-0.48-5.38-0.962-8.059-1.44c-0.555-11.845,6.769-23.794,18.466-27.052c10.404-4.396,27.076,2.348,25.157,15.407
			c0.807,7.199-5.71,11.366-9.775,16.218c5.659-3.638,11.796-8.69,11.569-16.117c0.858-7.047-3.813-12.755-8.589-17.227
			c1.566-7.07,4.953-13.437,9.092-19.298c-6.112,4.521-9.822,11.115-11.568,18.414c-6.744-1.136-13.587-1.062-20.331,0.076
			c4.825-9.726,14.245-15.256,21.823-22.506c11.719-9.321,27.126-12.855,41.879-12.478c-3.991,3.511-7.905,7.172-11.29,11.316
			c-1.643,0.024-4.953,0.101-6.593,0.126c3.638,1.035,7.273,2.123,10.909,3.184C347.318,418.971,346.41,416.899,345.981,415.837z"/>
		<path fill="#E187B8" d="M389.602,423.844c11.872-10.912,28.644-17.227,44.761-13.941c11.518,1.465,21.164,9.622,33.064,9.043
			c11.77,0.353,20.281,9.672,25.182,19.549c-1.693-3.688-3.385-7.352-5.08-11.039c13.162,0.76,20.385,12.881,22.963,24.4
			c-1.615,4.371-2.098,8.967-2.045,13.59c1.641-2.98,3.408-5.91,5.15-8.842c8.137,7.68,8.111,19.652,6.42,29.882
			c-1.344,10.711-5.764,20.688-11.293,29.856c6.617,9.825,3.611,24.098-3.863,32.71c-9.244,9.952-23.846,11.821-36.729,10.481
			c5.455-8.108,15.41-12.933,16.975-23.615c1.969-0.178,5.887-0.583,7.83-0.783c-2.68-0.682-5.381-1.341-8.057-1.974
			c-0.582-3.279-1.164-6.564-1.744-9.848c1.945-0.759,5.887-2.224,7.857-2.98c-7.631,0.604-15.232,1.666-22.785,2.753
			c4.42,0.176,8.84,0.176,13.287,0.228c0.553,6.921,1.92,14.397-1.465,20.838c-2.047,4.926-7.275,6.946-11.621,9.27
			c-2.068,5.785-3.889,13.111-10.961,14.524c-11.973,3.209-20.486,13.791-32.938,15.636c-5.732,1.44-11.416-0.505-16.67-2.627
			c-0.809-1.517-2.402-4.521-3.209-6.035c2.805-2.352,5.582-4.7,8.334-7.1c-7.299,4.142-15.332,6.541-23.616,7.703
			c5.028,0.101,10.079,0.076,15.132-0.052c0.555,2.023,1.691,6.115,2.248,8.159c-21.396,7.428-50.519-1.312-57.137-24.776
			c-6.389,5.655-14.145,9.169-22.077,12.098c7.63-0.202,14.879-2.979,20.612-8.031c2.299,4.772,5.254,9.193,8.512,13.386
			c-13.11,5.001-29.755,6.139-40.466-4.495c-11.568-11.569-10.429-29.428-8.031-44.304c8.135,2.854,15.357,7.576,22.432,12.374
			c-1.771,3.286-3.513,6.621-5.18,9.979c2.679-2.903,5.254-5.883,7.856-8.813c10.076,0.833,20.231-3.385,24.525-13.034
			c3.637,2.575,7.376,5.052,11.468,6.87c-3.006-2.551-6.188-4.876-9.37-7.173c7.554-4.194,11.999-11.645,17.631-17.86
			c4.647-5.226,12.199-2.096,18.135-2.348c-5.76-1.011-12.856-4.343-17.988,0c-6.513,6.165-9.496,16.821-19.574,18.389
			c-3.508,5.329-7.726,11.165-14.598,11.972c-11.115,2.805-19.803-6.238-29.754-9.294c-8.312-2.45-10.838-11.923-10.786-19.628
			c-0.077-11.541,4.521-24.601,15.306-30.207c10.863-4.523,11.924-18.061,20.915-24.73c2.55-1.692,6.314-7.424,7.753-1.515
			c2.477-8.387,10.762-12.452,18.943-13.009C376.062,438.621,382.379,429.957,389.602,423.844z"/>
		<path fill="#1C191A" d="M403.976,429.351c6.164-2.628,13.084-6.39,19.826-3.309c4.221,1.162,6.518,5.153,9.246,8.233
			c6.541-3.485,14.877-6.111,21.445-1.161c8.586,5.634,8.461,16.872,9.723,25.938c-2.602-7.803-1.994-18.438-9.9-23.26
			c-6.691-4.094-14.523-1.518-20.965,1.616c-0.354,2.525-0.707,5.075-1.061,7.626c3.637,4.926,5.584,10.735,6.744,16.723
			c4.521,2.274,10.961,3.788,12.176,9.548c1.844,7.351,3.156,15.609,10.885,19.021c-3.688-1.643-8.664-2.352-10.002-6.796
			c-2.68-6.795-3.359-16.722-12.301-18.135c-7.299,0.681-12.504,6.769-16.318,12.477c-1.539,7.881-2.801,16.445-11.162,20.031
			c5.809,7.806,8.135,20.054,0.557,27.531c-5.027,5.886-13.236,5.026-20.107,4.42c-0.025,1.162-0.025,3.51-0.025,4.699
			c-0.328-1.744-0.959-5.229-1.262-6.971c7.932,2.195,18.361,1.741,22.377-6.72c6.568-11.544-3.41-23.289-12.324-29.906
			c3.23,1.843,6.389,3.838,9.545,5.834c6.922-3.712,9.725-10.811,9.676-18.414c5.383-6.011,9.625-13.767,17.984-16.014
			c-2.199-5.277-4.85-10.33-7.703-15.256c-1.012,0.984-3.084,3.007-4.121,3.991c4.17-6.416,5.133-16.471-1.691-21.445
			C418.778,424.982,410.974,428.339,403.976,429.351z"/>
		<path fill="#1C191A" d="M434.159,525.89c7.527-6.111,22.455,0.05,20.258,10.685c0.883,4.622-3.006,7.427-5.457,10.634
			c-2.045,5.204-3.107,10.811-6.389,15.458c2.879-7.553,1.438-14.953,0.252-22.559c2.803,0.534,3.838,4.525,5.861,6.367
			c8.41-8.764-0.152-24.223-11.873-20.231c-9.369,8.032-14.17,23.969-29.123,22.784c-4.85,5.253-10.281,11.566-18.136,11.466
			c-6.469-0.202-10.282-6.036-14.021-10.481c4.067,3.005,7.576,8.488,13.365,7.477c6.212-0.101,11.415-3.789,15.735-7.933
			c4.117-4.344,10.91-3.384,15.484-7.02C425.571,537.662,428.575,530.664,434.159,525.89z"/>
	</g>
	<path fill="#040404" d="M476.296,495.504c1.229-6.733,0.025-13.838,2.32-20.349c2.48-5.921,9.811-5.446,15.082-4.573
		c2.828-6.188,7.338-11.545,13.182-15.112c2.367-1.221,2.816-4.019,3.957-6.177c0.52,3.553,2.248,6.638,4.654,9.247
		c-1.885-0.517-3.693-1.22-5.574-1.738c-5.494,2.779-10.338,7.364-12.809,13.062c-1.77,5.975,0.857,14.072,7.283,16.048
		c4.188,1.875,8.584-1.033,12.912-0.193c3.635,0.399,6.695,2.6,9.225,5.085c-4.832-2.128-10.432-4.125-15.592-1.843
		c-4.07,2.525-2.262,8.345-5.189,11.688c-2.383,2.792-5.068,5.304-7.574,7.978c0.9-3.243,2.729-6.066,4.793-8.687
		c2.357-2.934,2.885-6.817,3.137-10.453c-3.346-1.386-6.678-2.837-9.41-5.275c-4.057,1.328-6.846,4.492-9.475,7.641
		c0.498-5.049,5.113-7.389,8.213-10.562c-0.846-2.842-0.359-8.004-4.289-8.37c-3.416-0.773-8.014-0.593-9.639,3.112
		C478.765,482.227,479.495,489.422,476.296,495.504L476.296,495.504z"/>
	<path fill="#040404" d="M387.119,458.926c-2.816,1.47-6.044,3.256-9.087,1.224c6.921-0.581,10.61-6.834,14.199-11.941
		c2.084-3.217,5.881-4.19,9.436-4.67c-7.656,3.759-13.317,12.491-10.559,21.114C389.498,462.951,388.213,460.991,387.119,458.926
		L387.119,458.926z"/>
	<path fill="#040404" d="M347.999,489.425c1.15-2.038,2.562-3.929,4.522-5.257c2.624-1.731,4.064-4.644,6.34-6.736
		c1.691-1.533,4.124-1.322,6.228-1.491c-0.796,2.489-3.822,1.983-5.397,3.564c-1.812,1.889-2.999,4.424-5.377,5.698
		C352.117,486.477,349.984,487.846,347.999,489.425L347.999,489.425z"/>
	<path fill="#1C191A" d="M348.79,487.182c3.343-2.897,9.972,0.023,8.996,5.063c0.393,2.191-1.334,3.521-2.423,5.04
		c-0.908,2.467-1.381,5.125-2.837,7.327c1.278-3.58,0.639-7.088,0.111-10.692c1.244,0.253,1.704,2.145,2.603,3.018
		c3.735-4.153-0.067-11.48-5.272-9.589c-4.161,3.807-6.293,11.361-12.934,10.8c-2.153,2.488-4.565,5.482-8.054,5.435
		c-2.872-0.096-4.565-2.861-6.226-4.968c1.806,1.424,3.365,4.022,5.935,3.543c2.759-0.047,5.069-1.795,6.987-3.76
		c1.829-2.059,4.846-1.604,6.876-3.327C344.976,492.761,346.31,489.444,348.79,487.182z"/>
	<text transform="matrix(1 0 0 1 188.9395 648.5801)" font-family="'Papyrus'" font-size="72">Brain Salad</text>
</g>
<text transform="matrix(1 0 0 1 144.5928 194.4487)" fill="#3A6297" font-family="'AvenirNext-Regular'" font-size="100">EpileTrack</text>
<text transform="matrix(1 0 0 1 344.4912 301.9497)" fill="#3A6297" font-family="'AvenirNext-Regular'" font-size="60">by</text>
<text transform="matrix(1 0 0 1 263.7983 883.9229)" fill="#3A6297" font-family="'MyriadPro-Regular'" font-size="72">loading</text>
<rect x="225.296" y="918.538" fill="#3A6297" width="305.89" height="5.77"/>
</svg>
