<?xml version="1.0" encoding="utf-8"?>
<!-- Generator: Adobe Illustrator 16.0.0, SVG Export Plug-In . SVG Version: 6.00 Build 0)  -->
<!DOCTYPE svg PUBLIC "-//W3C//DTD SVG 1.1//EN" "http://www.w3.org/Graphics/SVG/1.1/DTD/svg11.dtd">
<svg version="1.1" id="Layer_1" xmlns="http://www.w3.org/2000/svg" xmlns:xlink="http://www.w3.org/1999/xlink" x="0px" y="0px"
	 width="750px" height="1200px" viewBox="0 0 750 1200" enable-background="new 0 0 750 1200" xml:space="preserve">
<rect x="618.397" y="229.19" fill="#7AC25A" stroke="#FDFDFE" stroke-miterlimit="10" width="92.331" height="578"/>
<g>
	<rect y="1075" fill="#3A6297" stroke="#000000" stroke-miterlimit="10" width="750" height="125"/>
	<g>
		<line fill="#FFFFFF" stroke="#FFFFFF" stroke-width="3" stroke-miterlimit="10" x1="375.375" y1="1110" x2="375.375" y2="1165"/>
		
			<line fill="#FFFFFF" stroke="#FFFFFF" stroke-width="3" stroke-miterlimit="10" x1="347.875" y1="1137.5" x2="402.125" y2="1137.5"/>
	</g>
	<g>
		
			<line fill="#FFFFFF" stroke="#FFFFFF" stroke-width="3" stroke-miterlimit="10" x1="591.667" y1="1107.5" x2="591.667" y2="1167.499"/>
		
			<line fill="#FFFFFF" stroke="#FFFFFF" stroke-width="3" stroke-miterlimit="10" x1="590.667" y1="1166.499" x2="676.667" y2="1166.499"/>
		
			<line fill="#FFFFFF" stroke="#FFFFFF" stroke-width="3" stroke-miterlimit="10" x1="591.667" y1="1167.499" x2="611.667" y2="1123.5"/>
		
			<line fill="#FFFFFF" stroke="#FFFFFF" stroke-width="3" stroke-miterlimit="10" x1="610.667" y1="1123.5" x2="620" y2="1139.999"/>
		<line fill="#FFFFFF" stroke="#FFFFFF" stroke-width="3" stroke-miterlimit="10" x1="619" y1="1139.999" x2="641" y2="1109.5"/>
		<line fill="#FFFFFF" stroke="#FFFFFF" stroke-width="3" stroke-miterlimit="10" x1="640" y1="1109.5" x2="644" y2="1134.833"/>
		
			<line fill="#FFFFFF" stroke="#FFFFFF" stroke-width="3" stroke-miterlimit="10" x1="643" y1="1134.833" x2="660.333" y2="1139.999"/>
		
			<line fill="#FFFFFF" stroke="#FFFFFF" stroke-width="3" stroke-miterlimit="10" x1="659.333" y1="1139.999" x2="676.667" y2="1116.833"/>
	</g>
	
		<rect x="124.354" y="1145" fill="none" stroke="#FFFFFF" stroke-width="3" stroke-miterlimit="10" width="34.498" height="29.916"/>
	
		<rect x="124.354" y="1105.001" fill="none" stroke="#FFFFFF" stroke-width="3" stroke-miterlimit="10" width="34.498" height="29.916"/>
	<rect x="74.357" y="1145" fill="none" stroke="#FFFFFF" stroke-width="3" stroke-miterlimit="10" width="34.498" height="29.916"/>
	
		<rect x="74.357" y="1102.153" transform="matrix(0.925 0.38 -0.38 0.925 431.3161 48.9698)" fill="#FDFDFE" stroke="#FFFFFF" stroke-width="3" stroke-miterlimit="10" width="34.498" height="29.915"/>
</g>
<g>
	<line fill="#040403" stroke="#000000" stroke-miterlimit="10" x1="27.125" y1="44.5" x2="71.625" y2="20.5"/>
	<line fill="#040403" stroke="#000000" stroke-miterlimit="10" x1="27.125" y1="44.5" x2="71.625" y2="71.5"/>
</g>
<text transform="matrix(1 0 0 1 91.1274 72.5)" fill="#3A6297" font-family="'Avenir-Book'" font-size="68" letter-spacing="2">Monthly view</text>
<g id="Divider_9_" opacity="0.1">
	<g>
		<rect x="60" y="96" fill="#1D1D26" width="647" height="2"/>
	</g>
</g>
<line fill="none" stroke="#3A6297" stroke-miterlimit="10" x1="525" y1="5.327" x2="525" y2="91.75"/>
<g>
	<rect x="43.855" y="229.19" fill="#7AC25A" stroke="#FDFDFE" stroke-miterlimit="10" width="574.542" height="578"/>
	<line fill="#7AC25A" stroke="#FDFDFE" stroke-miterlimit="10" x1="43.855" y1="710.809" x2="618.397" y2="710.809"/>
	<line fill="#7AC25A" stroke="#FDFDFE" stroke-miterlimit="10" x1="43.855" y1="614.57" x2="618.397" y2="614.57"/>
	<line fill="#7AC25A" stroke="#FDFDFE" stroke-miterlimit="10" x1="43.855" y1="518.19" x2="618.397" y2="518.19"/>
	<line fill="#7AC25A" stroke="#FDFDFE" stroke-miterlimit="10" x1="43.855" y1="421.81" x2="618.397" y2="421.81"/>
	<line fill="#7AC25A" stroke="#FDFDFE" stroke-miterlimit="10" x1="43.855" y1="325.57" x2="618.397" y2="325.57"/>
	<line fill="#7AC25A" stroke="#FDFDFE" stroke-miterlimit="10" x1="522.594" y1="229.19" x2="522.594" y2="807.189"/>
	<line fill="#7AC25A" stroke="#FDFDFE" stroke-miterlimit="10" x1="426.931" y1="229.19" x2="426.931" y2="807.189"/>
	<line fill="#7AC25A" stroke="#FDFDFE" stroke-miterlimit="10" x1="331.126" y1="229.19" x2="331.126" y2="807.189"/>
	<line fill="#7AC25A" stroke="#FDFDFE" stroke-miterlimit="10" x1="235.323" y1="229.19" x2="235.323" y2="807.189"/>
	<line fill="#7AC25A" stroke="#FDFDFE" stroke-miterlimit="10" x1="139.659" y1="229.19" x2="139.659" y2="807.189"/>
</g>
<line fill="#FBFBFB" stroke="#FCFCFC" stroke-miterlimit="10" x1="618.397" y1="229.19" x2="706.73" y2="229.19"/>
<line fill="#FBFBFB" stroke="#FCFCFC" stroke-miterlimit="10" x1="706.73" y1="229.19" x2="706.73" y2="325.57"/>
<line fill="#FBFBFB" stroke="#FCFCFC" stroke-miterlimit="10" x1="617.563" y1="421.81" x2="705.896" y2="421.81"/>
<line fill="#FBFBFB" stroke="#FCFCFC" stroke-miterlimit="10" x1="617.564" y1="518.19" x2="705.895" y2="518.19"/>
<line fill="#FBFBFB" stroke="#FCFCFC" stroke-miterlimit="10" x1="706.895" y1="421.809" x2="706.895" y2="518.19"/>
<line fill="#FBFBFB" stroke="#FCFCFC" stroke-miterlimit="10" x1="618.397" y1="614.57" x2="706.73" y2="614.57"/>
<line fill="#FBFBFB" stroke="#FCFCFC" stroke-miterlimit="10" x1="618.398" y1="710.951" x2="706.729" y2="710.951"/>
<line fill="#FBFBFB" stroke="#FCFCFC" stroke-miterlimit="10" x1="706.73" y1="614.57" x2="706.73" y2="710.951"/>
<line fill="#FBFBFB" stroke="#FCFCFC" stroke-miterlimit="10" x1="706.73" y1="325.57" x2="706.73" y2="421.81"/>
<line fill="#FBFBFB" stroke="#FCFCFC" stroke-miterlimit="10" x1="706.895" y1="518.19" x2="706.895" y2="614.57"/>
<line fill="#FBFBFB" stroke="#FCFCFC" stroke-miterlimit="10" x1="706.729" y1="710.951" x2="706.729" y2="807.189"/>
<line fill="#FBFBFB" stroke="#FCFCFC" stroke-miterlimit="10" x1="706.729" y1="807.189" x2="618.397" y2="807.189"/>
<text transform="matrix(1 0 0 1 673.96 313.1895)" fill="#FBFBFB" stroke="#FCFCFC" stroke-miterlimit="10" font-family="'MyriadPro-Regular'" font-size="68">1</text>
<text transform="matrix(1 0 0 1 101.293 407.1895)" fill="#F9F9FA" font-family="'MyriadPro-Regular'" font-size="68">2</text>
<text transform="matrix(1 0 0 1 191.293 407.1895)" fill="#F9F9FA" font-family="'MyriadPro-Regular'" font-size="68">3</text>
<text transform="matrix(1 0 0 1 289.293 407.1895)" fill="#F9F9FA" font-family="'MyriadPro-Regular'" font-size="68">4</text>
<text transform="matrix(1 0 0 1 390.293 407.1895)" fill="#F9F9FA" font-family="'MyriadPro-Regular'" font-size="68">5</text>
<text transform="matrix(1 0 0 1 486.293 407.1895)" fill="#F9F9FA" font-family="'MyriadPro-Regular'" font-size="68">6</text>
<text transform="matrix(1 0 0 1 666.96 407.1895)" fill="#FBFBFB" stroke="#FCFCFC" stroke-miterlimit="10" font-family="'MyriadPro-Regular'" font-size="68">8</text>
<text transform="matrix(1 0 0 1 99.4595 498.1895)" fill="#F9F9FA" font-family="'MyriadPro-Regular'" font-size="68">9</text>
<text transform="matrix(1 0 0 1 160.4595 498.1895)" fill="#F9F9FA" font-family="'MyriadPro-Regular'" font-size="68">10</text>
<text transform="matrix(1 0 0 1 262.4595 498.1895)" fill="#F9F9FA" font-family="'MyriadPro-Regular'" font-size="68">11</text>
<text transform="matrix(1 0 0 1 350.4595 498.1895)" fill="#F9F9FA" font-family="'MyriadPro-Regular'" font-size="68">12</text>
<text transform="matrix(1 0 0 1 448.459 498.1895)" fill="#F9F9FA" font-family="'MyriadPro-Regular'" font-size="68">13</text>
<text transform="matrix(1 0 0 1 540.459 498.1895)" fill="#F9F9FA" font-family="'MyriadPro-Regular'" font-size="68">14</text>
<text transform="matrix(1 0 0 1 160.4595 598.1895)" fill="#F9F9FA" font-family="'MyriadPro-Regular'" font-size="68">17</text>
<text transform="matrix(1 0 0 1 256.4595 598.1895)" fill="#F9F9FA" font-family="'MyriadPro-Regular'" font-size="68">18</text>
<text transform="matrix(1 0 0 1 350.4595 598.1895)" fill="#F9F9FA" font-family="'MyriadPro-Regular'" font-size="68">19</text>
<text transform="matrix(1 0 0 1 448.459 598.1895)" fill="#F9F9FA" font-family="'MyriadPro-Regular'" font-size="68">20</text>
<text transform="matrix(1 0 0 1 540.459 598.1895)" fill="#F9F9FA" font-family="'MyriadPro-Regular'" font-size="68">21</text>
<text transform="matrix(1 0 0 1 160.4595 690.1895)" fill="#F9F9FA" font-family="'MyriadPro-Regular'" font-size="68">24</text>
<text transform="matrix(1 0 0 1 255.4595 690.1895)" fill="#F9F9FA" font-family="'MyriadPro-Regular'" font-size="68">25</text>
<text transform="matrix(1 0 0 1 350.4595 690.1895)" fill="#F9F9FA" font-family="'MyriadPro-Regular'" font-size="68">26</text>
<text transform="matrix(1 0 0 1 448.459 690.1895)" fill="#F9F9FA" font-family="'MyriadPro-Regular'" font-size="68">27</text>
<text transform="matrix(1 0 0 1 540.459 690.1895)" fill="#F9F9FA" font-family="'MyriadPro-Regular'" font-size="68">28</text>
<text transform="matrix(1 0 0 1 632.127 690.1895)" fill="#FBFBFB" stroke="#FCFCFC" stroke-miterlimit="10" font-family="'MyriadPro-Regular'" font-size="68">29</text>
<text transform="matrix(1 0 0 1 65.918 598.1895)" fill="#F9F9FA" font-family="'MyriadPro-Regular'" font-size="68">16</text>
<text transform="matrix(1 0 0 1 65.9185 690.1895)" fill="#F9F9FA" font-family="'MyriadPro-Regular'" font-size="68">23</text>
<text transform="matrix(1 0 0 1 65.9189 782.1895)" fill="#F9F9FA" font-family="'MyriadPro-Regular'" font-size="68">30</text>
<text transform="matrix(1 0 0 1 160.46 782.1895)" fill="#F9F9FA" font-family="'MyriadPro-Regular'" font-size="68">31</text>
<text transform="matrix(1 0 0 1 49.375 213)" font-family="'MyriadPro-Regular'" font-size="68">Mo</text>
<text transform="matrix(1 0 0 1 153.8521 213)" font-family="'MyriadPro-Regular'" font-size="68">Tu</text>
<text transform="matrix(1 0 0 1 235.3228 213)" font-family="'MyriadPro-Regular'" font-size="68">We</text>
<text transform="matrix(1 0 0 1 341.1265 213)" font-family="'MyriadPro-Regular'" font-size="68">Th</text>
<text transform="matrix(0.9999 0.0127 -0.0127 0.9999 448.5039 212.9731)" font-family="'MyriadPro-Regular'" font-size="68">Fr</text>
<rect x="525" y="325.571" fill="#E06A6A" stroke="#FDFDFE" stroke-miterlimit="10" width="92.33" height="96.238"/>
<text transform="matrix(1 0 0 1 535.2051 212.7876)" font-family="'MyriadPro-Regular'" font-size="68">Sa</text>
<text transform="matrix(1 0 0 1 630 212.7876)" font-family="'MyriadPro-Regular'" font-size="68">Su</text>
<line fill="#FBFBFB" stroke="#FCFCFC" stroke-miterlimit="10" x1="618.398" y1="325.57" x2="706.729" y2="325.57"/>
<text transform="matrix(1 0 0 1 571.165 407.1895)" fill="#F9F9FA" font-family="'MyriadPro-Regular'" font-size="68">7</text>
<rect x="619.795" y="421.88" fill="#984D23" stroke="#FDFDFE" stroke-miterlimit="10" width="90.934" height="96.238"/>
<text transform="matrix(1 0 0 1 632.127 498.1895)" fill="#FBFBFB" stroke="#FCFCFC" stroke-miterlimit="10" font-family="'MyriadPro-Regular'" font-size="68">15</text>
<rect x="621.563" y="519.38" fill="#3A6297" stroke="#FDFDFE" stroke-miterlimit="10" width="89.165" height="94"/>
<text transform="matrix(1 0 0 1 632.127 598.1895)" fill="#FBFBFB" stroke="#FCFCFC" stroke-miterlimit="10" font-family="'MyriadPro-Regular'" font-size="68">22</text>
<g>
	<rect x="527.25" y="5.327" fill="#3A6297" width="179.75" height="86.423"/>
	<text transform="matrix(1.0632 0 0 1 571.4355 39.8965)"><tspan x="0" y="0" fill="#FDFDFE" font-family="'MyriadPro-Regular'" font-size="30">Weekly</tspan><tspan x="16.08" y="36" fill="#FDFDFE" font-family="'MyriadPro-Regular'" font-size="30">view</tspan></text>
</g>
</svg>
