<?xml version="1.0" encoding="utf-8"?>
<!-- Generator: Adobe Illustrator 16.0.0, SVG Export Plug-In . SVG Version: 6.00 Build 0)  -->
<!DOCTYPE svg PUBLIC "-//W3C//DTD SVG 1.1//EN" "http://www.w3.org/Graphics/SVG/1.1/DTD/svg11.dtd">
<svg version="1.1" id="Layer_1" xmlns="http://www.w3.org/2000/svg" xmlns:xlink="http://www.w3.org/1999/xlink" x="0px" y="0px"
	 width="750px" height="1200px" viewBox="0 0 750 1200" enable-background="new 0 0 750 1200" xml:space="preserve">
<g>
	<rect y="1075" fill="#3A6297" stroke="#000000" stroke-miterlimit="10" width="750" height="125"/>
	<g>
		<line fill="#FFFFFF" stroke="#FFFFFF" stroke-width="3" stroke-miterlimit="10" x1="375.375" y1="1110" x2="375.375" y2="1165"/>
		
			<line fill="#FFFFFF" stroke="#FFFFFF" stroke-width="3" stroke-miterlimit="10" x1="347.875" y1="1137.5" x2="402.125" y2="1137.5"/>
	</g>
	<g>
		
			<line fill="#FFFFFF" stroke="#FFFFFF" stroke-width="3" stroke-miterlimit="10" x1="591.667" y1="1107.5" x2="591.667" y2="1167.499"/>
		
			<line fill="#FFFFFF" stroke="#FFFFFF" stroke-width="3" stroke-miterlimit="10" x1="590.667" y1="1166.499" x2="676.667" y2="1166.499"/>
		
			<line fill="#FFFFFF" stroke="#FFFFFF" stroke-width="3" stroke-miterlimit="10" x1="591.667" y1="1167.499" x2="611.667" y2="1123.5"/>
		
			<line fill="#FFFFFF" stroke="#FFFFFF" stroke-width="3" stroke-miterlimit="10" x1="610.667" y1="1123.5" x2="620" y2="1139.999"/>
		<line fill="#FFFFFF" stroke="#FFFFFF" stroke-width="3" stroke-miterlimit="10" x1="619" y1="1139.999" x2="641" y2="1109.5"/>
		<line fill="#FFFFFF" stroke="#FFFFFF" stroke-width="3" stroke-miterlimit="10" x1="640" y1="1109.5" x2="644" y2="1134.833"/>
		
			<line fill="#FFFFFF" stroke="#FFFFFF" stroke-width="3" stroke-miterlimit="10" x1="643" y1="1134.833" x2="660.333" y2="1139.999"/>
		
			<line fill="#FFFFFF" stroke="#FFFFFF" stroke-width="3" stroke-miterlimit="10" x1="659.333" y1="1139.999" x2="676.667" y2="1116.833"/>
	</g>
	
		<rect x="124.354" y="1145" fill="none" stroke="#FFFFFF" stroke-width="3" stroke-miterlimit="10" width="34.498" height="29.916"/>
	
		<rect x="124.354" y="1105.001" fill="none" stroke="#FFFFFF" stroke-width="3" stroke-miterlimit="10" width="34.498" height="29.916"/>
	<rect x="74.357" y="1145" fill="none" stroke="#FFFFFF" stroke-width="3" stroke-miterlimit="10" width="34.498" height="29.916"/>
	
		<rect x="74.357" y="1102.153" transform="matrix(0.925 0.38 -0.38 0.925 431.3161 48.9698)" fill="#FDFDFE" stroke="#FFFFFF" stroke-width="3" stroke-miterlimit="10" width="34.498" height="29.915"/>
</g>
<text transform="matrix(1 0 0 1 65.8022 399.5044)"><tspan x="0" y="0" fill="#3A6297" font-family="'MyriadPro-Regular'" font-size="48">15 May</tspan><tspan x="0" y="57.6" fill="#3A6297" font-family="'MyriadPro-Regular'" font-size="48">21:20</tspan></text>
<text transform="matrix(1 0 0 1 241 399.5044)"><tspan x="0" y="0" fill="#984D23" font-family="'MyriadPro-Regular'" font-size="48">Mild seizure</tspan><tspan x="0" y="57.6" fill="#984D23" font-family="'MyriadPro-Regular'" font-size="48">10 minutes</tspan></text>
<text transform="matrix(1 0 0 1 525 399.5044)"><tspan x="0" y="0" fill="#7BC25A" font-family="'MyriadPro-Regular'" font-size="48">Lorem</tspan><tspan x="0" y="57.6" fill="#7BC25A" font-family="'MyriadPro-Regular'" font-size="48">ipsum...</tspan></text>
<text transform="matrix(1 0 0 1 68.1035 739.9951)"><tspan x="0" y="0" fill="#3A6297" font-family="'MyriadPro-Regular'" font-size="48">7 May</tspan><tspan x="0" y="57.601" fill="#3A6297" font-family="'MyriadPro-Regular'" font-size="48">08:40</tspan></text>
<text transform="matrix(1 0 0 1 239.3013 739.9951)"><tspan x="0" y="0" fill="#E06B6B" font-family="'MyriadPro-Regular'" font-size="44">Severe seizure</tspan><tspan x="0" y="52.8" fill="#E06B6B" font-family="'MyriadPro-Regular'" font-size="44">3 minutes</tspan></text>
<text transform="matrix(1 0 0 1 527.3008 739.9951)"><tspan x="0" y="0" fill="#7BC25A" font-family="'MyriadPro-Regular'" font-size="48">Lorem</tspan><tspan x="0" y="57.601" fill="#7BC25A" font-family="'MyriadPro-Regular'" font-size="48">ipsum...</tspan></text>
<line fill="none" stroke="#3A6297" stroke-miterlimit="10" x1="60.802" y1="591.59" x2="707.803" y2="591.59"/>
<line fill="none" stroke="#3A6297" stroke-miterlimit="10" x1="60.802" y1="810.995" x2="707.803" y2="810.995"/>
<line fill="none" stroke="#3A6297" stroke-miterlimit="10" x1="221.099" y1="354.752" x2="221.099" y2="464.097"/>
<line fill="none" stroke="#3A6297" stroke-miterlimit="10" x1="504.585" y1="354.752" x2="504.585" y2="464.097"/>
<line fill="none" stroke="#3A6297" stroke-miterlimit="10" x1="225.4" y1="693.995" x2="225.4" y2="803.341"/>
<line fill="none" stroke="#3A6297" stroke-miterlimit="10" x1="508.887" y1="693.995" x2="508.887" y2="803.341"/>
<g>
	<line fill="#040403" stroke="#000000" stroke-miterlimit="10" x1="27.125" y1="44.5" x2="71.625" y2="20.5"/>
	<line fill="#040403" stroke="#000000" stroke-miterlimit="10" x1="27.125" y1="44.5" x2="71.625" y2="71.5"/>
</g>
<text transform="matrix(1 0 0 1 91.1274 72.5)" fill="#3A6297" font-family="'Avenir-Book'" font-size="72" letter-spacing="2">Weekly view</text>
<g id="Divider_9_" opacity="0.1">
	<g>
		<rect x="60" y="96" fill="#1D1D26" width="647" height="2"/>
	</g>
</g>
<line fill="none" stroke="#3A6297" stroke-miterlimit="10" x1="60" y1="190.61" x2="707" y2="190.61"/>
<line fill="none" stroke="#3A6297" stroke-miterlimit="10" x1="60" y1="222.109" x2="707" y2="222.109"/>
<line fill="none" stroke="#3A6297" stroke-miterlimit="10" x1="60" y1="252.107" x2="707" y2="252.107"/>
<line fill="none" stroke="#3A6297" stroke-miterlimit="10" x1="60" y1="283.605" x2="707" y2="283.605"/>
<line fill="none" stroke="#3A6297" stroke-miterlimit="10" x1="60" y1="315.104" x2="707" y2="315.104"/>
<line fill="none" stroke="#3A6297" stroke-miterlimit="10" x1="60" y1="346.603" x2="707" y2="346.603"/>
<line fill="none" stroke="#3A6297" stroke-miterlimit="10" x1="60" y1="469.112" x2="707" y2="469.112"/>
<line fill="none" stroke="#3A6297" stroke-miterlimit="10" x1="60" y1="500.61" x2="707" y2="500.61"/>
<line fill="none" stroke="#3A6297" stroke-miterlimit="10" x1="60" y1="529.593" x2="707" y2="529.593"/>
<line fill="none" stroke="#3A6297" stroke-miterlimit="10" x1="60.802" y1="560.092" x2="707.803" y2="560.092"/>
<line fill="none" stroke="#3A6297" stroke-miterlimit="10" x1="60.802" y1="627.088" x2="707.803" y2="627.088"/>
<line fill="none" stroke="#3A6297" stroke-miterlimit="10" x1="60.802" y1="658.587" x2="707.803" y2="658.587"/>
<line fill="none" stroke="#3A6297" stroke-miterlimit="10" x1="60.802" y1="689.085" x2="707.803" y2="689.085"/>
<line fill="none" stroke="#3A6297" stroke-miterlimit="10" x1="60.401" y1="840.076" x2="707.4" y2="840.076"/>
<line fill="none" stroke="#3A6297" stroke-miterlimit="10" x1="61.203" y1="998.053" x2="708.203" y2="998.053"/>
<line fill="none" stroke="#3A6297" stroke-miterlimit="10" x1="61.604" y1="933.57" x2="708.604" y2="933.57"/>
<line fill="none" stroke="#3A6297" stroke-miterlimit="10" x1="60.801" y1="871.574" x2="707.801" y2="871.574"/>
<line fill="none" stroke="#3A6297" stroke-miterlimit="10" x1="61.604" y1="902.072" x2="708.604" y2="902.072"/>
<line fill="none" stroke="#3A6297" stroke-miterlimit="10" x1="61.604" y1="967.068" x2="708.604" y2="967.068"/>
<line fill="none" stroke="#3A6297" stroke-miterlimit="10" x1="61.604" y1="1026.067" x2="708.604" y2="1026.067"/>
<text transform="matrix(1 0 0 1 68.104 150.6338)" fill="#3A6297" font-family="'MyriadPro-Regular'" font-size="21">22 May</text>
<text transform="matrix(1 0 0 1 68.104 180.6328)" fill="#3A6297" font-family="'MyriadPro-Regular'" font-size="21">21 May</text>
<text transform="matrix(1 0 0 1 68.1045 213.6318)" fill="#3A6297" font-family="'MyriadPro-Regular'" font-size="21">20 May</text>
<text transform="matrix(1 0 0 1 69.625 243.6299)" fill="#3A6297" font-family="'MyriadPro-Regular'" font-size="21">19 May</text>
<text transform="matrix(1 0 0 1 69.6255 275.1279)" fill="#3A6297" font-family="'MyriadPro-Regular'" font-size="21">18 May</text>
<text transform="matrix(1 0 0 1 71.6255 308.126)" fill="#3A6297" font-family="'MyriadPro-Regular'" font-size="21">17 May</text>
<text transform="matrix(1 0 0 1 71.6255 336.625)" fill="#3A6297" font-family="'MyriadPro-Regular'" font-size="21">16 May</text>
<text transform="matrix(1 0 0 1 71.6255 490.9951)" fill="#3A6297" font-family="'MyriadPro-Regular'" font-size="21">14 May</text>
<text transform="matrix(1 0 0 1 71.626 523.0151)" fill="#3A6297" font-family="'MyriadPro-Regular'" font-size="21">13 May</text>
<text transform="matrix(1 0 0 1 71.626 553.0137)" fill="#3A6297" font-family="'MyriadPro-Regular'" font-size="21">12 May</text>
<text transform="matrix(1 0 0 1 71.6265 586.0122)" fill="#3A6297" font-family="'MyriadPro-Regular'" font-size="21">11 May</text>
<text transform="matrix(1 0 0 1 73.147 616.0098)" fill="#3A6297" font-family="'MyriadPro-Regular'" font-size="21">10 May</text>
<text transform="matrix(1 0 0 1 73.1475 647.5088)" fill="#3A6297" font-family="'MyriadPro-Regular'" font-size="21">9 May</text>
<text transform="matrix(1 0 0 1 75.1475 680.5068)" fill="#3A6297" font-family="'MyriadPro-Regular'" font-size="21">8 May</text>
<text transform="matrix(1 0 0 1 73.3867 830.5977)" fill="#3A6297" font-family="'MyriadPro-Regular'" font-size="21">6 May</text>
<text transform="matrix(1 0 0 1 73.3872 862.6182)" fill="#3A6297" font-family="'MyriadPro-Regular'" font-size="21">5 May</text>
<text transform="matrix(1 0 0 1 73.3872 892.6172)" fill="#3A6297" font-family="'MyriadPro-Regular'" font-size="21">4 May</text>
<text transform="matrix(1 0 0 1 73.3877 925.6152)" fill="#3A6297" font-family="'MyriadPro-Regular'" font-size="21">3 May</text>
<text transform="matrix(1 0 0 1 74.9082 955.6133)" fill="#3A6297" font-family="'MyriadPro-Regular'" font-size="21">2 May</text>
<text transform="matrix(1 0 0 1 74.9087 987.1113)" fill="#3A6297" font-family="'MyriadPro-Regular'" font-size="21">1 May</text>
<text transform="matrix(1 0 0 1 76.9087 1020.1094)" fill="#3A6297" font-family="'MyriadPro-Regular'" font-size="21">30 April</text>
<text transform="matrix(1 0 0 1 76.9087 1048.6094)" fill="#3A6297" font-family="'MyriadPro-Regular'" font-size="21">29 April</text>
<line fill="none" stroke="#3A6297" stroke-miterlimit="10" x1="61.604" y1="963.068" x2="708.604" y2="963.068"/>
<line fill="none" stroke="#3A6297" stroke-miterlimit="10" x1="61" y1="654" x2="708" y2="654"/>
<line fill="none" stroke="#3A6297" stroke-miterlimit="10" x1="60.802" y1="160" x2="707.803" y2="160"/>
<line fill="none" stroke="#3A6297" stroke-miterlimit="10" x1="60" y1="1056.066" x2="707" y2="1056.066"/>
<line fill="none" stroke="#3A6297" stroke-miterlimit="10" x1="525" y1="5.327" x2="525" y2="91.75"/>
<rect x="527.301" y="5.327" fill="#3A6297" width="180.408" height="86.423"/>
<text transform="matrix(1.1528 0 0 1 556.3457 36.5)"><tspan x="0" y="0" fill="#FDFDFE" font-family="'MyriadPro-Regular'" font-size="30">Monthly</tspan><tspan x="23.234" y="36" fill="#FDFDFE" font-family="'MyriadPro-Regular'" font-size="30">view</tspan></text>
</svg>
